<svg width="760" height="110" viewBox="0 0 760 110" fill="none" xmlns="http://www.w3.org/2000/svg">
<path opacity="0.6" d="M0 85C12.6667 85.0667 25.3333 85.13 38 85.19C152 85.73 266 86 380 86C494 86 608 85.73 722 85.19C734.667 85.13 747.333 85.0667 760 85C747.333 84.9333 734.667 84.87 722 84.81C608 84.27 494 84 380 84C266 84 152 84.27 38 84.81C25.3333 84.87 12.6667 84.9333 0 85Z" fill="black"/>
<g clip-path="url(#clip0_980_90134)">
<path d="M385.881 103.164C385.881 103.164 388.086 107.594 390.563 109.724C390.981 110.083 391.631 109.885 391.787 109.358C391.877 109.053 391.966 108.647 392.038 108.106C392.311 106.083 390.483 100.816 390.483 100.816L389.67 100.555C389.384 100.463 389.081 100.637 389.018 100.929L388.933 101.324L387.955 100.466C387.732 100.271 387.39 100.3 387.206 100.532C386.832 101.004 386.251 101.884 385.881 103.164H385.881Z" fill="white"/>
<path d="M391.053 110C390.853 110 390.657 109.929 390.501 109.795C388.038 107.678 385.818 103.25 385.796 103.206C385.785 103.184 385.783 103.16 385.79 103.137C386.156 101.872 386.722 100.99 387.132 100.473C387.237 100.341 387.388 100.259 387.557 100.244C387.726 100.228 387.891 100.282 388.018 100.394L388.875 101.145L388.926 100.908C388.962 100.743 389.067 100.599 389.214 100.515C389.361 100.43 389.538 100.412 389.7 100.463L390.513 100.724C390.542 100.733 390.565 100.756 390.574 100.784C390.649 100.999 392.406 106.095 392.133 108.117C392.066 108.613 391.981 109.039 391.879 109.383C391.796 109.664 391.578 109.882 391.295 109.965C391.215 109.988 391.134 109.999 391.053 109.999L391.053 110ZM385.983 103.154C386.191 103.563 388.302 107.655 390.625 109.652C390.797 109.8 391.022 109.848 391.241 109.783C391.461 109.719 391.631 109.55 391.696 109.331C391.795 108.995 391.879 108.579 391.944 108.093C392.198 106.213 390.585 101.407 390.409 100.891L389.641 100.644C389.53 100.609 389.409 100.622 389.308 100.68C389.208 100.737 389.136 100.835 389.112 100.948L389.027 101.343C389.02 101.376 388.996 101.402 388.964 101.413C388.931 101.423 388.896 101.417 388.871 101.394L387.892 100.537C387.804 100.459 387.69 100.422 387.573 100.433C387.457 100.443 387.353 100.499 387.281 100.59C386.885 101.089 386.341 101.937 385.983 103.154Z" fill="#697571"/>
<path d="M391.252 109.287C391.227 109.287 391.203 109.277 391.184 109.259C388.666 106.741 386.557 102.798 386.536 102.759C386.511 102.713 386.529 102.656 386.575 102.631C386.622 102.607 386.68 102.624 386.704 102.67C386.725 102.71 388.821 106.627 391.319 109.125C391.356 109.163 391.356 109.223 391.319 109.259C391.3 109.278 391.276 109.287 391.252 109.287V109.287Z" fill="#697571"/>
<path d="M390.178 105.827C390.138 105.827 390.101 105.802 390.088 105.762C390.071 105.713 390.099 105.659 390.148 105.642L391.466 105.21C391.515 105.194 391.569 105.221 391.586 105.271C391.602 105.32 391.575 105.374 391.525 105.391L390.208 105.823C390.198 105.826 390.188 105.827 390.178 105.827H390.178Z" fill="#697571"/>
<path d="M389.312 104.426C389.272 104.426 389.234 104.401 389.222 104.361C389.205 104.312 389.232 104.258 389.282 104.241L390.937 103.699C390.987 103.682 391.041 103.709 391.058 103.759C391.074 103.809 391.047 103.862 390.997 103.879L389.342 104.422C389.332 104.425 389.322 104.426 389.312 104.426H389.312Z" fill="#697571"/>
<path d="M367.879 69.8954C368.048 69.7178 380.126 64.5225 385.063 63.4177C390 62.3126 391.84 62.3023 393.52 65.1114C395.2 67.9205 385.428 83.2487 385.428 83.2487L364.638 77.8535L367.879 69.8954H367.879Z" fill="#697571"/>
<path d="M379.579 75.8153C379.566 75.8153 379.552 75.8127 379.54 75.8071C379.492 75.7857 379.47 75.7296 379.492 75.6817C381.814 70.5207 385.648 66.8333 385.687 66.7965C385.724 66.7601 385.785 66.7614 385.821 66.7995C385.858 66.8371 385.856 66.8975 385.818 66.9334C385.78 66.9698 381.972 70.6332 379.665 75.7592C379.65 75.7943 379.615 75.8153 379.579 75.8153Z" fill="white"/>
<path d="M357.997 76.7609C357.997 76.7609 358.544 82.3479 359.758 83.5095C360.972 84.6716 375.533 83.5095 375.533 83.5095C375.533 83.5095 376.691 85.3971 377.447 90.4421C378.203 95.4872 379.047 102.279 380.299 103.936L391.203 101.592C391.203 101.592 387.586 79.9809 385.075 77.0417C382.563 74.1025 364.286 73.6411 364.286 73.6411L357.997 76.7605V76.7609Z" fill="#697571"/>
<path d="M386.336 79.7878C386.296 79.7878 386.26 79.7634 386.246 79.724C385.789 78.416 385.37 77.5342 385.002 77.1032C384.151 76.1077 380.382 75.2007 374.102 74.4799C374.05 74.4739 374.012 74.4268 374.018 74.375C374.024 74.3228 374.072 74.286 374.124 74.2916C380.543 75.0282 384.252 75.933 385.147 76.9804C385.53 77.4294 385.961 78.3312 386.425 79.6615C386.443 79.7111 386.416 79.7651 386.367 79.7822C386.357 79.7856 386.346 79.7873 386.336 79.7873V79.7878Z" fill="white"/>
<path d="M378.178 58.47C377.791 58.1884 377.247 58.2864 376.983 58.6853C375.625 60.7475 371.866 66.4594 371.821 66.6007L373.705 66.8652L378.389 59.5945C378.628 59.2234 378.536 58.7307 378.178 58.4705V58.47Z" fill="white"/>
<path d="M373.705 66.9599C373.701 66.9599 373.696 66.9599 373.692 66.959L371.808 66.6945C371.78 66.6907 371.756 66.6748 371.741 66.6513C371.726 66.6277 371.722 66.5991 371.731 66.5725C371.774 66.4351 374.568 62.1793 376.904 58.6336C377.045 58.4188 377.263 58.2754 377.517 58.2296C377.771 58.1838 378.026 58.242 378.234 58.394C378.632 58.6833 378.735 59.2329 378.469 59.6455L373.785 66.9162C373.767 66.9436 373.737 66.9599 373.705 66.9599ZM371.973 66.5263L373.658 66.7626L378.309 59.5428C378.52 59.2145 378.438 58.7766 378.122 58.5463C377.956 58.4256 377.753 58.379 377.551 58.4154C377.348 58.4517 377.176 58.566 377.063 58.7368C374.19 63.097 372.336 65.9344 371.973 66.5254L371.973 66.5263Z" fill="#697571"/>
<path d="M352.57 75.6866C352.57 75.6866 350.613 72.964 351.414 66.8656C352.216 60.7671 354.175 57.6015 356.226 56.8782C358.277 56.1548 366.713 57.4757 367.371 67.722L352.57 75.6866Z" fill="white"/>
<path d="M352.57 75.781C352.54 75.781 352.511 75.7668 352.493 75.7411C352.473 75.7138 350.523 72.9179 351.32 66.8525C352.051 61.2912 353.828 57.6231 356.195 56.7881C357.291 56.4016 360.08 56.5963 362.584 58.2416C364.62 59.5787 367.118 62.3074 367.466 67.7154C367.469 67.7522 367.449 67.7873 367.416 67.8048L352.615 75.7694C352.601 75.7771 352.585 75.781 352.57 75.781ZM357.455 56.8056C356.959 56.8056 356.547 56.8651 356.258 56.967C355.21 57.3368 354.234 58.3508 353.437 59.8989C352.536 61.6482 351.887 63.9959 351.509 66.8773C350.791 72.3444 352.315 75.1 352.602 75.5614L367.272 67.6674C366.915 62.3776 364.471 59.7089 362.479 58.4004C360.697 57.2293 358.777 56.806 357.455 56.806V56.8056Z" fill="#697571"/>
<path d="M358.464 71.3763C358.415 71.3763 358.373 71.3382 358.369 71.2882L357.963 65.569C357.959 65.5168 357.999 65.4714 358.051 65.4675C358.104 65.4637 358.149 65.5031 358.153 65.5553L358.559 71.2745C358.563 71.3267 358.523 71.3721 358.471 71.3759C358.469 71.3759 358.466 71.3759 358.464 71.3759L358.464 71.3763Z" fill="#697571"/>
<path d="M351.858 74.1179C351.858 74.1179 352.569 79.2396 359.758 77.5254C366.947 75.8111 370.696 69.1572 370.696 69.1572C370.696 69.1572 374.881 68.2665 374.739 65.5622C374.739 65.5622 373.338 65.9363 372.146 65.5622C370.955 65.1882 369.666 65.5708 369.169 66.0339C365.77 69.2081 354.912 70.16 351.858 74.1179Z" fill="white"/>
<path d="M357.042 77.9721C355.704 77.9721 354.58 77.6661 353.682 77.0553C352.031 75.9326 351.774 74.2034 351.764 74.1302C351.76 74.105 351.767 74.0797 351.782 74.0596C353.463 71.8818 357.442 70.6166 361.291 69.3929C364.52 68.3661 367.571 67.3962 369.104 65.964C369.666 65.4397 370.999 65.1024 372.175 65.4714C373.327 65.8326 374.701 65.474 374.714 65.4701C374.742 65.4628 374.772 65.4684 374.795 65.4851C374.818 65.5018 374.833 65.5283 374.834 65.557C374.973 68.1953 371.223 69.134 370.757 69.2401C370.606 69.4973 369.664 71.0523 367.991 72.764C366.308 74.4863 363.516 76.7261 359.781 77.6169C358.788 77.8535 357.874 77.9717 357.042 77.9717L357.042 77.9721ZM351.959 74.1431C352.006 74.4024 352.343 75.9172 353.792 76.9012C355.202 77.8583 357.202 78.0372 359.736 77.4332C366.803 75.7481 370.575 69.1772 370.612 69.1108C370.625 69.0873 370.648 69.0702 370.675 69.0646C370.716 69.0561 374.66 68.1855 374.647 65.682C374.282 65.7637 373.135 65.9722 372.117 65.6529C370.945 65.2848 369.689 65.6781 369.234 66.1032C367.669 67.5644 364.599 68.5407 361.349 69.574C357.547 70.7827 353.618 72.0321 351.958 74.1431H351.959Z" fill="#697571"/>
<path d="M372.179 66.8127C372.063 66.8127 371.943 66.8101 371.817 66.8054C371.765 66.8032 371.724 66.7592 371.726 66.7069C371.728 66.6547 371.769 66.6141 371.825 66.6162C373.923 66.7005 374.639 66.0088 374.646 66.002C374.683 65.9652 374.743 65.9648 374.78 66.0011C374.818 66.038 374.818 66.0974 374.782 66.1347C374.753 66.1638 374.094 66.8131 372.179 66.8131V66.8127Z" fill="#697571"/>
<path d="M371.961 67.8038C371.914 67.8038 371.868 67.8038 371.819 67.8025C371.767 67.8016 371.725 67.7584 371.726 67.7058C371.727 67.6535 371.772 67.612 371.823 67.6129C373.652 67.6463 374.242 67.0008 374.248 66.9944C374.283 66.955 374.342 66.9507 374.382 66.9854C374.422 67.0197 374.426 67.0796 374.391 67.1194C374.367 67.1481 373.769 67.8042 371.961 67.8042L371.961 67.8038Z" fill="#697571"/>
<path d="M359.496 52.1318C359.442 52.2303 357.143 56.1437 357.143 56.1437L355.557 57.2047C356.142 57.6473 357.175 58.3133 358.621 58.6951C360.095 59.0841 361.347 59.005 362.079 58.9039C362.016 58.7045 361.909 58.4447 361.723 58.1733C361.43 57.7453 361.081 57.4906 360.858 57.3545C361.331 56.5451 361.805 55.7362 362.278 54.9268L359.496 52.1318Z" fill="white"/>
<path d="M360.866 59.0824C360.102 59.0824 359.343 58.9835 358.596 58.7866C357.469 58.4892 356.427 57.9824 355.498 57.2804C355.474 57.262 355.46 57.2329 355.461 57.2021C355.462 57.1717 355.478 57.143 355.503 57.1264L357.071 56.0773C357.244 55.7832 359.361 52.1789 359.413 52.0864C359.427 52.0603 359.453 52.0423 359.483 52.0381C359.512 52.0338 359.542 52.0441 359.563 52.065L362.345 54.86C362.376 54.8904 362.381 54.9375 362.36 54.9743L360.986 57.3228C361.311 57.5351 361.585 57.803 361.802 58.1194C361.96 58.3513 362.084 58.6052 362.17 58.8744C362.179 58.9009 362.175 58.93 362.16 58.9536C362.145 58.9771 362.12 58.9929 362.092 58.9968C361.683 59.0533 361.274 59.0815 360.865 59.0815L360.866 59.0824ZM355.721 57.209C356.602 57.8548 357.585 58.3239 358.645 58.6034C359.729 58.8894 360.84 58.9638 361.952 58.8247C361.875 58.6129 361.771 58.4121 361.645 58.2264C361.426 57.9066 361.145 57.6404 360.808 57.435C360.764 57.408 360.75 57.3511 360.776 57.3065L362.159 54.9417L359.517 52.2867C359.147 52.9202 357.31 56.046 357.225 56.1916C357.218 56.204 357.208 56.2142 357.196 56.2224L355.721 57.209H355.721Z" fill="#697571"/>
<path d="M366.459 49.6315C365.399 48.7648 364.149 49.6696 362.912 48.6068C362.345 48.1197 362.293 47.66 361.612 47.3934C361.161 47.217 360.359 47.0955 359.825 47.5013C359.145 48.0179 359.645 48.823 359.093 50.6288C358.706 51.897 358.169 52.4487 358.47 52.8934C358.775 53.3433 359.484 53.015 359.854 53.4815C360.333 54.085 359.459 55.0297 359.731 55.8823C359.918 56.4682 360.813 57.305 363.062 57.5849C363.186 57.2258 363.484 56.5149 363.679 55.8198C364.287 53.6442 363.956 52.8117 364.502 52.5305C365.34 52.0999 366.351 53.4297 366.973 53.0283C367.62 52.6114 367.547 50.5209 366.459 49.6311L366.459 49.6315Z" fill="#697571"/>
<path d="M362.066 50.6963L362.278 51.3354C362.278 51.3354 361.454 53.3458 361.307 54.1051C361.16 54.8644 363.487 55.4961 363.487 55.4961L363.853 55.2265L364.503 55.3883C364.503 55.3883 364.483 53.1754 365.078 51.7C365.078 51.7 363.98 50.3728 362.065 50.6963H362.066Z" fill="white"/>
<path d="M362.147 50.7456C362.231 50.9387 362.306 51.1154 362.368 51.3063C362.375 51.3286 362.374 51.3517 362.366 51.3718C362.189 51.8075 362.018 52.2471 361.855 52.6884C361.696 53.1297 361.534 53.5753 361.423 54.023L361.404 54.1064C361.397 54.1355 361.399 54.1522 361.396 54.1753C361.399 54.219 361.405 54.2635 361.428 54.3072C361.469 54.3949 361.541 54.4771 361.624 54.5499C361.791 54.6954 361.994 54.8114 362.201 54.9145C362.618 55.1178 363.065 55.2766 363.512 55.4055L363.431 55.4209L363.796 55.1512L363.802 55.1474C363.824 55.132 363.852 55.1285 363.876 55.1354L364.518 55.325L364.436 55.3896C364.434 55.0737 364.446 54.7609 364.465 54.4471C364.485 54.1338 364.514 53.8205 364.554 53.5085C364.596 53.1965 364.649 52.8857 364.716 52.5771C364.788 52.2694 364.876 51.9642 364.989 51.6659L365.005 51.7613C364.833 51.57 364.618 51.3954 364.394 51.2524C364.168 51.1077 363.925 50.9896 363.67 50.907C363.416 50.8239 363.152 50.7653 362.883 50.7525C362.75 50.7371 362.616 50.7461 362.481 50.7482C362.407 50.7473 362.366 50.7593 362.312 50.7572C362.261 50.7572 362.207 50.7503 362.147 50.7456H362.147ZM361.984 50.6476C362.06 50.6262 362.143 50.6035 362.229 50.5868C362.313 50.571 362.408 50.5564 362.472 50.5586C362.614 50.556 362.756 50.547 362.898 50.5629C363.181 50.577 363.462 50.6386 363.731 50.7268C364.002 50.8145 364.259 50.9391 364.497 51.0923C364.737 51.2464 364.955 51.421 365.152 51.6402C365.175 51.6654 365.18 51.7001 365.169 51.7296L365.167 51.7356C365.053 52.0203 364.963 52.316 364.888 52.6161C364.817 52.9174 364.761 53.2226 364.714 53.5295C364.67 53.8372 364.637 54.1462 364.612 54.4565C364.588 54.7664 364.572 55.0785 364.569 55.3879C364.569 55.4247 364.538 55.4547 364.502 55.4543C364.496 55.4543 364.491 55.4534 364.486 55.4525L363.83 55.3186L363.91 55.3027L363.544 55.5724L363.543 55.5732C363.519 55.5908 363.489 55.5951 363.462 55.5878C363 55.4547 362.551 55.2955 362.116 55.084C361.901 54.9762 361.688 54.8567 361.498 54.6915C361.404 54.6081 361.314 54.5122 361.255 54.3851C361.223 54.323 361.209 54.2494 361.205 54.1758C361.209 54.1407 361.21 54.0974 361.218 54.0692L361.238 53.9802C361.353 53.5115 361.516 53.0685 361.677 52.6229C361.841 52.1791 362.012 51.7386 362.19 51.2999L362.187 51.3654C362.108 51.13 362.041 50.8804 361.984 50.6476Z" fill="#697571"/>
<path d="M361.279 52.4717C361.279 52.4717 361.482 51.0023 360.791 51.0515C360.1 51.1007 359.917 52.7238 361.279 52.4717Z" fill="white"/>
<path d="M361.006 52.5938C360.648 52.5938 360.446 52.4465 360.335 52.307C360.116 52.0313 360.135 51.6436 360.252 51.3808C360.362 51.1312 360.561 50.9729 360.785 50.957C360.937 50.9463 361.064 50.9947 361.164 51.1013C361.51 51.4689 361.379 52.4435 361.374 52.485C361.368 52.5257 361.337 52.5578 361.297 52.5651C361.19 52.5848 361.094 52.5938 361.006 52.5938H361.006ZM360.825 51.1453C360.816 51.1453 360.807 51.1453 360.798 51.1462C360.644 51.1573 360.508 51.2703 360.426 51.4569C360.332 51.6675 360.315 51.9753 360.485 52.1889C360.626 52.3665 360.87 52.4354 361.193 52.3896C361.225 52.0908 361.242 51.4608 361.025 51.2301C360.971 51.1727 360.905 51.1445 360.825 51.1445V51.1453Z" fill="#697571"/>
<path d="M391.093 42.7225L400.416 45.4224L407.034 38.0947L391.093 42.7225Z" fill="white"/>
<path d="M400.417 45.5169C400.408 45.5169 400.399 45.5156 400.39 45.513L391.066 42.8131C391.026 42.8015 390.998 42.7643 390.998 42.7219C390.998 42.6795 391.026 42.6427 391.066 42.6307L407.007 38.0038C407.048 37.9919 407.092 38.0086 407.114 38.0445C407.137 38.0805 407.133 38.1267 407.104 38.1584L400.487 45.4856C400.469 45.5057 400.443 45.5169 400.416 45.5169H400.417ZM391.433 42.7223L400.386 45.3144L406.739 38.2791L391.433 42.7223Z" fill="#697571"/>
<path d="M395.738 47.0786L394.437 43.6909L404.74 39.3657L396.076 44.1651L398.025 44.7297L395.738 47.0786Z" fill="white"/>
<path d="M395.738 47.1733C395.732 47.1733 395.726 47.1729 395.72 47.1711C395.688 47.1647 395.662 47.1425 395.65 47.1121L394.349 43.7243C394.33 43.6764 394.353 43.6229 394.401 43.6032L404.704 39.278C404.751 39.2584 404.805 39.2785 404.826 39.3238C404.849 39.3692 404.831 39.4236 404.787 39.4484L396.322 44.1373L398.052 44.6381C398.084 44.6475 398.109 44.6728 398.118 44.7049C398.126 44.737 398.117 44.7712 398.094 44.7952L395.807 47.1442C395.789 47.1626 395.764 47.1729 395.739 47.1729L395.738 47.1733ZM394.559 43.7427L395.774 46.9062L397.847 44.7772L396.05 44.2568C396.013 44.2461 395.986 44.2144 395.982 44.1763C395.978 44.1382 395.996 44.1014 396.03 44.083L403.165 40.1307L394.559 43.7431V43.7427Z" fill="#697571"/>
<path d="M395.857 46.1502C395.853 46.1502 395.85 46.1502 395.846 46.1498C395.794 46.1438 395.756 46.0967 395.762 46.045L395.981 44.1548C395.987 44.1026 396.034 44.0658 396.086 44.0714C396.138 44.0773 396.176 44.1244 396.17 44.1762L395.951 46.0664C395.945 46.1147 395.904 46.1502 395.856 46.1502H395.857Z" fill="#697571"/>
<path d="M370.919 63.0902C370.893 63.0902 370.866 63.0795 370.848 63.0581C370.591 62.7705 370.409 62.4208 370.305 62.0189C370.293 61.9679 370.323 61.9166 370.374 61.9037C370.425 61.8909 370.477 61.9213 370.49 61.9722C370.585 62.3446 370.754 62.6677 370.99 62.9327C371.025 62.9716 371.021 63.0316 370.982 63.0667C370.964 63.0825 370.941 63.0906 370.918 63.0906L370.919 63.0902ZM370.307 60.9612C370.307 60.9612 370.303 60.9612 370.301 60.9612C370.249 60.9578 370.209 60.9129 370.212 60.8607C370.235 60.505 370.299 60.1223 370.403 59.7221C370.416 59.6716 370.468 59.6408 370.519 59.6541C370.57 59.6673 370.601 59.7191 370.587 59.7696C370.486 60.1578 370.424 60.5289 370.402 60.8726C370.399 60.9227 370.357 60.9612 370.307 60.9612ZM370.856 58.7612C370.844 58.7612 370.832 58.7591 370.82 58.7544C370.771 58.7347 370.748 58.6795 370.767 58.6311C370.907 58.2848 371.07 57.9347 371.252 57.5906C371.277 57.5444 371.335 57.5264 371.381 57.5508C371.427 57.5752 371.445 57.6325 371.421 57.6788C371.242 58.0173 371.081 58.3615 370.944 58.7017C370.929 58.7385 370.893 58.7612 370.855 58.7612H370.856ZM371.92 56.7512C371.902 56.7512 371.884 56.7461 371.867 56.7354C371.823 56.7063 371.812 56.6477 371.841 56.604C372.016 56.3421 372.192 56.1079 372.362 55.9072C372.423 55.8344 372.485 55.7634 372.548 55.694C372.583 55.6551 372.644 55.6521 372.683 55.6872C372.722 55.7223 372.725 55.7822 372.69 55.8212C372.628 55.8892 372.567 55.959 372.507 56.0296C372.342 56.2248 372.171 56.4538 371.999 56.7097C371.981 56.7371 371.951 56.7517 371.92 56.7517V56.7512ZM373.438 55.061C373.411 55.061 373.384 55.0494 373.365 55.0276C373.331 54.9878 373.336 54.9279 373.376 54.8941C373.667 54.6492 373.979 54.4198 374.305 54.2118C374.349 54.1836 374.408 54.1964 374.437 54.2405C374.465 54.2846 374.452 54.3432 374.408 54.3715C374.089 54.5748 373.783 54.7995 373.499 55.0387C373.481 55.0537 373.46 55.061 373.438 55.061ZM375.354 53.8343C375.318 53.8343 375.284 53.8146 375.268 53.7804C375.245 53.7333 375.265 53.6764 375.312 53.6541C375.649 53.4936 376.007 53.3464 376.376 53.2162C376.426 53.1987 376.48 53.2248 376.498 53.274C376.516 53.3232 376.489 53.3776 376.44 53.3952C376.077 53.5231 375.725 53.6678 375.395 53.8253C375.382 53.8317 375.368 53.8347 375.354 53.8347V53.8343ZM377.501 53.072C377.458 53.072 377.42 53.0433 377.409 53.0005C377.396 52.9496 377.427 52.8982 377.477 52.8854C377.834 52.7951 378.212 52.7146 378.601 52.6461C378.652 52.6371 378.702 52.6714 378.711 52.7232C378.72 52.7745 378.686 52.8237 378.634 52.8332C378.25 52.9008 377.876 52.98 377.524 53.0694C377.516 53.0716 377.508 53.0724 377.501 53.0724L377.501 53.072ZM379.748 52.6714C379.7 52.6714 379.659 52.6358 379.653 52.5875C379.647 52.5353 379.684 52.4886 379.736 52.4822C380.098 52.4407 380.482 52.4051 380.879 52.3778C380.931 52.3739 380.977 52.4133 380.98 52.4659C380.984 52.5181 380.944 52.5635 380.892 52.5669C380.498 52.5943 380.116 52.629 379.758 52.6705C379.755 52.6705 379.751 52.6709 379.747 52.6709L379.748 52.6714ZM387.74 52.5434H387.739C387.311 52.5395 386.902 52.5284 386.595 52.5194C386.542 52.5177 386.501 52.4741 386.502 52.4218C386.504 52.3696 386.546 52.3294 386.6 52.3298C386.907 52.3388 387.314 52.3499 387.741 52.3538C387.793 52.3542 387.836 52.397 387.835 52.4497C387.834 52.5019 387.792 52.5434 387.74 52.5434ZM388.883 52.5336C388.831 52.5336 388.789 52.4929 388.788 52.4415C388.786 52.3893 388.827 52.3457 388.88 52.3439C389.287 52.332 389.659 52.311 390.016 52.2793C390.069 52.2746 390.115 52.3131 390.119 52.3653C390.124 52.4176 390.085 52.4634 390.033 52.4681C389.672 52.4997 389.297 52.5211 388.886 52.5331C388.885 52.5331 388.884 52.5331 388.883 52.5331L388.883 52.5336ZM382.027 52.5083C381.976 52.5083 381.934 52.4681 381.932 52.4167C381.931 52.3645 381.971 52.3204 382.024 52.3187C382.377 52.3063 382.752 52.2973 383.169 52.2917H383.17C383.222 52.2917 383.265 52.3332 383.265 52.3855C383.266 52.4377 383.224 52.4809 383.171 52.4813C382.756 52.4869 382.382 52.4955 382.03 52.5083C382.029 52.5083 382.028 52.5083 382.027 52.5083H382.027ZM385.455 52.4848C385.455 52.4848 385.454 52.4848 385.453 52.4848C385.156 52.4771 384.923 52.4732 384.718 52.4732L384.7 52.3786V52.4732L384.313 52.4736C384.261 52.4736 384.218 52.4313 384.218 52.379C384.218 52.3268 384.261 52.284 384.313 52.284H384.7L384.718 52.2836C384.924 52.2836 385.16 52.287 385.458 52.2951C385.51 52.2964 385.552 52.3401 385.551 52.3923C385.55 52.4437 385.507 52.4848 385.456 52.4848H385.455ZM391.158 52.3234C391.112 52.3234 391.072 52.2909 391.064 52.2451C391.055 52.1937 391.089 52.1445 391.141 52.1355C391.536 52.0666 391.906 51.9793 392.241 51.8761C392.291 51.8607 392.344 51.8885 392.36 51.9386C392.375 51.9887 392.347 52.0418 392.297 52.0572C391.954 52.1629 391.577 52.2519 391.174 52.3221C391.169 52.323 391.163 52.3234 391.158 52.3234ZM393.325 51.6317C393.291 51.6317 393.258 51.6133 393.241 51.5812C393.216 51.535 393.234 51.4776 393.28 51.4532C393.627 51.2705 393.932 51.0552 394.188 50.8138C394.227 50.7778 394.287 50.7795 394.323 50.8176C394.359 50.8557 394.357 50.9156 394.319 50.9516C394.05 51.2046 393.731 51.4301 393.369 51.621C393.355 51.6287 393.34 51.6321 393.325 51.6321L393.325 51.6317ZM394.941 50.0776C394.926 50.0776 394.911 50.0742 394.897 50.0665C394.851 50.0421 394.833 49.9847 394.858 49.9385C395.024 49.6247 395.145 49.2738 395.218 48.8954C395.228 48.844 395.278 48.8102 395.329 48.8201C395.381 48.8299 395.415 48.8796 395.405 48.9309C395.328 49.3277 395.201 49.6962 395.026 50.0266C395.009 50.0587 394.976 50.0772 394.942 50.0772L394.941 50.0776Z" fill="#697571"/>
</g>
<g clip-path="url(#clip1_980_90134)">
<path d="M104.617 30.9953C104.874 30.9752 106.132 33.563 110.069 33.4549C114.006 33.3463 117.165 28.9214 117.165 28.9214C117.165 28.9214 118.525 26.6182 119.557 25.7857C120.589 24.9532 120.751 24.8433 120.751 24.8433C120.751 24.8433 121.074 25.2763 120.751 25.7857C120.427 26.2951 119.534 27.2483 119.534 27.2483C119.534 27.2483 120.518 27.7908 120.074 28.9214C119.564 30.2213 118.125 30.1168 118.125 30.1168C118.125 30.1168 115.206 43.0983 103.142 36.9297L104.617 30.9958V30.9953Z" fill="white"/>
<path d="M109.125 38.6971C107.293 38.6971 105.277 38.1385 103.094 37.0227C103.051 37.0004 103.029 36.9512 103.041 36.9038L104.516 30.9699C104.527 30.9261 104.565 30.8943 104.609 30.8908C104.712 30.8841 104.797 30.9757 104.998 31.2009C105.594 31.8694 106.992 33.4343 110.066 33.3499C113.906 33.2444 117.049 28.904 117.081 28.8597C117.132 28.7726 118.457 26.5383 119.492 25.7035C120.515 24.8777 120.686 24.7606 120.692 24.7557C120.739 24.7244 120.801 24.7351 120.834 24.7798C120.849 24.7999 121.197 25.2772 120.839 25.8416C120.569 26.2666 119.925 26.9784 119.693 27.2296C119.952 27.4226 120.549 27.996 120.171 28.9594C119.714 30.1235 118.539 30.2196 118.207 30.2223C118.026 30.9359 116.598 36.036 112.528 37.9549C111.479 38.4496 110.343 38.6967 109.125 38.6967L109.125 38.6971ZM103.263 36.8739C106.804 38.6667 109.89 38.967 112.438 37.7667C116.704 35.7558 118.011 30.1503 118.024 30.0936C118.035 30.0431 118.082 30.0078 118.133 30.0122C118.189 30.0162 119.502 30.0936 119.977 28.8825C120.381 27.8543 119.52 27.3601 119.483 27.3395C119.455 27.3239 119.436 27.2962 119.431 27.264C119.426 27.2323 119.436 27.1996 119.458 27.1759C119.467 27.1666 120.348 26.2241 120.663 25.7285C120.863 25.413 120.784 25.1342 120.719 24.9961C120.589 25.0949 120.288 25.3295 119.622 25.8666C118.617 26.6777 117.268 28.9514 117.255 28.9741C117.218 29.0264 114.016 33.4504 110.072 33.559C109.989 33.5613 109.907 33.5626 109.827 33.5626C106.826 33.5626 105.443 32.0124 104.842 31.3403C104.786 31.2769 104.728 31.2125 104.682 31.1656L103.263 36.8735L103.263 36.8739Z" fill="#697571"/>
<path d="M85.104 36.9289C85.104 36.9289 86.2856 29.2692 90.4596 27.3843C94.6341 25.4998 100.281 25.7617 101.838 26.7028C103.395 27.6439 107.455 31.8994 107.455 31.8994L103.955 38.5917C103.955 38.5917 100.991 45.3176 102.475 46.9469C102.475 46.9469 100.05 54.5097 98.3574 53.8403C96.665 53.1709 91.773 50.3453 89.8564 45.9982L88.9243 36.3194L85.104 36.9294V36.9289Z" fill="white"/>
<path d="M98.5763 53.9871C98.4883 53.9871 98.4024 53.9705 98.3192 53.9379C96.7243 53.3069 91.7281 50.5019 89.7608 46.0408C89.7563 46.0306 89.7536 46.0198 89.7523 46.0087L88.8309 36.4408L85.1201 37.0333C85.0867 37.0391 85.0538 37.0275 85.0302 37.0043C85.0066 36.9806 84.9955 36.9471 85.0008 36.914C85.0493 36.5989 86.239 29.1765 90.417 27.2898C94.53 25.433 100.214 25.5997 101.892 26.6141C103.443 27.5516 107.364 31.6539 107.53 31.8277C107.561 31.8604 107.568 31.9091 107.547 31.9488L104.047 38.6411C104.021 38.7015 101.13 45.3165 102.552 46.8769C102.577 46.9046 102.586 46.944 102.574 46.9797C102.494 47.23 100.59 53.1152 98.9452 53.8973C98.8188 53.9576 98.6951 53.9875 98.5759 53.9875L98.5763 53.9871ZM89.9587 45.9711C91.902 50.3594 96.823 53.1206 98.3957 53.7426C98.5376 53.7989 98.688 53.7873 98.8562 53.7073C100.339 53.0026 102.156 47.5834 102.358 46.9708C100.938 45.2378 103.739 38.8244 103.86 38.55L107.327 31.9184C106.849 31.4202 103.217 27.6593 101.785 26.7933C100.319 25.9076 94.68 25.5948 90.5028 27.4806C86.7386 29.1796 85.4204 35.749 85.2317 36.8032L88.9083 36.2164C88.9368 36.2115 88.9657 36.2191 88.9884 36.237C89.0111 36.2549 89.0258 36.2808 89.0285 36.3098L89.9587 45.9716V45.9711Z" fill="#697571"/>
<path d="M93.0678 45.908L93.8055 32.7812C93.8099 32.4309 94.0942 32.1489 94.443 32.1489H101.963C102.312 32.1489 102.597 32.4313 102.6 32.7826L102.746 46.173L93.0674 45.908H93.0678Z" fill="#697571"/>
<path d="M94.9419 33.5158C94.9321 33.5158 94.9228 33.5158 94.913 33.5149C94.606 33.4988 94.3702 33.2365 94.3858 32.9281C94.5437 29.8448 93.8599 28.4715 93.258 27.8624C92.7192 27.3168 91.6657 26.9137 91.6635 26.9124C91.3551 26.9258 92.2387 26.5737 92.5457 26.5603C92.6498 26.5558 93.165 26.1809 94.0481 27.0751C95.1528 28.194 95.6404 30.1826 95.4971 32.9853C95.482 33.2839 95.236 33.5153 94.9419 33.5153V33.5158Z" fill="#697571"/>
<path d="M101.728 33.5154C101.718 33.5154 101.707 33.5154 101.697 33.5145C101.39 33.4976 101.156 33.2335 101.172 32.9256C101.507 26.5385 99.513 26.3499 99.5798 26.0483C99.6465 25.7466 100.477 26.1305 100.777 26.1975C101.18 26.2873 102.34 26.6529 102.283 32.9872C102.281 33.2853 102.021 33.515 101.728 33.515V33.5154Z" fill="#697571"/>
<path d="M103.566 42.2838H95.4434L97.9873 33.1699H106.11L103.566 42.2838Z" fill="white"/>
<path d="M103.566 42.3885H95.4428C95.4103 42.3885 95.3796 42.3733 95.3596 42.3469C95.34 42.3205 95.3334 42.287 95.3423 42.2553L97.8866 33.1418C97.8991 33.0967 97.9404 33.0654 97.9872 33.0654H106.11C106.143 33.0654 106.173 33.0806 106.193 33.107C106.213 33.1334 106.219 33.1669 106.211 33.1986L103.666 42.312C103.654 42.3572 103.612 42.3885 103.566 42.3885ZM95.5807 42.1789H103.487L105.973 33.2746H98.0663L95.5807 42.1789Z" fill="#697571"/>
<path d="M85.8202 36.9588L89.931 35.1128C89.931 35.1128 89.3517 42.109 97.6695 38.8786C97.6695 38.8786 97.363 37.9795 97.4061 36.9293C97.4493 35.8792 98.0748 36.8954 98.1624 37.7489C98.2501 38.6024 100.203 38.2561 101.376 37.9196C102.55 37.5831 104.09 37.8034 101.376 39.3071C98.6625 40.8108 98.0681 40.1401 98.0681 40.1401C98.0681 40.1401 94.6024 45.0109 90.2905 43.9764C84.9864 42.7033 85.8202 36.9588 85.8202 36.9588Z" fill="white"/>
<path d="M91.4935 44.2234C91.0935 44.2234 90.6838 44.1783 90.266 44.0782C87.4774 43.4088 86.3883 41.5015 85.9661 40.0193C85.5105 38.4208 85.7085 37.0038 85.717 36.9439C85.7223 36.9086 85.745 36.8782 85.7775 36.8635L89.8883 35.0179C89.9221 35.0027 89.9613 35.0067 89.9911 35.0282C90.0209 35.0496 90.0378 35.0854 90.0347 35.122C90.0325 35.1475 89.8447 37.6893 91.5033 38.9343C92.7864 39.8977 94.8173 39.858 97.5405 38.8163C97.4626 38.5544 97.266 37.7957 97.302 36.9251C97.3074 36.7915 97.3243 36.3849 97.5694 36.3773C97.5712 36.3773 97.5734 36.3773 97.5752 36.3773C97.8955 36.3773 98.2096 37.1866 98.2661 37.7385C98.2781 37.8551 98.3333 37.9454 98.4356 38.0151C98.9237 38.3466 100.309 38.117 101.347 37.8193C101.891 37.6634 102.812 37.5597 102.97 37.944C103.105 38.2729 102.6 38.7488 101.426 39.399C99.1977 40.6337 98.3547 40.4362 98.0891 40.2856C97.6464 40.8661 94.937 44.2234 91.493 44.2234H91.4935ZM85.9163 37.0302C85.8847 37.3099 85.773 38.5871 86.1681 39.9679C86.7611 42.0422 88.1563 43.3565 90.3141 43.874C90.7154 43.9705 91.1104 44.0138 91.4953 44.0138C95.1367 44.0143 97.9516 40.1221 97.9827 40.0787C98.001 40.0528 98.0303 40.0367 98.0619 40.0349C98.0948 40.0331 98.1242 40.0461 98.1456 40.0698C98.1496 40.0733 98.7591 40.6368 101.326 39.2149C102.862 38.3636 102.791 38.0553 102.777 38.0231C102.712 37.8622 102.084 37.8251 101.405 38.02C100.855 38.1777 99.0069 38.6559 98.3186 38.1876C98.1647 38.083 98.077 37.9386 98.0588 37.759C97.9943 37.1329 97.6798 36.6012 97.5757 36.586C97.5774 36.5891 97.5223 36.6432 97.5103 36.9332C97.4684 37.9521 97.7652 38.8355 97.7683 38.844C97.7865 38.8972 97.7594 38.9553 97.7073 38.9754C94.8658 40.0792 92.7365 40.1212 91.3778 39.1001C89.867 37.9646 89.8024 35.8933 89.8189 35.2771L85.9167 37.0293L85.9163 37.0302Z" fill="#697571"/>
<path d="M96.7934 23.894C96.4384 24.2207 95.7443 24.6193 95.2007 24.3445C94.7963 24.1398 94.5702 23.6098 94.584 23.0025C94.3967 23.0177 94.1512 23.0048 93.9759 22.8492C93.7063 22.6097 93.7565 22.1691 93.7672 21.8795C93.8157 20.543 93.0429 20.3378 93.232 19.4307C93.3806 18.7179 93.9381 18.293 94.0422 18.2139C94.5685 17.813 94.9248 17.9422 95.8097 17.7094C97.2988 17.3175 98.6748 20.0764 98.0965 20.5993C97.0812 21.5167 97.8478 22.9243 96.7929 23.894H96.7934Z" fill="#697571"/>
<path d="M99.7653 21.5096L99.7065 21.4586C99.412 21.2035 99.105 20.9076 99.0267 20.5247C98.6944 18.8976 97.2107 18.3073 97.1422 19.8012C97.1248 20.1784 95.7541 20.1587 95.9169 20.5546C96.3409 21.5864 96.3502 21.3085 95.7519 21.6888C95.6838 21.6914 95.6166 21.7066 95.5534 21.7361C95.2465 21.88 95.1379 22.2983 95.311 22.671C95.416 22.8971 95.6006 23.0526 95.7981 23.1094V24.7391C95.7981 25.35 95.4302 25.9005 94.867 26.1315L94.3188 26.3563C94.3188 26.3563 96.8739 28.0312 99.4672 26.1923L99.121 26.0364C98.5115 25.762 98.1116 25.1618 98.0902 24.4911L98.0876 24.1725C98.262 24.1881 98.431 24.176 98.5867 24.1305C99.3119 23.9186 99.553 23.079 99.4298 22.0355L99.7252 21.876C99.8631 21.8018 99.8836 21.6115 99.7653 21.5091V21.5096Z" fill="white"/>
<path d="M96.8452 27.1533C95.3703 27.1533 94.2786 26.4549 94.2621 26.4437C94.2296 26.4223 94.2114 26.3847 94.2154 26.3459C94.2189 26.307 94.2439 26.2735 94.2799 26.2587L94.828 26.0339C95.3543 25.8181 95.6942 25.3091 95.6942 24.7385V23.1829C95.4922 23.1011 95.3174 22.9304 95.2168 22.7141C95.0202 22.2896 95.1514 21.8079 95.51 21.6403C95.575 21.6099 95.6457 21.5912 95.7196 21.5849C95.8188 21.5228 95.8998 21.4795 95.9661 21.4437C96.0457 21.4012 96.1142 21.3642 96.116 21.3436C96.1209 21.2944 96.0617 21.1573 95.9794 20.9669C95.9358 20.8659 95.8829 20.7435 95.821 20.5929C95.7917 20.5218 95.7925 20.4503 95.8237 20.3864C95.9055 20.2175 96.1698 20.1429 96.4759 20.0571C96.6979 19.9945 97.0334 19.9002 97.0382 19.7952C97.0761 18.9743 97.5027 18.8523 97.6847 18.838C98.207 18.7951 98.9081 19.4216 99.1293 20.5026C99.2018 20.8579 99.5007 21.1407 99.7748 21.378L99.8335 21.429C99.9154 21.4996 99.9568 21.6064 99.9452 21.7141C99.9332 21.8218 99.8696 21.9165 99.7748 21.9674L99.5417 22.0934C99.6609 23.2459 99.3259 24.023 98.6163 24.2304C98.4859 24.2684 98.3431 24.2862 98.1932 24.2822L98.195 24.4891C98.2145 25.1129 98.5949 25.6831 99.164 25.9397L99.5101 26.0956C99.5443 26.1108 99.5675 26.1434 99.571 26.181C99.5746 26.2185 99.5581 26.2547 99.5274 26.2766C98.594 26.9384 97.6611 27.152 96.8452 27.152V27.1533ZM94.5571 26.3718C95.1621 26.6908 97.1913 27.5631 99.2543 26.2113L99.0785 26.1323C98.437 25.8436 98.0086 25.2005 97.9863 24.4949L97.9832 24.1741C97.9832 24.1446 97.9952 24.1164 98.0166 24.0963C98.0384 24.0762 98.0668 24.0659 98.0967 24.0691C98.2644 24.0843 98.4196 24.0713 98.5576 24.0311C99.1733 23.851 99.4536 23.1284 99.3259 22.0488C99.321 22.0059 99.3424 21.9643 99.3802 21.9442L99.6756 21.7847C99.7107 21.7659 99.733 21.7324 99.7374 21.6926C99.7419 21.6528 99.7272 21.6153 99.6969 21.5889L99.6382 21.538C99.3379 21.2779 99.0105 20.9656 98.9246 20.5459C98.7329 19.6075 98.1349 19.0154 97.7007 19.048C97.4329 19.069 97.2674 19.3452 97.2465 19.8059C97.2349 20.062 96.8932 20.1581 96.532 20.2599C96.3291 20.3171 96.0519 20.3953 96.011 20.4794C96.0088 20.4843 96.0043 20.4928 96.0137 20.5142C96.0751 20.663 96.1275 20.7846 96.1707 20.8847C96.3749 21.3575 96.4118 21.4428 96.0644 21.6296C95.9963 21.6662 95.9113 21.7118 95.8081 21.7771C95.7925 21.7869 95.7747 21.7927 95.7565 21.7932C95.6996 21.7954 95.6462 21.8083 95.5977 21.8307C95.3432 21.9496 95.2569 22.3066 95.4055 22.6261C95.4931 22.8147 95.6506 22.9577 95.8268 23.0082C95.8717 23.0211 95.9024 23.0623 95.9024 23.1087V24.7385C95.9024 25.3949 95.5114 25.9794 94.9068 26.2279L94.5575 26.3713L94.5571 26.3718Z" fill="#697571"/>
<path d="M98.0873 24.2777C98.082 24.2777 98.0767 24.2777 98.0713 24.2763C97.0267 24.1154 96.5578 23.3151 96.5382 23.2811C96.5098 23.2311 96.5267 23.1672 96.5765 23.1386C96.6263 23.1095 96.6899 23.127 96.7189 23.177C96.7233 23.1846 97.1606 23.9246 98.1029 24.0699C98.1599 24.0788 98.199 24.132 98.1901 24.1892C98.1821 24.241 98.1381 24.2781 98.0873 24.2781V24.2777Z" fill="#697571"/>
<path d="M99.4969 18.369C99.4466 18.2354 99.3888 18.1027 99.3212 17.9731C98.4292 16.2669 96.3293 15.6105 94.6311 16.506C92.9329 17.402 92.2789 19.5108 93.171 21.2169C93.239 21.347 93.3147 21.4698 93.3956 21.5874L99.4969 18.369Z" fill="white"/>
<path d="M93.3957 21.6921C93.3624 21.6921 93.3303 21.676 93.3099 21.647C93.2213 21.5188 93.1457 21.3941 93.0785 21.2654C92.6341 20.4154 92.546 19.443 92.8298 18.5265C93.1141 17.61 93.7365 16.8597 94.5823 16.4133C95.428 15.9668 96.3966 15.8784 97.309 16.1639C98.2215 16.449 98.9685 17.0742 99.413 17.9241C99.4792 18.051 99.5402 18.1887 99.594 18.3321C99.6127 18.3817 99.5914 18.4371 99.5451 18.4617L93.4438 21.6801C93.4282 21.6881 93.4118 21.6921 93.3953 21.6921H93.3957ZM96.2422 16.2095C95.7039 16.2095 95.17 16.3404 94.6797 16.5992C93.8829 17.0192 93.297 17.7262 93.0292 18.5891C92.7618 19.452 92.8445 20.3681 93.2632 21.1684C93.313 21.2636 93.3677 21.3565 93.4296 21.4513L99.3658 18.3201C99.3235 18.2159 99.2777 18.1158 99.2288 18.022C98.8106 17.2217 98.1067 16.6331 97.2476 16.3646C96.9171 16.2613 96.5785 16.2099 96.2422 16.2099V16.2095Z" fill="#697571"/>
<path d="M93.3394 22.317L93.3959 21.5877L99.4971 18.3694L100.918 18.3193L93.3394 22.317Z" fill="white"/>
<path d="M93.3392 22.4215C93.3192 22.4215 93.2992 22.4157 93.2818 22.4041C93.2503 22.3831 93.2325 22.3464 93.2351 22.3084L93.2916 21.5792C93.2943 21.5434 93.3152 21.5112 93.3472 21.4947L99.4485 18.2763C99.4623 18.2692 99.4779 18.2652 99.4935 18.2643L100.914 18.2147C100.962 18.2107 101.006 18.2451 101.019 18.2924C101.031 18.3394 101.009 18.389 100.966 18.4117L93.3877 22.4094C93.3726 22.4175 93.3557 22.4215 93.3392 22.4215ZM93.4954 21.6533L93.458 22.1364L100.465 18.4403L99.5246 18.473L93.4954 21.6533Z" fill="#697571"/>
<path d="M94.6172 23.3072C94.5714 23.3072 94.5256 23.2902 94.49 23.2563C94.4157 23.1856 94.4126 23.0677 94.4829 22.993C95.249 22.1806 95.0612 21.3843 95.0594 21.3763C95.0345 21.2766 95.095 21.1752 95.1942 21.1502C95.2939 21.1251 95.3944 21.1859 95.4194 21.2856C95.4296 21.3262 95.6569 22.2897 94.7525 23.2491C94.716 23.288 94.667 23.3072 94.6177 23.3072H94.6172Z" fill="white"/>
<path d="M98.8806 18.7993C98.8463 18.7993 98.8125 18.7823 98.7929 18.7511C97.2478 16.3299 94.5019 17.5146 94.4743 17.5266C94.4294 17.5467 94.3773 17.5324 94.348 17.4931L93.9578 16.9609C93.9235 16.9144 93.9338 16.8487 93.98 16.8143C94.0263 16.7799 94.0917 16.7902 94.126 16.8367L94.4685 17.3041C94.9455 17.1236 97.4796 16.3053 98.9682 18.6384C98.9993 18.6872 98.9851 18.752 98.9366 18.7832C98.9193 18.7944 98.8997 18.7998 98.8806 18.7998V18.7993Z" fill="#697571"/>
<path d="M89.8535 79.8306L90.148 82.6463L92.0437 82.8698V79.5308L89.8535 79.8306Z" fill="white"/>
<path d="M92.0435 82.9744C92.0395 82.9744 92.0355 82.9744 92.0315 82.9735L90.1358 82.75C90.0873 82.7442 90.0495 82.7058 90.0441 82.6571L89.7501 79.8409C89.7443 79.7846 89.7839 79.7337 89.8395 79.7261L92.0293 79.4262C92.0591 79.4222 92.0893 79.4312 92.112 79.4513C92.1347 79.4709 92.1476 79.5 92.1476 79.5299V82.8689C92.1476 82.8989 92.1347 82.9275 92.1125 82.9471C92.0933 82.9641 92.0684 82.9735 92.0431 82.9735L92.0435 82.9744ZM90.2426 82.5521L91.939 82.7518V79.6506L89.9676 79.9205L90.2426 82.5521Z" fill="#697571"/>
<path d="M92.3417 87.7719C91.5516 87.8836 90.256 87.9819 88.7354 87.7705C88.2371 87.7012 87.9066 87.2155 88.0267 86.7248C88.3617 85.3574 88.9387 82.7647 89.9286 81.5626L90.1746 82.2146L90.5145 81.601C90.5612 81.517 90.6444 81.4603 90.7397 81.4482L91.484 81.3535C91.6392 81.3338 91.7838 81.437 91.8163 81.5912L91.9346 82.1565L92.194 81.4142L93.0598 86.8196C93.1203 87.2812 92.8008 87.7075 92.3417 87.7727V87.7719Z" fill="white"/>
<path d="M90.5494 87.9999C89.9955 87.9999 89.3793 87.966 88.7213 87.8744C88.4535 87.8373 88.2132 87.6871 88.062 87.4633C87.9112 87.2403 87.8618 86.9619 87.9258 86.7L87.9975 86.4055C88.3392 84.9952 88.9104 82.6348 89.8487 81.4962C89.8723 81.4676 89.9092 81.4538 89.9461 81.4596C89.9826 81.4658 90.0133 81.4908 90.0266 81.5257L90.193 81.9668L90.4239 81.5498C90.4862 81.4372 90.5997 81.3599 90.7269 81.3438L91.4712 81.2491C91.6785 81.2236 91.8756 81.363 91.9188 81.5691L91.9606 81.7679L92.0963 81.3791C92.1119 81.334 92.1572 81.3054 92.204 81.3094C92.2516 81.3139 92.2898 81.3496 92.2978 81.397L93.1636 86.8019C93.2321 87.3225 92.87 87.8029 92.357 87.8753C91.8925 87.941 91.2746 87.9995 90.5503 87.9995L90.5494 87.9999ZM89.8972 81.7742C89.0545 82.9244 88.5229 85.1203 88.1999 86.4551L88.1283 86.75C88.0784 86.9543 88.1172 87.1715 88.2346 87.3453C88.3529 87.5205 88.5407 87.6375 88.7498 87.6666C90.2446 87.8744 91.5202 87.7819 92.3272 87.6679C92.7272 87.6112 93.0097 87.2362 92.9563 86.8323L92.1564 81.8376L92.0327 82.1906C92.0171 82.2349 91.9735 82.2617 91.9277 82.2604C91.881 82.2572 91.8423 82.2233 91.8325 82.1772L91.7141 81.6115C91.6932 81.5114 91.5976 81.443 91.497 81.4564L90.7527 81.5512C90.6909 81.5592 90.6357 81.5963 90.6054 81.6513L90.2655 82.2648C90.246 82.3006 90.2059 82.3211 90.1668 82.3184C90.1263 82.3153 90.0912 82.2894 90.0769 82.251L89.8967 81.7733L89.8972 81.7742Z" fill="#697571"/>
<path d="M90.1291 87.0911C89.6259 87.0911 89.0845 87.0469 88.5497 86.9244C88.4937 86.9115 88.4585 86.8556 88.4714 86.7993C88.4843 86.743 88.5404 86.7073 88.5964 86.7207C90.4543 87.1456 92.4003 86.5991 92.4199 86.5933C92.475 86.5777 92.5329 86.6098 92.5489 86.6653C92.5649 86.7207 92.5329 86.7788 92.4773 86.7948C92.463 86.7989 91.4237 87.0911 90.1295 87.0911H90.1291Z" fill="#697571"/>
<path d="M89.6935 85.0002C89.6375 85.0002 89.5912 84.9555 89.5894 84.8988C89.5876 84.8411 89.6326 84.7924 89.69 84.7906L91.4669 84.7316C91.5247 84.7281 91.5727 84.775 91.5745 84.8326C91.5763 84.8903 91.5314 84.939 91.474 84.9408L89.6971 84.9998C89.6971 84.9998 89.6948 84.9998 89.6935 84.9998V85.0002Z" fill="#697571"/>
<path d="M98.7324 78.3311L99.0163 82.4405H101.297L101.404 78.3311H98.7324Z" fill="white"/>
<path d="M101.297 82.5456H99.016C98.9613 82.5456 98.9159 82.5031 98.9119 82.4482L98.6276 78.3388C98.6259 78.3097 98.6357 78.2811 98.6552 78.2601C98.6748 78.2391 98.7024 78.2271 98.7313 78.2271H101.402C101.43 78.2271 101.458 78.2387 101.477 78.2588C101.497 78.2789 101.507 78.3061 101.507 78.3347L101.401 82.4442C101.399 82.5009 101.353 82.546 101.297 82.546L101.297 82.5456ZM99.1135 82.336H101.196L101.296 78.4357H98.8439L99.1135 82.336Z" fill="#697571"/>
<path d="M98.4205 84.7607C98.4147 85.1495 98.679 85.4909 99.0563 85.5789C100.368 85.8855 103.321 86.5678 104.164 86.6938C105.258 86.8574 106.602 86.5209 107.18 85.8783C107.758 85.2357 105.886 83.7016 104.997 83.1435C103.678 82.3141 102.41 80.6754 101.878 80.6017C101.347 80.5279 100.354 82.0768 100.354 82.0768L98.7324 81.3926C98.7324 81.3926 98.4499 82.7886 98.4205 84.7602V84.7607Z" fill="white"/>
<path d="M104.736 86.84C104.538 86.84 104.34 86.8262 104.149 86.7976C103.299 86.6707 100.288 85.9745 99.0323 85.6809C98.611 85.5826 98.3098 85.1947 98.316 84.759C98.3449 82.8004 98.627 81.386 98.6301 81.3717C98.6363 81.3409 98.6559 81.3145 98.6835 81.3002C98.7111 81.2855 98.7436 81.2841 98.7725 81.2962L100.314 81.9468C100.538 81.6086 101.365 80.4226 101.892 80.4981C102.192 80.5396 102.622 80.9499 103.218 81.5174C103.774 82.0469 104.403 82.6466 105.052 83.0546C105.765 83.5024 107.274 84.6875 107.385 85.4914C107.41 85.6715 107.367 85.8252 107.257 85.9481C106.769 86.4901 105.738 86.8396 104.736 86.8396V86.84ZM98.8112 81.5397C98.7431 81.9249 98.5482 83.1583 98.5247 84.7621C98.5198 85.0999 98.7529 85.4007 99.0799 85.4766C100.333 85.7693 103.338 86.4642 104.18 86.5902C105.277 86.7547 106.56 86.4106 107.103 85.8082C107.171 85.7323 107.196 85.6384 107.18 85.5209C107.085 84.8376 105.676 83.6932 104.942 83.2325C104.275 82.8133 103.637 82.2056 103.075 81.6693C102.572 81.1903 102.098 80.7376 101.864 80.7054C101.526 80.659 100.812 81.5563 100.443 82.1336C100.415 82.1765 100.362 82.1931 100.314 82.1734L98.8116 81.5393L98.8112 81.5397Z" fill="#697571"/>
<path d="M104.713 86.0869C102.343 86.0869 99.1561 84.7936 98.9764 84.7199C98.923 84.698 98.8976 84.6368 98.9194 84.5836C98.9412 84.53 99.0022 84.5045 99.0556 84.5264C99.1139 84.5501 104.892 86.8957 106.594 85.3522C106.637 85.3133 106.702 85.3169 106.741 85.3598C106.78 85.4027 106.776 85.4688 106.734 85.5077C106.268 85.9296 105.54 86.0873 104.713 86.0873L104.713 86.0869Z" fill="#697571"/>
<path d="M102.185 83.5968C102.157 83.5968 102.128 83.5852 102.108 83.5624C102.069 83.5195 102.073 83.4534 102.116 83.4145L103.276 82.3634C103.319 82.3246 103.384 82.3281 103.423 82.371C103.462 82.4139 103.458 82.4801 103.415 82.519L102.255 83.57C102.235 83.5883 102.21 83.5968 102.185 83.5968Z" fill="#697571"/>
<path d="M89.8563 45.9984C89.8563 45.9984 88.4998 64.3879 88.1296 68.8227C87.7599 73.2574 88.9945 80.3858 88.9945 80.3858L92.5154 80.2C92.5154 80.2 92.7565 71.5325 93.0181 69.1256C93.0181 69.1256 94.5054 65.8626 94.9463 62.9526C95.3872 60.0426 96.8887 55.4456 96.8887 55.4456C96.8887 55.4456 98.1082 78.3883 98.2256 80.1906C98.2256 80.1906 100.987 80.3139 101.977 79.6883C101.977 79.6883 103.73 71.3225 103.479 66.7711C103.227 62.2197 102.887 45.749 102.887 45.749L94.041 45.88L89.8563 45.9975V45.9984Z" fill="#697571"/>
<path d="M92.3702 69.2296H91.294C91.2367 69.2296 91.1899 69.1827 91.1899 69.1251C91.1899 69.0674 91.2367 69.0205 91.294 69.0205H92.3702C92.4276 69.0205 92.4744 69.0674 92.4744 69.1251C92.4744 69.1827 92.4276 69.2296 92.3702 69.2296Z" fill="white"/>
<path d="M100.036 75.9022H100.034C99.9771 75.9009 99.9313 75.8535 99.9321 75.7954C99.9708 73.6759 102.288 69.8744 102.386 69.7135C102.416 69.6644 102.48 69.6487 102.529 69.6791C102.578 69.7095 102.594 69.7738 102.564 69.823C102.54 69.8619 100.178 73.7367 100.14 75.799C100.139 75.8562 100.093 75.9018 100.036 75.9018V75.9022Z" fill="white"/>
</g>
<g clip-path="url(#clip2_980_90134)">
<path d="M728.357 40.1407C728.806 44.1557 729.191 47.4564 729.415 49.9356C730.36 60.4194 730.832 65.6618 730.616 68.1553C730.351 71.207 729.805 73.1862 730.71 75.5554C730.815 75.8307 731.401 77.3171 731.421 79.2948C731.432 80.3157 731.43 81.2088 730.88 81.604C730.113 82.1545 729.048 81.1875 727.226 80.9516C725.617 80.7429 724.205 81.2065 723.201 81.6816C722.758 77.2824 721.807 73.2305 721.406 68.8248C720.867 62.887 720.896 56.5956 720.434 50.6522C719.581 53.3896 719.101 55.6577 718.824 57.1723C717.204 66.0432 716.309 70.9388 717.351 76.2716C717.548 77.275 718.038 79.4476 716.956 80.4085C716.416 80.8883 715.656 80.9146 713.587 80.6699C712.104 80.4944 710.146 80.2031 707.845 79.691C708.655 71.3433 710.013 62.2009 712.191 52.4596C713.282 47.5774 714.49 42.9408 715.77 38.5592C719.986 39.063 724.141 39.6365 728.357 40.1407Z" fill="white"/>
<path d="M728.266 40.2324C728.347 40.9596 728.426 41.6638 728.503 42.3435C728.841 45.3431 729.133 47.9331 729.314 49.9446C730.257 60.4122 730.73 65.6624 730.515 68.1462C730.459 68.795 730.391 69.3884 730.325 69.9619C730.084 72.0527 729.894 73.704 730.616 75.5917L730.623 75.6111C731.06 76.7507 731.307 78.0593 731.32 79.2959C731.33 80.2485 731.34 81.148 730.821 81.5207C730.416 81.8116 729.894 81.6246 729.171 81.366C728.652 81.1808 728.007 80.9495 727.24 80.8502C725.967 80.6853 724.638 80.9135 723.287 81.529C723.073 79.4575 722.744 77.4332 722.426 75.4744C722.076 73.3221 721.715 71.0964 721.507 68.8153C721.218 65.6356 721.091 62.3013 720.967 59.0763C720.861 56.2878 720.75 53.4041 720.535 50.6441C720.532 50.5956 720.494 50.5564 720.446 50.5509C720.397 50.5444 720.352 50.5749 720.338 50.6215C719.664 52.783 719.121 54.9805 718.724 57.1536C717.101 66.0425 716.206 70.939 717.252 76.2908L717.28 76.4321C717.489 77.4877 717.879 79.4524 716.889 80.3321C716.396 80.7703 715.72 80.8188 713.599 80.5681C711.729 80.3469 709.831 80.0246 707.955 79.6104C708.842 70.5086 710.3 61.3815 712.29 52.4815C713.323 47.862 714.518 43.2158 715.844 38.6702C717.922 38.9191 720.019 39.1892 722.047 39.4501C724.08 39.712 726.182 39.9826 728.266 40.2324ZM730.339 81.8721C730.555 81.8721 730.754 81.8194 730.939 81.6869C731.544 81.2524 731.534 80.3012 731.523 79.2936C731.51 78.0335 731.258 76.6994 730.812 75.5376L730.805 75.5187C730.101 73.6777 730.289 72.0481 730.526 69.9854C730.592 69.4105 730.661 68.8158 730.717 68.1642C730.934 65.662 730.46 60.4062 729.517 49.9349C729.334 47.9124 729.043 45.321 728.704 42.3204C728.625 41.6158 728.543 40.8848 728.458 40.1289C728.453 40.0818 728.416 40.0444 728.369 40.0389C726.261 39.7868 724.132 39.5129 722.073 39.2479C720.016 38.9828 717.89 38.709 715.783 38.4574C715.734 38.4514 715.688 38.4823 715.673 38.5298C714.337 43.1059 713.132 47.7849 712.092 52.4367C710.094 61.3741 708.631 70.5405 707.744 79.6806C707.739 79.7323 707.773 79.7789 707.824 79.7905C709.734 80.2153 711.669 80.5454 713.575 80.7708C715.612 81.0118 716.439 81.0049 717.024 80.4849C718.1 79.5277 717.696 77.4881 717.479 76.3919L717.451 76.2515C716.413 70.9376 717.305 66.0549 718.924 57.1905C719.288 55.1976 719.775 53.1838 720.373 51.1969C720.561 53.7887 720.665 56.478 720.765 59.0842C720.888 62.3114 721.016 65.6486 721.306 68.8343C721.513 71.1223 721.876 73.3517 722.226 75.5076C722.551 77.508 722.887 79.5767 723.1 81.6915C723.103 81.7248 723.122 81.7539 723.151 81.77C723.18 81.7866 723.214 81.788 723.244 81.7737C724.604 81.13 725.94 80.8871 727.214 81.0524C727.959 81.149 728.567 81.3669 729.103 81.5585C729.572 81.7262 729.98 81.8721 730.339 81.8721Z" fill="#697571"/>
<path d="M720.342 52.4438C720.398 52.4438 720.443 52.3981 720.443 52.3418C720.443 52.3307 720.445 52.2656 720.449 52.1608C720.468 51.6039 720.526 49.9083 720.505 49.2318C720.471 48.0978 719.733 47.087 718.668 46.7162C718.615 46.6982 718.557 46.7259 718.539 46.7794C718.52 46.8325 718.548 46.8907 718.601 46.9092C719.587 47.2523 720.271 48.1883 720.303 49.2383C720.323 49.9083 720.265 51.5984 720.246 52.1539C720.243 52.2647 720.24 52.3326 720.24 52.3418C720.24 52.3981 720.286 52.4438 720.342 52.4438Z" fill="#697571"/>
<path d="M706.418 20.8148L708.417 24.6418C708.417 24.6418 712.028 26.554 709.205 32.8108C709.133 32.9701 709.222 33.1567 709.39 33.1992C710.31 33.4314 712.877 34.0377 713.15 33.6466C713.484 33.1692 714.737 22.1552 706.418 20.8148Z" fill="white"/>
<path d="M706.603 20.9508C709.276 21.4412 711.19 23.0047 712.297 25.6012C713.836 29.2158 713.22 33.3633 713.067 33.5882C712.938 33.772 711.759 33.6921 709.415 33.1006C709.364 33.0877 709.322 33.053 709.299 33.005C709.276 32.957 709.275 32.9016 709.297 32.8531C710.771 29.5866 710.472 27.5082 709.962 26.3395C709.452 25.1717 708.655 24.6629 708.492 24.5677L706.603 20.9508ZM712.6 33.8745C712.943 33.8745 713.154 33.8182 713.233 33.7055C713.458 33.3837 713.999 29.135 712.505 25.5734C711.347 22.8117 709.304 21.1766 706.434 20.7143C706.396 20.7079 706.358 20.724 706.336 20.7559C706.313 20.7873 706.311 20.8284 706.329 20.8626L708.326 24.6896C708.336 24.7081 708.351 24.7229 708.369 24.7326C708.378 24.7372 709.255 25.2156 709.782 26.4342C710.271 27.5641 710.551 29.5801 709.113 32.7686C709.065 32.8725 709.067 32.9912 709.116 33.0941C709.165 33.1962 709.256 33.2705 709.366 33.2982C710.885 33.682 711.967 33.8745 712.6 33.8745Z" fill="#697571"/>
<path d="M714.978 41.2667C715.947 35.7173 714.684 30.2842 715.652 24.7347C717.061 24.1478 719.293 23.4178 722.114 23.3028C724.265 23.2146 726.121 23.5106 727.562 23.8819C728.894 24.2245 730.056 25.0511 730.799 26.2147C731.03 26.5767 731.247 26.9794 731.424 27.419C731.734 28.1901 732.003 28.8615 732.165 29.4336C732.292 29.8824 732.122 30.3645 731.735 30.6213C730.757 31.2686 729.655 32.4757 728.742 32.8317C729.859 36.209 728.047 38.1604 728.584 41.6638C727.992 41.981 721.564 43.1322 714.978 41.2667Z" fill="#697571"/>
<path d="M714.308 20.5191C714.188 20.3935 708.395 24.8453 708.395 24.8453C708.395 24.8453 712.868 31.1243 712.925 35.5332C712.925 35.5332 717.091 34.8106 718.134 33.2295C718.134 33.2295 719.221 25.6806 714.308 20.5191Z" fill="white"/>
<path d="M714.234 20.5897C714.234 20.5902 714.234 20.5897 714.234 20.5897V20.5897ZM718.036 33.1921C717.106 34.5612 713.697 35.2806 713.023 35.4108C712.897 31.3002 709.05 25.6114 708.534 24.867C710.661 23.2333 713.815 20.8575 714.275 20.6327C718.918 25.5578 718.095 32.7335 718.036 33.1921ZM712.925 35.6353C712.93 35.6353 712.936 35.6348 712.942 35.6339C713.114 35.6043 717.163 34.8854 718.218 33.2858C718.226 33.2729 718.232 33.259 718.234 33.2438C718.237 33.2249 718.504 31.3136 718.163 28.7961C717.849 26.4707 716.937 23.1345 714.381 20.4484C714.292 20.3565 714.244 20.3048 711.245 22.5531C709.799 23.6383 708.348 24.7529 708.333 24.764C708.29 24.7977 708.281 24.8596 708.313 24.9049C708.357 24.9672 712.767 31.2088 712.823 35.5346C712.823 35.5646 712.837 35.5928 712.859 35.6117C712.878 35.6269 712.901 35.6353 712.925 35.6353Z" fill="#697571"/>
<path d="M715.195 28.4836C715.731 28.0795 717.481 26.9034 718.1 27.2701C718.375 27.4326 718.888 27.6196 719.297 28.043C719.978 28.7491 720.749 29.3618 721.625 29.7996L727.013 32.493C727.718 32.8135 728.538 32.7355 729.171 32.2871L731.64 30.3311C731.64 30.3311 732.928 36.811 729.21 37.7548C725.97 38.5772 720.444 32.1523 719.079 30.4904C718.878 30.2461 718.582 30.1039 718.266 30.1011C717.66 30.0956 716.688 30.0826 716.429 30.0563C714.842 29.8956 714.836 28.7542 715.195 28.4836Z" fill="white"/>
<path d="M731.57 30.5165C731.735 31.5273 732.439 36.8297 729.185 37.6554C729.001 37.7025 728.808 37.7246 728.609 37.7246C725.326 37.7251 720.203 31.6991 719.157 30.4256C718.937 30.1573 718.613 30.0021 718.267 29.9989C717.279 29.9897 716.629 29.974 716.439 29.9546C715.431 29.8525 715.189 29.3575 715.131 29.1497C715.058 28.8861 715.141 28.6515 715.256 28.5647C716.077 27.945 717.562 27.0695 718.048 27.3576C718.12 27.4001 718.203 27.4421 718.299 27.4906C718.58 27.6324 718.929 27.8088 719.224 28.114C719.966 28.8828 720.759 29.4808 721.58 29.8909L726.967 32.5843C727.705 32.92 728.57 32.8373 729.229 32.3705L731.57 30.5165ZM728.607 37.9287C728.824 37.9287 729.033 37.9047 729.235 37.8534C730.801 37.4559 731.729 36.0189 731.92 33.6971C732.062 31.9651 731.743 30.3272 731.739 30.3106C731.733 30.276 731.708 30.2473 731.675 30.2349C731.642 30.2229 731.605 30.2289 731.577 30.2506L729.108 32.2066C728.512 32.6286 727.723 32.7039 727.054 32.3996L721.67 29.708C720.87 29.3081 720.096 28.724 719.369 27.9718C719.05 27.6416 718.669 27.4491 718.39 27.3082C718.297 27.2611 718.217 27.2205 718.151 27.1817C717.376 26.7218 715.225 28.3329 715.134 28.4017C714.933 28.5536 714.849 28.8911 714.935 29.2042C715.004 29.4526 715.286 30.0432 716.419 30.1577C716.67 30.1831 717.562 30.1965 718.265 30.203C718.551 30.2053 718.819 30.3341 719.001 30.5553C720.48 32.3576 725.324 37.9287 728.607 37.9287Z" fill="#697571"/>
<path d="M710.493 25.0146C710.512 25.0146 710.532 25.0086 710.55 24.9971L714.138 22.5447C714.184 22.5133 714.196 22.4496 714.165 22.4029C714.133 22.3563 714.07 22.3443 714.024 22.3761L710.435 24.8281C710.389 24.8595 710.377 24.9232 710.409 24.9699C710.428 24.9989 710.46 25.0146 710.493 25.0146Z" fill="#697571"/>
<path d="M711.173 26.0562C711.192 26.0562 711.212 26.0506 711.229 26.0391L714.808 23.6278C714.854 23.5964 714.867 23.5326 714.835 23.486C714.805 23.4389 714.741 23.4264 714.695 23.4578L711.116 25.8696C711.069 25.9005 711.057 25.9643 711.088 26.0109C711.107 26.0404 711.14 26.0562 711.173 26.0562Z" fill="#697571"/>
<path d="M711.719 27.1279C711.738 27.1279 711.756 27.1233 711.773 27.1127L713.207 26.2197C713.255 26.1901 713.27 26.1273 713.24 26.0793C713.211 26.0313 713.149 26.016 713.101 26.046L711.666 26.9391C711.619 26.9691 711.604 27.0319 711.633 27.0799C711.652 27.1108 711.686 27.1279 711.719 27.1279Z" fill="#697571"/>
<path d="M717.658 16.6983C717.641 16.6304 718.938 15.2415 718.938 15.2415L721.301 15.4294C722.714 15.3652 722.859 18.1034 722.859 18.1034C722.859 18.1034 722.759 18.3994 722.709 18.7471C723.201 19.9648 724.66 23.3084 726.035 23.8223C726.856 24.1294 724.71 26.8732 722.872 26.9124C721.034 26.9522 719.049 26.254 719.02 25.5535C718.992 24.853 721.26 23.2821 721.26 23.2821L720.83 22.2163C720.599 22.3558 720.361 22.48 720.135 22.5659C719.839 22.6781 719.51 22.5202 719.41 22.2182L718.871 20.6833L718.555 20.7632C718.382 20.8066 718.176 20.6791 718.202 20.5009C718.422 18.9988 717.786 17.2173 717.658 16.6983Z" fill="white"/>
<path d="M722.756 18.0907C722.732 18.1637 722.652 18.4274 722.608 18.7331C722.606 18.7511 722.608 18.7695 722.615 18.7862C723.169 20.1557 724.606 23.3973 725.999 23.9182C726.039 23.9329 726.144 23.9722 726.105 24.1998C725.972 24.9968 724.32 26.7797 722.87 26.8106C720.966 26.8554 719.145 26.1351 719.121 25.5496C719.102 25.0772 720.424 23.9851 721.317 23.3668C721.356 23.3396 721.372 23.2888 721.354 23.244L720.924 22.1782C720.912 22.1505 720.89 22.1293 720.862 22.1201C720.834 22.1099 720.803 22.1136 720.778 22.1293C720.529 22.2789 720.301 22.3939 720.099 22.4705C719.982 22.5153 719.856 22.5098 719.743 22.4558C719.63 22.4017 719.546 22.3057 719.506 22.1861L718.967 20.6498C718.95 20.5999 718.898 20.5718 718.847 20.5847L718.531 20.6641C718.467 20.6803 718.392 20.6609 718.343 20.617C718.321 20.5967 718.296 20.5625 718.302 20.5164C718.492 19.2244 718.056 17.7195 717.846 16.9964C717.813 16.8819 717.785 16.7849 717.765 16.7092C717.867 16.5609 718.444 15.9205 718.978 15.3474L721.293 15.5312C721.297 15.5317 721.301 15.5317 721.306 15.5317C722.546 15.4776 722.74 17.8548 722.756 18.0907ZM722.73 27.0161C722.779 27.0161 722.826 27.0156 722.874 27.0147C724.442 26.981 726.159 25.1053 726.305 24.234C726.363 23.8909 726.183 23.769 726.07 23.727C724.726 23.2246 723.251 19.8136 722.813 18.7349C722.862 18.4131 722.953 18.1397 722.954 18.1369C722.958 18.1245 722.96 18.1115 722.96 18.0986C722.953 17.9841 722.797 15.3262 721.351 15.3262C721.335 15.3262 721.319 15.3266 721.303 15.3271L718.946 15.1396C718.914 15.1369 718.885 15.1489 718.864 15.1715C717.529 16.6006 717.543 16.6579 717.56 16.723C717.58 16.8057 717.612 16.9151 717.652 17.0536C717.857 17.7629 718.284 19.2391 718.102 20.4864C718.086 20.5907 718.125 20.6932 718.207 20.768C718.305 20.8576 718.452 20.8946 718.58 20.8622L718.807 20.8054L719.315 22.2526C719.371 22.4234 719.493 22.562 719.656 22.64C719.819 22.718 720.002 22.7259 720.171 22.6617C720.356 22.5911 720.561 22.4913 720.78 22.3643L721.135 23.2454C720.709 23.5464 718.891 24.8694 718.919 25.5579C718.951 26.365 721.006 27.0161 722.73 27.0161Z" fill="#697571"/>
<path d="M720.756 22.3652C720.776 22.3652 720.797 22.3588 720.815 22.3458L721.411 21.9122C722.02 21.4694 722.354 20.8853 722.378 20.2236C722.38 20.1673 722.337 20.1197 722.281 20.1178C722.224 20.1142 722.178 20.1594 722.176 20.2157C722.154 20.8211 721.856 21.3364 721.292 21.7469L720.696 22.1805C720.651 22.2133 720.641 22.277 720.674 22.3228C720.693 22.3505 720.724 22.3652 720.756 22.3652Z" fill="#697571"/>
<path d="M721.138 18.2654C721.051 18.2562 720.982 18.1883 720.971 18.101C720.964 18.0511 720.959 17.9943 720.955 17.932C720.915 17.2315 721.2 16.8815 721.021 16.5943C720.923 16.4373 720.742 16.3883 720.639 16.3606C720.128 16.2235 719.876 16.9554 718.905 17.6032C717.698 18.4081 717.608 18.5581 717.325 18.5858C716.26 18.6902 715.696 17.5229 715.418 16.8676C715.34 16.6834 714.952 15.6966 715.561 14.8493C715.876 14.4088 716.371 14.1322 716.914 14.0671C717.228 14.0292 717.511 13.8339 717.626 13.537C717.656 13.4599 717.698 13.3855 717.754 13.3176C718.224 12.7538 719.369 13.0978 719.77 13.2184C720.047 13.3015 720.503 13.4732 721 13.8463C721.276 14.0537 721.653 14.0698 721.948 13.8902C722.094 13.8016 722.271 13.7304 722.477 13.7152C723.271 13.6579 723.785 14.4937 723.833 14.5736C724.385 15.5031 723.931 16.7069 723.588 17.6157C723.341 18.2691 723.045 18.7669 722.832 19.0859L722.826 19.085C722.557 19.049 722.381 18.7812 722.456 18.5184C722.499 18.3651 722.528 18.1874 722.523 17.9911C722.52 17.8383 722.54 17.3506 722.165 17.2015C721.934 17.1096 721.399 17.2685 721.349 18.0719C721.342 18.1864 721.255 18.2779 721.141 18.2659L721.138 18.2654Z" fill="#697571"/>
<path d="M730.945 71.9212C729.948 69.8576 729.853 67.7783 730.945 65.6777L730.161 64.7325L708.743 65.4413L709.482 72.2897L730.214 72.5303L730.945 71.9212Z" fill="white"/>
<path d="M730.818 71.8935L730.178 72.4278L709.572 72.189L708.856 65.5397L730.115 64.836L730.824 65.6911C729.814 67.6767 729.812 69.7625 730.818 71.8935ZM730.214 72.6323C730.238 72.6323 730.26 72.624 730.279 72.6088L731.009 72.0002C731.045 71.9702 731.056 71.9189 731.035 71.8769C730 69.7302 729.999 67.7183 731.034 65.7249C731.053 65.6884 731.049 65.644 731.022 65.6122L730.239 64.667C730.219 64.6429 730.189 64.6291 730.158 64.6305L708.74 65.3393C708.712 65.3402 708.685 65.3531 708.666 65.3744C708.648 65.3961 708.639 65.4242 708.642 65.4524L709.381 72.3008C709.386 72.352 709.429 72.3913 709.48 72.3917L730.213 72.6323C730.213 72.6323 730.213 72.6323 730.214 72.6323Z" fill="#697571"/>
<path d="M691.589 63.9783H731.342C731.807 63.9783 732.184 64.3574 732.184 64.8251C732.184 65.2929 731.807 65.672 731.342 65.672H713.066C711.728 65.672 710.643 66.7641 710.643 68.111V69.482C710.643 70.8294 711.728 71.921 713.066 71.921H731.342C731.807 71.921 732.184 72.3001 732.184 72.7679C732.184 73.2356 731.807 73.6147 731.342 73.6147H691.589C689.121 73.6147 687.121 71.6015 687.121 69.1177V68.4754C687.121 65.9915 689.121 63.9783 691.589 63.9783Z" fill="white"/>
<path d="M731.342 72.0231C731.75 72.0231 732.082 72.3574 732.082 72.7679C732.082 73.1788 731.75 73.5127 731.342 73.5127H691.588C689.181 73.5127 687.222 71.541 687.222 69.1177V68.4754C687.222 66.052 689.181 64.0803 691.588 64.0803H731.342C731.75 64.0803 732.082 64.4146 732.082 64.8251C732.082 65.2356 731.75 65.57 731.342 65.57H713.066C711.673 65.57 710.541 66.7096 710.541 68.111V69.482C710.541 70.8834 711.673 72.0231 713.066 72.0231H731.342ZM691.588 73.7168H731.342C731.862 73.7168 732.285 73.2911 732.285 72.7679C732.285 72.2447 731.862 71.819 731.342 71.819H713.066C711.785 71.819 710.744 70.7708 710.744 69.482V68.111C710.744 66.8223 711.785 65.7741 713.066 65.7741H731.342C731.862 65.7741 732.285 65.3483 732.285 64.8251C732.285 64.302 731.862 63.8762 731.342 63.8762H691.588C689.069 63.8762 687.019 65.9394 687.019 68.4754V69.1177C687.019 71.6537 689.069 73.7168 691.588 73.7168Z" fill="#697571"/>
<path d="M718.885 67.5903H720.45C720.506 67.5903 720.551 67.5446 720.551 67.4883C720.551 67.4315 720.506 67.3858 720.45 67.3858H718.885C718.829 67.3858 718.783 67.4315 718.783 67.4883C718.783 67.5446 718.829 67.5903 718.885 67.5903Z" fill="#697571"/>
<path d="M721.429 67.5903H729.716C729.772 67.5903 729.817 67.5446 729.817 67.4883C729.817 67.4315 729.772 67.3858 729.716 67.3858H721.429C721.373 67.3858 721.328 67.4315 721.328 67.4883C721.328 67.5446 721.373 67.5903 721.429 67.5903Z" fill="#697571"/>
<path d="M719.836 68.6104H729.64C729.696 68.6104 729.742 68.5646 729.742 68.5083C729.742 68.452 729.696 68.4063 729.64 68.4063H719.836C719.78 68.4063 719.735 68.452 719.735 68.5083C719.735 68.5646 719.78 68.6104 719.836 68.6104Z" fill="#697571"/>
<path d="M717.37 70.439H719.152C719.208 70.439 719.253 70.3933 719.253 70.3369C719.253 70.2806 719.208 70.2349 719.152 70.2349H717.37C717.314 70.2349 717.268 70.2806 717.268 70.3369C717.268 70.3933 717.314 70.439 717.37 70.439Z" fill="#697571"/>
<path d="M719.912 70.439H729.716C729.772 70.439 729.817 70.3933 729.817 70.3369C729.817 70.2806 729.772 70.2349 729.716 70.2349H719.912C719.856 70.2349 719.81 70.2806 719.81 70.3369C719.81 70.3933 719.856 70.439 719.912 70.439Z" fill="#697571"/>
<path d="M732.913 83.7251H696.036V74.6312H732.913C731.824 77.7028 731.794 80.7352 732.913 83.7251Z" fill="white"/>
<path d="M732.767 83.623H696.137V74.7332H732.769C731.728 77.7601 731.727 80.7495 732.767 83.623ZM696.036 83.8271H732.913C732.946 83.8271 732.977 83.8105 732.996 83.7833C733.015 83.7556 733.02 83.7205 733.008 83.6891C731.918 80.7768 731.918 77.7407 733.008 74.6658C733.02 74.6344 733.014 74.5998 732.996 74.5725C732.976 74.5453 732.946 74.5291 732.913 74.5291H696.036C695.98 74.5291 695.934 74.5749 695.934 74.6312V83.7251C695.934 83.7814 695.98 83.8271 696.036 83.8271Z" fill="#697571"/>
<path d="M700.475 75.0803H733.166C733.559 75.0803 733.878 74.7594 733.878 74.3636C733.878 73.9679 733.559 73.647 733.166 73.647H690.744C689.016 73.647 687.616 75.0567 687.616 76.7957V81.7458C687.616 83.4848 689.016 84.8945 690.744 84.8945H733.166C733.559 84.8945 733.878 84.5736 733.878 84.1779C733.878 83.7821 733.559 83.4612 733.166 83.4612H700.475C699.254 83.4612 698.265 82.4657 698.265 81.2369V77.3046C698.265 76.0763 699.254 75.0803 700.475 75.0803Z" fill="white"/>
<path d="M733.166 83.5633C733.503 83.5633 733.777 83.8389 733.777 84.1779C733.777 84.5168 733.503 84.7925 733.166 84.7925H690.744C689.075 84.7925 687.717 83.4257 687.717 81.7458V76.7957C687.717 75.1158 689.075 73.749 690.744 73.749H733.166C733.503 73.749 733.777 74.0247 733.777 74.3636C733.777 74.7026 733.503 74.9782 733.166 74.9782H700.475C699.201 74.9782 698.164 76.0218 698.164 77.3046V81.2369C698.164 82.5197 699.201 83.5633 700.475 83.5633H733.166ZM690.744 84.9966H733.166C733.615 84.9966 733.979 84.6295 733.979 84.1779C733.979 83.7267 733.615 83.3592 733.166 83.3592H700.475C699.312 83.3592 698.366 82.407 698.366 81.2369V77.3046C698.366 76.1345 699.312 75.1823 700.475 75.1823H733.166C733.615 75.1823 733.979 74.8152 733.979 74.3636C733.979 73.9125 733.615 73.5449 733.166 73.5449H690.744C688.963 73.5449 687.514 75.0032 687.514 76.7957V81.7458C687.514 83.5383 688.963 84.9966 690.744 84.9966Z" fill="#697571"/>
<path d="M726.281 76.8931H731.726C731.782 76.8931 731.828 76.8474 731.828 76.791C731.828 76.7347 731.782 76.689 731.726 76.689H726.281C726.225 76.689 726.179 76.7347 726.179 76.791C726.179 76.8474 726.225 76.8931 726.281 76.8931Z" fill="#697571"/>
<path d="M715.449 76.8931H725.347C725.403 76.8931 725.448 76.8474 725.448 76.791C725.448 76.7347 725.403 76.689 725.347 76.689H715.449C715.393 76.689 715.347 76.7347 715.347 76.791C715.347 76.8474 715.393 76.8931 715.449 76.8931Z" fill="#697571"/>
<path d="M718.004 78.1064H731.611C731.667 78.1064 731.712 78.0607 731.712 78.0044C731.712 77.9481 731.667 77.9023 731.611 77.9023H718.004C717.948 77.9023 717.902 77.9481 717.902 78.0044C717.902 78.0607 717.948 78.1064 718.004 78.1064Z" fill="#697571"/>
<path d="M714.083 78.1064H716.852C716.908 78.1064 716.954 78.0607 716.954 78.0044C716.954 77.9481 716.908 77.9023 716.852 77.9023H714.083C714.027 77.9023 713.982 77.9481 713.982 78.0044C713.982 78.0607 714.027 78.1064 714.083 78.1064Z" fill="#697571"/>
<path d="M717.182 80.6396H731.611C731.667 80.6396 731.712 80.5939 731.712 80.5376C731.712 80.4813 731.667 80.4355 731.611 80.4355H717.182C717.126 80.4355 717.08 80.4813 717.08 80.5376C717.08 80.5939 717.126 80.6396 717.182 80.6396Z" fill="#697571"/>
<path d="M715.449 80.6396H716.702C716.758 80.6396 716.804 80.5939 716.804 80.5376C716.804 80.4813 716.758 80.4355 716.702 80.4355H715.449C715.393 80.4355 715.348 80.4813 715.348 80.5376C715.348 80.5939 715.393 80.6396 715.449 80.6396Z" fill="#697571"/>
<path d="M727.833 48.5347C727.876 48.5347 727.916 48.507 727.93 48.4631C727.947 48.4091 727.917 48.3523 727.863 48.3352C727.858 48.3333 727.31 48.1569 727.25 47.7132C727.207 47.4066 727.031 47.1748 726.891 47.0344C726.766 46.9093 726.696 46.744 726.69 46.5666L727.659 46.9554C727.711 46.9767 727.77 46.9508 727.79 46.8987C727.811 46.846 727.786 46.7869 727.734 46.7657L726.626 46.321C726.594 46.3085 726.559 46.3127 726.531 46.3316C726.503 46.3505 726.487 46.3819 726.487 46.4161V46.544C726.487 46.7846 726.58 47.0104 726.748 47.1789C726.866 47.2976 727.014 47.4911 727.049 47.7414C727.127 48.3149 727.776 48.5217 727.803 48.5305C727.813 48.5333 727.823 48.5347 727.833 48.5347Z" fill="#697571"/>
</g>
<defs>
<clipPath id="clip0_980_90134">
<rect width="56" height="72" fill="white" transform="translate(351.129 38)"/>
</clipPath>
<clipPath id="clip1_980_90134">
<rect width="36" height="72" fill="white" transform="translate(85 16)"/>
</clipPath>
<clipPath id="clip2_980_90134">
<rect width="47" height="72" fill="white" transform="matrix(-1 0 0 1 734 13)"/>
</clipPath>
</defs>
</svg>
