<svg width="760" height="110" viewBox="0 0 760 110" fill="none" xmlns="http://www.w3.org/2000/svg">
<path opacity="0.6" d="M0 85C12.6667 85.0667 25.3333 85.13 38 85.19C152 85.73 266 86 380 86C494 86 608 85.73 722 85.19C734.667 85.13 747.333 85.0667 760 85C747.333 84.9333 734.667 84.87 722 84.81C608 84.27 494 84 380 84C266 84 152 84.27 38 84.81C25.3333 84.87 12.6667 84.9333 0 85Z" fill="black"/>
<g clip-path="url(#clip0_958_95265)">
<path d="M385.881 103.164C385.881 103.164 388.086 107.594 390.563 109.724C390.981 110.083 391.631 109.885 391.787 109.358C391.877 109.053 391.965 108.647 392.038 108.106C392.311 106.083 390.483 100.816 390.483 100.816L389.669 100.555C389.384 100.463 389.081 100.637 389.018 100.929L388.933 101.324L387.955 100.466C387.732 100.271 387.39 100.3 387.206 100.532C386.832 101.004 386.251 101.884 385.881 103.164H385.881Z" fill="white"/>
<path d="M391.053 110C390.852 110 390.657 109.929 390.501 109.795C388.038 107.678 385.818 103.25 385.796 103.206C385.785 103.184 385.783 103.16 385.79 103.137C386.156 101.872 386.722 100.99 387.132 100.473C387.237 100.341 387.388 100.259 387.556 100.244C387.726 100.228 387.89 100.282 388.018 100.394L388.875 101.145L388.926 100.908C388.962 100.743 389.067 100.599 389.214 100.515C389.361 100.43 389.538 100.412 389.7 100.463L390.513 100.724C390.542 100.733 390.564 100.756 390.574 100.784C390.649 100.999 392.406 106.095 392.133 108.117C392.066 108.613 391.981 109.039 391.879 109.383C391.796 109.664 391.578 109.882 391.295 109.965C391.215 109.988 391.134 109.999 391.053 109.999L391.053 110ZM385.983 103.154C386.191 103.563 388.302 107.655 390.625 109.652C390.797 109.8 391.022 109.848 391.241 109.783C391.461 109.719 391.631 109.55 391.696 109.331C391.795 108.995 391.879 108.579 391.944 108.093C392.198 106.213 390.585 101.407 390.409 100.891L389.641 100.644C389.53 100.609 389.409 100.622 389.308 100.68C389.208 100.737 389.136 100.835 389.112 100.948L389.027 101.343C389.02 101.376 388.996 101.402 388.964 101.413C388.931 101.423 388.896 101.417 388.871 101.394L387.892 100.537C387.804 100.459 387.69 100.422 387.573 100.433C387.457 100.443 387.353 100.499 387.281 100.59C386.885 101.089 386.341 101.937 385.983 103.154Z" fill="#697571"/>
<path d="M391.252 109.287C391.227 109.287 391.203 109.277 391.184 109.259C388.666 106.741 386.557 102.798 386.536 102.759C386.511 102.713 386.529 102.656 386.575 102.631C386.622 102.607 386.679 102.624 386.704 102.67C386.725 102.71 388.821 106.627 391.319 109.125C391.356 109.163 391.356 109.223 391.319 109.259C391.3 109.278 391.276 109.287 391.252 109.287V109.287Z" fill="#697571"/>
<path d="M390.178 105.827C390.138 105.827 390.101 105.802 390.088 105.762C390.071 105.713 390.098 105.659 390.148 105.642L391.466 105.21C391.515 105.194 391.569 105.221 391.586 105.271C391.602 105.32 391.575 105.374 391.525 105.391L390.208 105.823C390.198 105.826 390.188 105.827 390.178 105.827H390.178Z" fill="#697571"/>
<path d="M389.312 104.426C389.272 104.426 389.234 104.401 389.221 104.361C389.205 104.312 389.232 104.258 389.282 104.241L390.937 103.699C390.987 103.682 391.041 103.709 391.058 103.759C391.074 103.809 391.047 103.862 390.997 103.879L389.342 104.422C389.332 104.425 389.322 104.426 389.312 104.426H389.312Z" fill="#697571"/>
<path d="M367.878 69.8954C368.048 69.7178 380.126 64.5225 385.063 63.4177C390 62.3126 391.84 62.3023 393.52 65.1114C395.2 67.9205 385.427 83.2487 385.427 83.2487L364.638 77.8535L367.879 69.8954H367.878Z" fill="#697571"/>
<path d="M379.578 75.8153C379.566 75.8153 379.552 75.8127 379.54 75.8071C379.492 75.7857 379.47 75.7296 379.492 75.6817C381.814 70.5207 385.648 66.8333 385.686 66.7965C385.724 66.7601 385.784 66.7614 385.821 66.7995C385.858 66.8371 385.856 66.8975 385.818 66.9334C385.78 66.9698 381.972 70.6332 379.665 75.7592C379.649 75.7943 379.615 75.8153 379.578 75.8153Z" fill="white"/>
<path d="M357.997 76.7609C357.997 76.7609 358.544 82.3479 359.758 83.5095C360.971 84.6716 375.533 83.5095 375.533 83.5095C375.533 83.5095 376.69 85.3971 377.447 90.4421C378.203 95.4872 379.046 102.279 380.299 103.936L391.203 101.592C391.203 101.592 387.586 79.9809 385.074 77.0417C382.562 74.1025 364.286 73.6411 364.286 73.6411L357.997 76.7605V76.7609Z" fill="#697571"/>
<path d="M386.336 79.7878C386.296 79.7878 386.26 79.7634 386.246 79.724C385.789 78.416 385.37 77.5342 385.002 77.1032C384.151 76.1077 380.382 75.2007 374.102 74.4799C374.05 74.4739 374.012 74.4268 374.018 74.375C374.024 74.3228 374.072 74.286 374.124 74.2916C380.543 75.0282 384.252 75.933 385.147 76.9804C385.53 77.4294 385.961 78.3312 386.425 79.6615C386.443 79.7111 386.416 79.7651 386.367 79.7822C386.357 79.7856 386.346 79.7873 386.336 79.7873V79.7878Z" fill="white"/>
<path d="M378.178 58.47C377.791 58.1884 377.246 58.2864 376.983 58.6853C375.624 60.7475 371.865 66.4594 371.821 66.6007L373.705 66.8652L378.389 59.5945C378.628 59.2234 378.536 58.7307 378.178 58.4705V58.47Z" fill="white"/>
<path d="M373.705 66.9599C373.7 66.9599 373.696 66.9599 373.691 66.959L371.808 66.6945C371.78 66.6907 371.755 66.6748 371.741 66.6513C371.726 66.6277 371.722 66.5991 371.73 66.5725C371.774 66.4351 374.568 62.1793 376.904 58.6336C377.045 58.4188 377.263 58.2754 377.517 58.2296C377.771 58.1838 378.026 58.242 378.234 58.394C378.632 58.6833 378.735 59.2329 378.469 59.6455L373.785 66.9162C373.767 66.9436 373.737 66.9599 373.705 66.9599ZM371.973 66.5263L373.657 66.7626L378.309 59.5428C378.52 59.2145 378.438 58.7766 378.122 58.5463C377.956 58.4256 377.753 58.379 377.55 58.4154C377.348 58.4517 377.175 58.566 377.062 58.7368C374.189 63.097 372.336 65.9344 371.973 66.5254L371.973 66.5263Z" fill="#697571"/>
<path d="M352.57 75.6866C352.57 75.6866 350.613 72.964 351.414 66.8656C352.216 60.7671 354.175 57.6015 356.226 56.8782C358.277 56.1548 366.713 57.4757 367.371 67.722L352.57 75.6866Z" fill="white"/>
<path d="M352.57 75.781C352.54 75.781 352.511 75.7668 352.492 75.7411C352.473 75.7138 350.523 72.9179 351.32 66.8525C352.051 61.2912 353.828 57.6231 356.195 56.7881C357.291 56.4016 360.08 56.5963 362.584 58.2416C364.619 59.5787 367.118 62.3074 367.466 67.7154C367.469 67.7522 367.449 67.7873 367.416 67.8048L352.615 75.7694C352.601 75.7771 352.585 75.781 352.57 75.781ZM357.455 56.8056C356.959 56.8056 356.547 56.8651 356.258 56.967C355.209 57.3368 354.234 58.3508 353.436 59.8989C352.536 61.6482 351.887 63.9959 351.509 66.8773C350.79 72.3444 352.314 75.1 352.602 75.5614L367.272 67.6674C366.915 62.3776 364.471 59.7089 362.479 58.4004C360.697 57.2293 358.777 56.806 357.455 56.806V56.8056Z" fill="#697571"/>
<path d="M358.464 71.3763C358.415 71.3763 358.373 71.3382 358.369 71.2882L357.963 65.569C357.959 65.5168 357.999 65.4714 358.051 65.4675C358.103 65.4637 358.149 65.5031 358.152 65.5553L358.559 71.2745C358.563 71.3267 358.523 71.3721 358.471 71.3759C358.468 71.3759 358.466 71.3759 358.464 71.3759L358.464 71.3763Z" fill="#697571"/>
<path d="M351.857 74.1179C351.857 74.1179 352.568 79.2396 359.758 77.5254C366.947 75.8111 370.695 69.1572 370.695 69.1572C370.695 69.1572 374.881 68.2665 374.739 65.5622C374.739 65.5622 373.338 65.9363 372.146 65.5622C370.954 65.1882 369.665 65.5708 369.169 66.0339C365.77 69.2081 354.911 70.16 351.857 74.1179Z" fill="white"/>
<path d="M357.042 77.9721C355.704 77.9721 354.58 77.6661 353.682 77.0553C352.031 75.9326 351.774 74.2034 351.763 74.1302C351.76 74.105 351.767 74.0797 351.782 74.0596C353.463 71.8818 357.442 70.6166 361.291 69.3929C364.52 68.3661 367.571 67.3962 369.104 65.964C369.665 65.4397 370.999 65.1024 372.175 65.4714C373.326 65.8326 374.7 65.474 374.714 65.4701C374.742 65.4628 374.771 65.4684 374.795 65.4851C374.818 65.5018 374.832 65.5283 374.834 65.557C374.973 68.1953 371.223 69.134 370.757 69.2401C370.606 69.4973 369.664 71.0523 367.991 72.764C366.308 74.4863 363.516 76.7261 359.78 77.6169C358.787 77.8535 357.873 77.9717 357.042 77.9717L357.042 77.9721ZM351.958 74.1431C352.006 74.4024 352.342 75.9172 353.792 76.9012C355.202 77.8583 357.202 78.0372 359.735 77.4332C366.802 75.7481 370.574 69.1772 370.612 69.1108C370.625 69.0873 370.648 69.0702 370.675 69.0646C370.715 69.0561 374.66 68.1855 374.647 65.682C374.282 65.7637 373.135 65.9722 372.117 65.6529C370.944 65.2848 369.689 65.6781 369.234 66.1032C367.669 67.5644 364.599 68.5407 361.348 69.574C357.547 70.7827 353.617 72.0321 351.958 74.1431H351.958Z" fill="#697571"/>
<path d="M372.179 66.8127C372.063 66.8127 371.943 66.8101 371.817 66.8054C371.765 66.8032 371.724 66.7592 371.726 66.7069C371.728 66.6547 371.769 66.6141 371.825 66.6162C373.923 66.7005 374.639 66.0088 374.645 66.002C374.682 65.9652 374.743 65.9648 374.78 66.0011C374.817 66.038 374.818 66.0974 374.782 66.1347C374.753 66.1638 374.094 66.8131 372.179 66.8131V66.8127Z" fill="#697571"/>
<path d="M371.961 67.8038C371.914 67.8038 371.867 67.8038 371.819 67.8025C371.767 67.8016 371.725 67.7584 371.726 67.7058C371.727 67.6535 371.772 67.612 371.823 67.6129C373.652 67.6463 374.242 67.0008 374.248 66.9944C374.283 66.955 374.342 66.9507 374.382 66.9854C374.422 67.0197 374.426 67.0796 374.391 67.1194C374.366 67.1481 373.769 67.8042 371.961 67.8042L371.961 67.8038Z" fill="#697571"/>
<path d="M359.496 52.1318C359.442 52.2303 357.142 56.1437 357.142 56.1437L355.556 57.2047C356.141 57.6473 357.175 58.3133 358.62 58.6951C360.095 59.0841 361.347 59.005 362.079 58.9039C362.015 58.7045 361.908 58.4447 361.723 58.1733C361.43 57.7453 361.081 57.4906 360.858 57.3545C361.331 56.5451 361.804 55.7362 362.278 54.9268L359.496 52.1318Z" fill="white"/>
<path d="M360.866 59.0824C360.102 59.0824 359.342 58.9835 358.596 58.7866C357.469 58.4892 356.427 57.9824 355.498 57.2804C355.474 57.262 355.46 57.2329 355.461 57.2021C355.462 57.1717 355.478 57.143 355.503 57.1264L357.071 56.0773C357.244 55.7832 359.361 52.1789 359.412 52.0864C359.427 52.0603 359.453 52.0423 359.483 52.0381C359.512 52.0338 359.542 52.0441 359.563 52.065L362.345 54.86C362.376 54.8904 362.381 54.9375 362.36 54.9743L360.986 57.3228C361.311 57.5351 361.585 57.803 361.801 58.1194C361.96 58.3513 362.084 58.6052 362.17 58.8744C362.178 58.9009 362.175 58.93 362.159 58.9536C362.144 58.9771 362.12 58.9929 362.092 58.9968C361.683 59.0533 361.273 59.0815 360.865 59.0815L360.866 59.0824ZM355.721 57.209C356.602 57.8548 357.585 58.3239 358.645 58.6034C359.728 58.8894 360.84 58.9638 361.952 58.8247C361.874 58.6129 361.771 58.4121 361.644 58.2264C361.426 57.9066 361.145 57.6404 360.808 57.435C360.764 57.408 360.75 57.3511 360.776 57.3065L362.159 54.9417L359.516 52.2867C359.147 52.9202 357.31 56.046 357.225 56.1916C357.217 56.204 357.208 56.2142 357.195 56.2224L355.721 57.209H355.721Z" fill="#697571"/>
<path d="M366.459 49.6315C365.399 48.7648 364.149 49.6696 362.912 48.6068C362.345 48.1197 362.293 47.66 361.612 47.3934C361.161 47.217 360.359 47.0955 359.825 47.5013C359.145 48.0179 359.645 48.823 359.093 50.6288C358.706 51.897 358.169 52.4487 358.471 52.8934C358.775 53.3433 359.484 53.015 359.854 53.4815C360.333 54.085 359.459 55.0297 359.731 55.8823C359.918 56.4682 360.813 57.305 363.062 57.5849C363.186 57.2258 363.484 56.5149 363.679 55.8198C364.287 53.6442 363.956 52.8117 364.502 52.5305C365.34 52.0999 366.351 53.4297 366.973 53.0283C367.62 52.6114 367.547 50.5209 366.459 49.6311L366.459 49.6315Z" fill="#697571"/>
<path d="M362.066 50.6963L362.278 51.3354C362.278 51.3354 361.454 53.3458 361.307 54.1051C361.16 54.8644 363.487 55.4961 363.487 55.4961L363.853 55.2265L364.503 55.3883C364.503 55.3883 364.483 53.1754 365.079 51.7C365.079 51.7 363.98 50.3728 362.065 50.6963H362.066Z" fill="white"/>
<path d="M362.147 50.7456C362.231 50.9387 362.306 51.1154 362.368 51.3063C362.375 51.3286 362.374 51.3517 362.366 51.3718C362.189 51.8075 362.019 52.2471 361.855 52.6884C361.696 53.1297 361.534 53.5753 361.423 54.023L361.404 54.1064C361.397 54.1355 361.399 54.1522 361.396 54.1753C361.399 54.219 361.405 54.2635 361.428 54.3072C361.469 54.3949 361.541 54.4771 361.624 54.5499C361.791 54.6954 361.994 54.8114 362.201 54.9145C362.618 55.1178 363.065 55.2766 363.512 55.4055L363.431 55.4209L363.796 55.1512L363.802 55.1474C363.824 55.132 363.852 55.1285 363.876 55.1354L364.518 55.325L364.436 55.3896C364.434 55.0737 364.446 54.7609 364.465 54.4471C364.485 54.1338 364.514 53.8205 364.554 53.5085C364.596 53.1965 364.649 52.8857 364.717 52.5771C364.788 52.2694 364.876 51.9642 364.99 51.6659L365.005 51.7613C364.833 51.57 364.619 51.3954 364.394 51.2524C364.168 51.1077 363.925 50.9896 363.67 50.907C363.416 50.8239 363.152 50.7653 362.883 50.7525C362.75 50.7371 362.616 50.7461 362.482 50.7482C362.408 50.7473 362.366 50.7593 362.313 50.7572C362.261 50.7572 362.207 50.7503 362.147 50.7456H362.147ZM361.984 50.6476C362.06 50.6262 362.143 50.6035 362.229 50.5868C362.313 50.571 362.408 50.5564 362.472 50.5586C362.614 50.556 362.756 50.547 362.898 50.5629C363.181 50.577 363.462 50.6386 363.731 50.7268C364.002 50.8145 364.259 50.9391 364.497 51.0923C364.737 51.2464 364.956 51.421 365.152 51.6402C365.175 51.6654 365.18 51.7001 365.169 51.7296L365.167 51.7356C365.053 52.0203 364.963 52.316 364.888 52.6161C364.818 52.9174 364.761 53.2226 364.714 53.5295C364.671 53.8372 364.637 54.1462 364.612 54.4565C364.588 54.7664 364.572 55.0785 364.569 55.3879C364.569 55.4247 364.539 55.4547 364.502 55.4543C364.496 55.4543 364.491 55.4534 364.487 55.4525L363.83 55.3186L363.91 55.3027L363.544 55.5724L363.543 55.5732C363.519 55.5908 363.489 55.5951 363.462 55.5878C363 55.4547 362.551 55.2955 362.117 55.084C361.901 54.9762 361.688 54.8567 361.498 54.6915C361.404 54.6081 361.314 54.5122 361.255 54.3851C361.223 54.323 361.209 54.2494 361.205 54.1758C361.209 54.1407 361.21 54.0974 361.218 54.0692L361.238 53.9802C361.353 53.5115 361.516 53.0685 361.677 52.6229C361.841 52.1791 362.012 51.7386 362.19 51.2999L362.187 51.3654C362.108 51.13 362.041 50.8804 361.984 50.6476Z" fill="#697571"/>
<path d="M361.279 52.4717C361.279 52.4717 361.483 51.0023 360.792 51.0515C360.1 51.1007 359.917 52.7238 361.279 52.4717Z" fill="white"/>
<path d="M361.006 52.5938C360.648 52.5938 360.446 52.4465 360.335 52.307C360.116 52.0313 360.136 51.6436 360.252 51.3808C360.362 51.1312 360.562 50.9729 360.785 50.957C360.937 50.9463 361.065 50.9947 361.164 51.1013C361.51 51.4689 361.379 52.4435 361.374 52.485C361.368 52.5257 361.337 52.5578 361.297 52.5651C361.19 52.5848 361.094 52.5938 361.007 52.5938H361.006ZM360.825 51.1453C360.816 51.1453 360.807 51.1453 360.798 51.1462C360.644 51.1573 360.508 51.2703 360.426 51.4569C360.332 51.6675 360.315 51.9753 360.485 52.1889C360.626 52.3665 360.87 52.4354 361.193 52.3896C361.225 52.0908 361.242 51.4608 361.025 51.2301C360.971 51.1727 360.906 51.1445 360.825 51.1445V51.1453Z" fill="#697571"/>
<path d="M391.093 42.7225L400.416 45.4224L407.034 38.0947L391.093 42.7225Z" fill="white"/>
<path d="M400.416 45.5169C400.407 45.5169 400.399 45.5156 400.39 45.513L391.066 42.8131C391.025 42.8015 390.997 42.7643 390.997 42.7219C390.997 42.6795 391.025 42.6427 391.066 42.6307L407.007 38.0038C407.048 37.9919 407.092 38.0086 407.114 38.0445C407.137 38.0805 407.133 38.1267 407.104 38.1584L400.487 45.4856C400.468 45.5057 400.443 45.5169 400.416 45.5169H400.416ZM391.433 42.7223L400.385 45.3144L406.739 38.2791L391.433 42.7223Z" fill="#697571"/>
<path d="M395.738 47.0786L394.437 43.6909L404.74 39.3657L396.076 44.1651L398.025 44.7297L395.738 47.0786Z" fill="white"/>
<path d="M395.738 47.1733C395.732 47.1733 395.725 47.1729 395.719 47.1711C395.688 47.1647 395.661 47.1425 395.65 47.1121L394.348 43.7243C394.33 43.6764 394.353 43.6229 394.4 43.6032L404.704 39.278C404.751 39.2584 404.804 39.2785 404.826 39.3238C404.849 39.3692 404.831 39.4236 404.787 39.4484L396.322 44.1373L398.052 44.6381C398.084 44.6475 398.109 44.6728 398.117 44.7049C398.126 44.737 398.117 44.7712 398.094 44.7952L395.807 47.1442C395.789 47.1626 395.764 47.1729 395.739 47.1729L395.738 47.1733ZM394.559 43.7427L395.774 46.9062L397.846 44.7772L396.049 44.2568C396.013 44.2461 395.986 44.2144 395.982 44.1763C395.977 44.1382 395.996 44.1014 396.03 44.083L403.165 40.1307L394.559 43.7431V43.7427Z" fill="#697571"/>
<path d="M395.857 46.1502C395.853 46.1502 395.85 46.1502 395.846 46.1498C395.794 46.1438 395.756 46.0967 395.762 46.045L395.981 44.1548C395.987 44.1026 396.034 44.0658 396.086 44.0714C396.139 44.0773 396.176 44.1244 396.17 44.1762L395.951 46.0664C395.945 46.1147 395.904 46.1502 395.857 46.1502H395.857Z" fill="#697571"/>
<path d="M370.919 63.0902C370.892 63.0902 370.866 63.0795 370.847 63.0581C370.591 62.7705 370.408 62.4208 370.305 62.0189C370.292 61.9679 370.323 61.9166 370.374 61.9037C370.425 61.8909 370.477 61.9213 370.49 61.9722C370.585 62.3446 370.754 62.6677 370.99 62.9327C371.024 62.9716 371.021 63.0316 370.981 63.0667C370.963 63.0825 370.941 63.0906 370.918 63.0906L370.919 63.0902ZM370.307 60.9612C370.307 60.9612 370.303 60.9612 370.301 60.9612C370.248 60.9578 370.208 60.9129 370.212 60.8607C370.235 60.505 370.299 60.1223 370.403 59.7221C370.416 59.6716 370.468 59.6408 370.519 59.6541C370.57 59.6673 370.601 59.7191 370.587 59.7696C370.486 60.1578 370.424 60.5289 370.402 60.8726C370.399 60.9227 370.357 60.9612 370.307 60.9612ZM370.855 58.7612C370.844 58.7612 370.832 58.7591 370.82 58.7544C370.771 58.7347 370.748 58.6795 370.767 58.6311C370.907 58.2848 371.07 57.9347 371.252 57.5906C371.277 57.5444 371.334 57.5264 371.381 57.5508C371.427 57.5752 371.445 57.6325 371.421 57.6788C371.241 58.0173 371.081 58.3615 370.944 58.7017C370.929 58.7385 370.893 58.7612 370.855 58.7612H370.855ZM371.92 56.7512C371.902 56.7512 371.883 56.7461 371.867 56.7354C371.823 56.7063 371.812 56.6477 371.841 56.604C372.016 56.3421 372.192 56.1079 372.361 55.9072C372.423 55.8344 372.485 55.7634 372.548 55.694C372.583 55.6551 372.643 55.6521 372.682 55.6872C372.722 55.7223 372.725 55.7822 372.689 55.8212C372.628 55.8892 372.567 55.959 372.507 56.0296C372.342 56.2248 372.17 56.4538 371.999 56.7097C371.98 56.7371 371.95 56.7517 371.92 56.7517V56.7512ZM373.437 55.061C373.41 55.061 373.384 55.0494 373.365 55.0276C373.331 54.9878 373.336 54.9279 373.376 54.8941C373.667 54.6492 373.979 54.4198 374.305 54.2118C374.349 54.1836 374.408 54.1964 374.436 54.2405C374.465 54.2846 374.452 54.3432 374.408 54.3715C374.089 54.5748 373.783 54.7995 373.499 55.0387C373.481 55.0537 373.459 55.061 373.437 55.061ZM375.353 53.8343C375.318 53.8343 375.284 53.8146 375.267 53.7804C375.245 53.7333 375.265 53.6764 375.312 53.6541C375.648 53.4936 376.006 53.3464 376.376 53.2162C376.426 53.1987 376.48 53.2248 376.498 53.274C376.515 53.3232 376.489 53.3776 376.44 53.3952C376.077 53.5231 375.725 53.6678 375.395 53.8253C375.381 53.8317 375.368 53.8347 375.353 53.8347V53.8343ZM377.501 53.072C377.458 53.072 377.42 53.0433 377.408 53.0005C377.395 52.9496 377.426 52.8982 377.477 52.8854C377.834 52.7951 378.212 52.7146 378.6 52.6461C378.652 52.6371 378.701 52.6714 378.711 52.7232C378.72 52.7745 378.686 52.8237 378.634 52.8332C378.25 52.9008 377.876 52.98 377.524 53.0694C377.516 53.0716 377.508 53.0724 377.5 53.0724L377.501 53.072ZM379.747 52.6714C379.7 52.6714 379.658 52.6358 379.653 52.5875C379.647 52.5353 379.684 52.4886 379.736 52.4822C380.097 52.4407 380.482 52.4051 380.878 52.3778C380.931 52.3739 380.976 52.4133 380.98 52.4659C380.984 52.5181 380.944 52.5635 380.892 52.5669C380.498 52.5943 380.116 52.629 379.758 52.6705C379.754 52.6705 379.751 52.6709 379.747 52.6709L379.747 52.6714ZM387.74 52.5434H387.739C387.311 52.5395 386.902 52.5284 386.594 52.5194C386.542 52.5177 386.501 52.4741 386.502 52.4218C386.504 52.3696 386.546 52.3294 386.6 52.3298C386.907 52.3388 387.314 52.3499 387.74 52.3538C387.793 52.3542 387.835 52.397 387.835 52.4497C387.834 52.5019 387.792 52.5434 387.74 52.5434ZM388.882 52.5336C388.831 52.5336 388.789 52.4929 388.787 52.4415C388.786 52.3893 388.827 52.3457 388.88 52.3439C389.287 52.332 389.659 52.311 390.016 52.2793C390.069 52.2746 390.114 52.3131 390.119 52.3653C390.124 52.4176 390.085 52.4634 390.033 52.4681C389.672 52.4997 389.297 52.5211 388.886 52.5331C388.885 52.5331 388.884 52.5331 388.883 52.5331L388.882 52.5336ZM382.027 52.5083C381.976 52.5083 381.934 52.4681 381.932 52.4167C381.93 52.3645 381.971 52.3204 382.024 52.3187C382.377 52.3063 382.752 52.2973 383.169 52.2917H383.17C383.222 52.2917 383.264 52.3332 383.265 52.3855C383.266 52.4377 383.224 52.4809 383.171 52.4813C382.755 52.4869 382.382 52.4955 382.03 52.5083C382.029 52.5083 382.028 52.5083 382.027 52.5083H382.027ZM385.455 52.4848C385.455 52.4848 385.453 52.4848 385.453 52.4848C385.156 52.4771 384.922 52.4732 384.717 52.4732L384.699 52.3786V52.4732L384.313 52.4736C384.26 52.4736 384.218 52.4313 384.218 52.379C384.218 52.3268 384.26 52.284 384.313 52.284H384.7L384.718 52.2836C384.924 52.2836 385.159 52.287 385.458 52.2951C385.51 52.2964 385.552 52.3401 385.551 52.3923C385.549 52.4437 385.507 52.4848 385.456 52.4848H385.455ZM391.157 52.3234C391.112 52.3234 391.072 52.2909 391.064 52.2451C391.055 52.1937 391.089 52.1445 391.141 52.1355C391.536 52.0666 391.905 51.9793 392.241 51.8761C392.291 51.8607 392.344 51.8885 392.36 51.9386C392.375 51.9887 392.347 52.0418 392.297 52.0572C391.954 52.1629 391.576 52.2519 391.174 52.3221C391.168 52.323 391.163 52.3234 391.157 52.3234ZM393.325 51.6317C393.291 51.6317 393.258 51.6133 393.241 51.5812C393.216 51.535 393.234 51.4776 393.28 51.4532C393.627 51.2705 393.932 51.0552 394.188 50.8138C394.226 50.7778 394.286 50.7795 394.323 50.8176C394.359 50.8557 394.357 50.9156 394.319 50.9516C394.05 51.2046 393.731 51.4301 393.369 51.621C393.355 51.6287 393.339 51.6321 393.324 51.6321L393.325 51.6317ZM394.941 50.0776C394.926 50.0776 394.911 50.0742 394.897 50.0665C394.851 50.0421 394.832 49.9847 394.857 49.9385C395.024 49.6247 395.145 49.2738 395.218 48.8954C395.228 48.844 395.277 48.8102 395.329 48.8201C395.381 48.8299 395.415 48.8796 395.405 48.9309C395.328 49.3277 395.201 49.6962 395.026 50.0266C395.009 50.0587 394.976 50.0772 394.942 50.0772L394.941 50.0776Z" fill="#697571"/>
</g>
<defs>
<clipPath id="clip0_958_95265">
<rect width="56" height="72" fill="white" transform="translate(351.129 38)"/>
</clipPath>
</defs>
</svg>
