<svg width="760" height="110" viewBox="0 0 760 110" fill="none" xmlns="http://www.w3.org/2000/svg">
<path opacity="0.6" d="M0 85C12.6667 85.0667 25.3333 85.13 38 85.19C152 85.73 266 86 380 86C494 86 608 85.73 722 85.19C734.667 85.13 747.333 85.0667 760 85C747.333 84.9333 734.667 84.87 722 84.81C608 84.27 494 84 380 84C266 84 152 84.27 38 84.81C25.3333 84.87 12.6667 84.9333 0 85Z" fill="black"/>
<g clip-path="url(#clip0_980_89922)">
<path d="M385.881 103.164C385.881 103.164 388.086 107.594 390.563 109.724C390.981 110.083 391.631 109.885 391.787 109.358C391.877 109.053 391.966 108.647 392.038 108.106C392.311 106.083 390.483 100.816 390.483 100.816L389.67 100.555C389.384 100.463 389.081 100.637 389.018 100.929L388.933 101.324L387.955 100.466C387.732 100.271 387.39 100.3 387.206 100.532C386.832 101.004 386.251 101.884 385.881 103.164H385.881Z" fill="white"/>
<path d="M391.053 110C390.853 110 390.657 109.929 390.501 109.795C388.038 107.678 385.818 103.25 385.796 103.206C385.785 103.184 385.783 103.16 385.79 103.137C386.156 101.872 386.722 100.99 387.132 100.473C387.237 100.341 387.388 100.259 387.557 100.244C387.726 100.228 387.891 100.282 388.018 100.394L388.875 101.145L388.926 100.908C388.962 100.743 389.067 100.599 389.214 100.515C389.361 100.43 389.538 100.412 389.7 100.463L390.513 100.724C390.542 100.733 390.565 100.756 390.574 100.784C390.649 100.999 392.406 106.095 392.133 108.117C392.066 108.613 391.981 109.039 391.879 109.383C391.796 109.664 391.578 109.882 391.295 109.965C391.215 109.988 391.134 109.999 391.053 109.999L391.053 110ZM385.983 103.154C386.191 103.563 388.302 107.655 390.625 109.652C390.797 109.8 391.022 109.848 391.241 109.783C391.461 109.719 391.631 109.55 391.696 109.331C391.795 108.995 391.879 108.579 391.944 108.093C392.198 106.213 390.585 101.407 390.409 100.891L389.641 100.644C389.53 100.609 389.409 100.622 389.308 100.68C389.208 100.737 389.136 100.835 389.112 100.948L389.027 101.343C389.02 101.376 388.996 101.402 388.964 101.413C388.931 101.423 388.896 101.417 388.871 101.394L387.892 100.537C387.804 100.459 387.69 100.422 387.573 100.433C387.457 100.443 387.353 100.499 387.281 100.59C386.885 101.089 386.341 101.937 385.983 103.154Z" fill="#697571"/>
<path d="M391.252 109.287C391.227 109.287 391.203 109.277 391.184 109.259C388.666 106.741 386.557 102.798 386.536 102.759C386.511 102.713 386.529 102.656 386.575 102.631C386.622 102.607 386.68 102.624 386.704 102.67C386.725 102.71 388.821 106.627 391.319 109.125C391.356 109.163 391.356 109.223 391.319 109.259C391.3 109.278 391.276 109.287 391.252 109.287V109.287Z" fill="#697571"/>
<path d="M390.178 105.827C390.138 105.827 390.101 105.802 390.088 105.762C390.071 105.713 390.099 105.659 390.148 105.642L391.466 105.21C391.515 105.194 391.569 105.221 391.586 105.271C391.602 105.32 391.575 105.374 391.525 105.391L390.208 105.823C390.198 105.826 390.188 105.827 390.178 105.827H390.178Z" fill="#697571"/>
<path d="M389.312 104.426C389.272 104.426 389.234 104.401 389.222 104.361C389.205 104.312 389.232 104.258 389.282 104.241L390.937 103.699C390.987 103.682 391.041 103.709 391.058 103.759C391.074 103.809 391.047 103.862 390.997 103.879L389.342 104.422C389.332 104.425 389.322 104.426 389.312 104.426H389.312Z" fill="#697571"/>
<path d="M367.878 69.8954C368.048 69.7178 380.126 64.5225 385.063 63.4177C390 62.3126 391.84 62.3023 393.52 65.1114C395.2 67.9205 385.427 83.2487 385.427 83.2487L364.638 77.8535L367.879 69.8954H367.878Z" fill="#697571"/>
<path d="M379.579 75.8153C379.566 75.8153 379.552 75.8127 379.54 75.8071C379.492 75.7857 379.47 75.7296 379.492 75.6817C381.814 70.5207 385.648 66.8333 385.687 66.7965C385.724 66.7601 385.785 66.7614 385.821 66.7995C385.858 66.8371 385.856 66.8975 385.818 66.9334C385.78 66.9698 381.972 70.6332 379.665 75.7592C379.65 75.7943 379.615 75.8153 379.579 75.8153Z" fill="white"/>
<path d="M357.997 76.7609C357.997 76.7609 358.544 82.3479 359.758 83.5095C360.972 84.6716 375.533 83.5095 375.533 83.5095C375.533 83.5095 376.691 85.3971 377.447 90.4421C378.203 95.4872 379.047 102.279 380.299 103.936L391.203 101.592C391.203 101.592 387.586 79.9809 385.075 77.0417C382.563 74.1025 364.286 73.6411 364.286 73.6411L357.997 76.7605V76.7609Z" fill="#697571"/>
<path d="M386.336 79.7878C386.296 79.7878 386.26 79.7634 386.246 79.724C385.789 78.416 385.37 77.5342 385.002 77.1032C384.151 76.1077 380.382 75.2007 374.102 74.4799C374.05 74.4739 374.012 74.4268 374.018 74.375C374.024 74.3228 374.072 74.286 374.124 74.2916C380.543 75.0282 384.252 75.933 385.147 76.9804C385.53 77.4294 385.961 78.3312 386.425 79.6615C386.443 79.7111 386.416 79.7651 386.367 79.7822C386.357 79.7856 386.346 79.7873 386.336 79.7873V79.7878Z" fill="white"/>
<path d="M378.178 58.47C377.791 58.1884 377.246 58.2864 376.983 58.6853C375.624 60.7475 371.865 66.4594 371.821 66.6007L373.705 66.8652L378.389 59.5945C378.628 59.2234 378.536 58.7307 378.178 58.4705V58.47Z" fill="white"/>
<path d="M373.705 66.9599C373.701 66.9599 373.696 66.9599 373.692 66.959L371.808 66.6945C371.78 66.6907 371.755 66.6748 371.741 66.6513C371.726 66.6277 371.722 66.5991 371.73 66.5725C371.774 66.4351 374.568 62.1793 376.904 58.6336C377.045 58.4188 377.263 58.2754 377.517 58.2296C377.771 58.1838 378.026 58.242 378.234 58.394C378.632 58.6833 378.735 59.2329 378.469 59.6455L373.785 66.9162C373.767 66.9436 373.737 66.9599 373.705 66.9599ZM371.973 66.5263L373.658 66.7626L378.309 59.5428C378.52 59.2145 378.438 58.7766 378.122 58.5463C377.956 58.4256 377.753 58.379 377.55 58.4154C377.348 58.4517 377.175 58.566 377.062 58.7368C374.189 63.097 372.336 65.9344 371.973 66.5254L371.973 66.5263Z" fill="#697571"/>
<path d="M352.57 75.6866C352.57 75.6866 350.614 72.964 351.414 66.8656C352.216 60.7671 354.176 57.6015 356.227 56.8782C358.277 56.1548 366.713 57.4757 367.371 67.722L352.57 75.6866Z" fill="white"/>
<path d="M352.57 75.781C352.54 75.781 352.511 75.7668 352.493 75.7411C352.473 75.7138 350.523 72.9179 351.32 66.8525C352.051 61.2912 353.828 57.6231 356.195 56.7881C357.291 56.4016 360.08 56.5963 362.584 58.2416C364.62 59.5787 367.118 62.3074 367.466 67.7154C367.469 67.7522 367.449 67.7873 367.416 67.8048L352.615 75.7694C352.601 75.7771 352.585 75.781 352.57 75.781ZM357.455 56.8056C356.959 56.8056 356.547 56.8651 356.258 56.967C355.21 57.3368 354.234 58.3508 353.437 59.8989C352.536 61.6482 351.887 63.9959 351.509 66.8773C350.791 72.3444 352.315 75.1 352.602 75.5614L367.272 67.6674C366.915 62.3776 364.471 59.7089 362.479 58.4004C360.697 57.2293 358.777 56.806 357.455 56.806V56.8056Z" fill="#697571"/>
<path d="M358.464 71.3763C358.415 71.3763 358.373 71.3382 358.369 71.2882L357.963 65.569C357.959 65.5168 357.999 65.4714 358.051 65.4675C358.103 65.4637 358.149 65.5031 358.152 65.5553L358.559 71.2745C358.563 71.3267 358.523 71.3721 358.471 71.3759C358.468 71.3759 358.466 71.3759 358.464 71.3759L358.464 71.3763Z" fill="#697571"/>
<path d="M351.858 74.1179C351.858 74.1179 352.568 79.2396 359.758 77.5254C366.947 75.8111 370.695 69.1572 370.695 69.1572C370.695 69.1572 374.881 68.2665 374.739 65.5622C374.739 65.5622 373.338 65.9363 372.146 65.5622C370.955 65.1882 369.665 65.5708 369.169 66.0339C365.77 69.2081 354.912 70.16 351.858 74.1179Z" fill="white"/>
<path d="M357.042 77.9721C355.704 77.9721 354.58 77.6661 353.682 77.0553C352.031 75.9326 351.774 74.2034 351.764 74.1302C351.76 74.105 351.767 74.0797 351.782 74.0596C353.463 71.8818 357.442 70.6166 361.291 69.3929C364.52 68.3661 367.571 67.3962 369.104 65.964C369.666 65.4397 370.999 65.1024 372.175 65.4714C373.327 65.8326 374.701 65.474 374.714 65.4701C374.742 65.4628 374.772 65.4684 374.795 65.4851C374.818 65.5018 374.833 65.5283 374.834 65.557C374.973 68.1953 371.223 69.134 370.757 69.2401C370.606 69.4973 369.664 71.0523 367.991 72.764C366.308 74.4863 363.516 76.7261 359.781 77.6169C358.788 77.8535 357.874 77.9717 357.042 77.9717L357.042 77.9721ZM351.959 74.1431C352.006 74.4024 352.343 75.9172 353.792 76.9012C355.202 77.8583 357.202 78.0372 359.736 77.4332C366.803 75.7481 370.575 69.1772 370.612 69.1108C370.625 69.0873 370.648 69.0702 370.675 69.0646C370.716 69.0561 374.66 68.1855 374.647 65.682C374.282 65.7637 373.135 65.9722 372.117 65.6529C370.945 65.2848 369.689 65.6781 369.234 66.1032C367.669 67.5644 364.599 68.5407 361.349 69.574C357.547 70.7827 353.618 72.0321 351.958 74.1431H351.959Z" fill="#697571"/>
<path d="M372.179 66.8127C372.063 66.8127 371.943 66.8101 371.817 66.8054C371.765 66.8032 371.724 66.7592 371.726 66.7069C371.728 66.6547 371.769 66.6141 371.825 66.6162C373.923 66.7005 374.639 66.0088 374.646 66.002C374.683 65.9652 374.743 65.9648 374.78 66.0011C374.818 66.038 374.818 66.0974 374.782 66.1347C374.753 66.1638 374.094 66.8131 372.179 66.8131V66.8127Z" fill="#697571"/>
<path d="M371.961 67.8038C371.914 67.8038 371.868 67.8038 371.819 67.8025C371.767 67.8016 371.725 67.7584 371.726 67.7058C371.727 67.6535 371.772 67.612 371.823 67.6129C373.652 67.6463 374.242 67.0008 374.248 66.9944C374.283 66.955 374.342 66.9507 374.382 66.9854C374.422 67.0197 374.426 67.0796 374.391 67.1194C374.367 67.1481 373.769 67.8042 371.961 67.8042L371.961 67.8038Z" fill="#697571"/>
<path d="M359.496 52.1318C359.442 52.2303 357.142 56.1437 357.142 56.1437L355.556 57.2047C356.141 57.6473 357.175 58.3133 358.62 58.6951C360.095 59.0841 361.347 59.005 362.079 58.9039C362.016 58.7045 361.909 58.4447 361.723 58.1733C361.43 57.7453 361.081 57.4906 360.858 57.3545C361.331 56.5451 361.805 55.7362 362.278 54.9268L359.496 52.1318Z" fill="white"/>
<path d="M360.866 59.0824C360.102 59.0824 359.343 58.9835 358.596 58.7866C357.469 58.4892 356.427 57.9824 355.498 57.2804C355.474 57.262 355.46 57.2329 355.461 57.2021C355.462 57.1717 355.478 57.143 355.503 57.1264L357.071 56.0773C357.244 55.7832 359.361 52.1789 359.413 52.0864C359.427 52.0603 359.453 52.0423 359.483 52.0381C359.512 52.0338 359.542 52.0441 359.563 52.065L362.345 54.86C362.376 54.8904 362.381 54.9375 362.36 54.9743L360.986 57.3228C361.311 57.5351 361.585 57.803 361.802 58.1194C361.96 58.3513 362.084 58.6052 362.17 58.8744C362.179 58.9009 362.175 58.93 362.16 58.9536C362.145 58.9771 362.12 58.9929 362.092 58.9968C361.683 59.0533 361.274 59.0815 360.865 59.0815L360.866 59.0824ZM355.721 57.209C356.602 57.8548 357.585 58.3239 358.645 58.6034C359.729 58.8894 360.84 58.9638 361.952 58.8247C361.875 58.6129 361.771 58.4121 361.645 58.2264C361.426 57.9066 361.145 57.6404 360.808 57.435C360.764 57.408 360.75 57.3511 360.776 57.3065L362.159 54.9417L359.517 52.2867C359.147 52.9202 357.31 56.046 357.225 56.1916C357.218 56.204 357.208 56.2142 357.196 56.2224L355.721 57.209H355.721Z" fill="#697571"/>
<path d="M366.459 49.6315C365.399 48.7648 364.15 49.6696 362.912 48.6068C362.345 48.1197 362.293 47.66 361.612 47.3934C361.161 47.217 360.359 47.0955 359.825 47.5013C359.145 48.0179 359.645 48.823 359.094 50.6288C358.706 51.897 358.169 52.4487 358.471 52.8934C358.776 53.3433 359.484 53.015 359.854 53.4815C360.333 54.085 359.459 55.0297 359.732 55.8823C359.919 56.4682 360.813 57.305 363.062 57.5849C363.186 57.2258 363.485 56.5149 363.679 55.8198C364.287 53.6442 363.956 52.8117 364.503 52.5305C365.34 52.0999 366.351 53.4297 366.974 53.0283C367.62 52.6114 367.548 50.5209 366.459 49.6311L366.459 49.6315Z" fill="#697571"/>
<path d="M362.066 50.6963L362.278 51.3354C362.278 51.3354 361.455 53.3458 361.307 54.1051C361.16 54.8644 363.488 55.4961 363.488 55.4961L363.853 55.2265L364.503 55.3883C364.503 55.3883 364.483 53.1754 365.079 51.7C365.079 51.7 363.98 50.3728 362.066 50.6963H362.066Z" fill="white"/>
<path d="M362.147 50.7456C362.231 50.9387 362.306 51.1154 362.368 51.3063C362.375 51.3286 362.374 51.3517 362.366 51.3718C362.189 51.8075 362.019 52.2471 361.855 52.6884C361.696 53.1297 361.534 53.5753 361.423 54.023L361.404 54.1064C361.397 54.1355 361.4 54.1522 361.396 54.1753C361.4 54.219 361.406 54.2635 361.428 54.3072C361.469 54.3949 361.542 54.4771 361.624 54.5499C361.791 54.6954 361.994 54.8114 362.201 54.9145C362.618 55.1178 363.065 55.2766 363.513 55.4055L363.431 55.4209L363.796 55.1512L363.802 55.1474C363.824 55.132 363.852 55.1285 363.876 55.1354L364.519 55.325L364.436 55.3896C364.434 55.0737 364.446 54.7609 364.465 54.4471C364.485 54.1338 364.515 53.8205 364.554 53.5085C364.596 53.1965 364.649 52.8857 364.717 52.5771C364.789 52.2694 364.876 51.9642 364.99 51.6659L365.005 51.7613C364.833 51.57 364.619 51.3954 364.394 51.2524C364.168 51.1077 363.925 50.9896 363.67 50.907C363.416 50.8239 363.152 50.7653 362.884 50.7525C362.75 50.7371 362.616 50.7461 362.482 50.7482C362.408 50.7473 362.366 50.7593 362.313 50.7572C362.262 50.7572 362.207 50.7503 362.147 50.7456H362.147ZM361.984 50.6476C362.06 50.6262 362.143 50.6035 362.229 50.5868C362.313 50.571 362.408 50.5564 362.473 50.5586C362.615 50.556 362.756 50.547 362.898 50.5629C363.182 50.577 363.462 50.6386 363.731 50.7268C364.002 50.8145 364.259 50.9391 364.497 51.0923C364.737 51.2464 364.956 51.421 365.152 51.6402C365.175 51.6654 365.18 51.7001 365.169 51.7296L365.167 51.7356C365.053 52.0203 364.963 52.316 364.889 52.6161C364.818 52.9174 364.761 53.2226 364.715 53.5295C364.671 53.8372 364.637 54.1462 364.612 54.4565C364.588 54.7664 364.572 55.0785 364.569 55.3879C364.569 55.4247 364.539 55.4547 364.502 55.4543C364.497 55.4543 364.491 55.4534 364.487 55.4525L363.83 55.3186L363.91 55.3027L363.544 55.5724L363.543 55.5732C363.519 55.5908 363.489 55.5951 363.462 55.5878C363 55.4547 362.551 55.2955 362.117 55.084C361.901 54.9762 361.688 54.8567 361.498 54.6915C361.404 54.6081 361.314 54.5122 361.255 54.3851C361.223 54.323 361.209 54.2494 361.205 54.1758C361.209 54.1407 361.21 54.0974 361.218 54.0692L361.238 53.9802C361.354 53.5115 361.516 53.0685 361.677 52.6229C361.841 52.1791 362.012 51.7386 362.19 51.2999L362.188 51.3654C362.108 51.13 362.041 50.8804 361.984 50.6476Z" fill="#697571"/>
<path d="M361.279 52.4717C361.279 52.4717 361.483 51.0023 360.792 51.0515C360.1 51.1007 359.917 52.7238 361.279 52.4717Z" fill="white"/>
<path d="M361.006 52.5938C360.648 52.5938 360.446 52.4465 360.336 52.307C360.116 52.0313 360.136 51.6436 360.252 51.3808C360.362 51.1312 360.562 50.9729 360.785 50.957C360.937 50.9463 361.065 50.9947 361.164 51.1013C361.51 51.4689 361.379 52.4435 361.374 52.485C361.368 52.5257 361.337 52.5578 361.297 52.5651C361.19 52.5848 361.094 52.5938 361.007 52.5938H361.006ZM360.825 51.1453C360.816 51.1453 360.808 51.1453 360.799 51.1462C360.644 51.1573 360.508 51.2703 360.426 51.4569C360.333 51.6675 360.315 51.9753 360.485 52.1889C360.626 52.3665 360.87 52.4354 361.193 52.3896C361.225 52.0908 361.242 51.4608 361.025 51.2301C360.971 51.1727 360.906 51.1445 360.825 51.1445V51.1453Z" fill="#697571"/>
<path d="M391.093 42.7225L400.417 45.4224L407.034 38.0947L391.093 42.7225Z" fill="white"/>
<path d="M400.417 45.5169C400.408 45.5169 400.399 45.5156 400.39 45.513L391.066 42.8131C391.026 42.8015 390.998 42.7643 390.998 42.7219C390.998 42.6795 391.026 42.6427 391.066 42.6307L407.007 38.0038C407.048 37.9919 407.092 38.0086 407.114 38.0445C407.137 38.0805 407.133 38.1267 407.104 38.1584L400.487 45.4856C400.469 45.5057 400.443 45.5169 400.416 45.5169H400.417ZM391.433 42.7223L400.386 45.3144L406.739 38.2791L391.433 42.7223Z" fill="#697571"/>
<path d="M395.739 47.0786L394.437 43.6909L404.741 39.3657L396.076 44.1651L398.025 44.7297L395.739 47.0786Z" fill="white"/>
<path d="M395.738 47.1733C395.732 47.1733 395.726 47.1729 395.72 47.1711C395.688 47.1647 395.662 47.1425 395.65 47.1121L394.349 43.7243C394.33 43.6764 394.353 43.6229 394.401 43.6032L404.704 39.278C404.751 39.2584 404.805 39.2785 404.826 39.3238C404.849 39.3692 404.831 39.4236 404.787 39.4484L396.322 44.1373L398.052 44.6381C398.084 44.6475 398.109 44.6728 398.118 44.7049C398.126 44.737 398.117 44.7712 398.094 44.7952L395.807 47.1442C395.789 47.1626 395.764 47.1729 395.739 47.1729L395.738 47.1733ZM394.559 43.7427L395.774 46.9062L397.847 44.7772L396.05 44.2568C396.013 44.2461 395.986 44.2144 395.982 44.1763C395.978 44.1382 395.996 44.1014 396.03 44.083L403.165 40.1307L394.559 43.7431V43.7427Z" fill="#697571"/>
<path d="M395.857 46.1502C395.853 46.1502 395.85 46.1502 395.846 46.1498C395.794 46.1438 395.756 46.0967 395.762 46.045L395.981 44.1548C395.987 44.1026 396.035 44.0658 396.087 44.0714C396.139 44.0773 396.177 44.1244 396.171 44.1762L395.951 46.0664C395.946 46.1147 395.904 46.1502 395.857 46.1502H395.857Z" fill="#697571"/>
<path d="M370.919 63.0902C370.893 63.0902 370.866 63.0795 370.848 63.0581C370.591 62.7705 370.409 62.4208 370.305 62.0189C370.293 61.9679 370.323 61.9166 370.374 61.9037C370.425 61.8909 370.477 61.9213 370.49 61.9722C370.585 62.3446 370.754 62.6677 370.99 62.9327C371.025 62.9716 371.021 63.0316 370.982 63.0667C370.964 63.0825 370.941 63.0906 370.918 63.0906L370.919 63.0902ZM370.307 60.9612C370.307 60.9612 370.303 60.9612 370.301 60.9612C370.249 60.9578 370.209 60.9129 370.212 60.8607C370.235 60.505 370.299 60.1223 370.403 59.7221C370.416 59.6716 370.468 59.6408 370.519 59.6541C370.57 59.6673 370.601 59.7191 370.587 59.7696C370.486 60.1578 370.424 60.5289 370.402 60.8726C370.399 60.9227 370.357 60.9612 370.307 60.9612ZM370.856 58.7612C370.844 58.7612 370.832 58.7591 370.82 58.7544C370.771 58.7347 370.748 58.6795 370.767 58.6311C370.907 58.2848 371.07 57.9347 371.252 57.5906C371.277 57.5444 371.335 57.5264 371.381 57.5508C371.427 57.5752 371.445 57.6325 371.421 57.6788C371.242 58.0173 371.081 58.3615 370.944 58.7017C370.929 58.7385 370.893 58.7612 370.855 58.7612H370.856ZM371.92 56.7512C371.902 56.7512 371.884 56.7461 371.867 56.7354C371.823 56.7063 371.812 56.6477 371.841 56.604C372.016 56.3421 372.192 56.1079 372.362 55.9072C372.423 55.8344 372.485 55.7634 372.548 55.694C372.583 55.6551 372.644 55.6521 372.683 55.6872C372.722 55.7223 372.725 55.7822 372.69 55.8212C372.628 55.8892 372.567 55.959 372.507 56.0296C372.342 56.2248 372.171 56.4538 371.999 56.7097C371.981 56.7371 371.951 56.7517 371.92 56.7517V56.7512ZM373.438 55.061C373.411 55.061 373.384 55.0494 373.365 55.0276C373.331 54.9878 373.336 54.9279 373.376 54.8941C373.667 54.6492 373.979 54.4198 374.305 54.2118C374.349 54.1836 374.408 54.1964 374.437 54.2405C374.465 54.2846 374.452 54.3432 374.408 54.3715C374.089 54.5748 373.783 54.7995 373.499 55.0387C373.481 55.0537 373.46 55.061 373.438 55.061ZM375.354 53.8343C375.318 53.8343 375.284 53.8146 375.268 53.7804C375.245 53.7333 375.265 53.6764 375.312 53.6541C375.649 53.4936 376.007 53.3464 376.376 53.2162C376.426 53.1987 376.48 53.2248 376.498 53.274C376.516 53.3232 376.489 53.3776 376.44 53.3952C376.077 53.5231 375.725 53.6678 375.395 53.8253C375.382 53.8317 375.368 53.8347 375.354 53.8347V53.8343ZM377.501 53.072C377.458 53.072 377.42 53.0433 377.409 53.0005C377.396 52.9496 377.427 52.8982 377.477 52.8854C377.834 52.7951 378.212 52.7146 378.601 52.6461C378.652 52.6371 378.702 52.6714 378.711 52.7232C378.72 52.7745 378.686 52.8237 378.634 52.8332C378.25 52.9008 377.876 52.98 377.524 53.0694C377.516 53.0716 377.508 53.0724 377.501 53.0724L377.501 53.072ZM379.748 52.6714C379.7 52.6714 379.659 52.6358 379.653 52.5875C379.647 52.5353 379.684 52.4886 379.736 52.4822C380.098 52.4407 380.482 52.4051 380.879 52.3778C380.931 52.3739 380.977 52.4133 380.98 52.4659C380.984 52.5181 380.944 52.5635 380.892 52.5669C380.498 52.5943 380.116 52.629 379.758 52.6705C379.755 52.6705 379.751 52.6709 379.747 52.6709L379.748 52.6714ZM387.74 52.5434H387.739C387.311 52.5395 386.902 52.5284 386.595 52.5194C386.542 52.5177 386.501 52.4741 386.502 52.4218C386.504 52.3696 386.546 52.3294 386.6 52.3298C386.907 52.3388 387.314 52.3499 387.741 52.3538C387.793 52.3542 387.836 52.397 387.835 52.4497C387.834 52.5019 387.792 52.5434 387.74 52.5434ZM388.883 52.5336C388.831 52.5336 388.789 52.4929 388.788 52.4415C388.786 52.3893 388.827 52.3457 388.88 52.3439C389.287 52.332 389.659 52.311 390.016 52.2793C390.069 52.2746 390.115 52.3131 390.119 52.3653C390.124 52.4176 390.085 52.4634 390.033 52.4681C389.672 52.4997 389.297 52.5211 388.886 52.5331C388.885 52.5331 388.884 52.5331 388.883 52.5331L388.883 52.5336ZM382.027 52.5083C381.976 52.5083 381.934 52.4681 381.932 52.4167C381.931 52.3645 381.971 52.3204 382.024 52.3187C382.377 52.3063 382.752 52.2973 383.169 52.2917H383.17C383.222 52.2917 383.265 52.3332 383.265 52.3855C383.266 52.4377 383.224 52.4809 383.171 52.4813C382.756 52.4869 382.382 52.4955 382.03 52.5083C382.029 52.5083 382.028 52.5083 382.027 52.5083H382.027ZM385.455 52.4848C385.455 52.4848 385.454 52.4848 385.453 52.4848C385.156 52.4771 384.923 52.4732 384.718 52.4732L384.7 52.3786V52.4732L384.313 52.4736C384.261 52.4736 384.218 52.4313 384.218 52.379C384.218 52.3268 384.261 52.284 384.313 52.284H384.7L384.718 52.2836C384.924 52.2836 385.16 52.287 385.458 52.2951C385.51 52.2964 385.552 52.3401 385.551 52.3923C385.55 52.4437 385.507 52.4848 385.456 52.4848H385.455ZM391.158 52.3234C391.112 52.3234 391.072 52.2909 391.064 52.2451C391.055 52.1937 391.089 52.1445 391.141 52.1355C391.536 52.0666 391.906 51.9793 392.241 51.8761C392.291 51.8607 392.344 51.8885 392.36 51.9386C392.375 51.9887 392.347 52.0418 392.297 52.0572C391.954 52.1629 391.577 52.2519 391.174 52.3221C391.169 52.323 391.163 52.3234 391.158 52.3234ZM393.325 51.6317C393.291 51.6317 393.258 51.6133 393.241 51.5812C393.216 51.535 393.234 51.4776 393.28 51.4532C393.627 51.2705 393.932 51.0552 394.188 50.8138C394.227 50.7778 394.287 50.7795 394.323 50.8176C394.359 50.8557 394.357 50.9156 394.319 50.9516C394.05 51.2046 393.731 51.4301 393.369 51.621C393.355 51.6287 393.34 51.6321 393.325 51.6321L393.325 51.6317ZM394.941 50.0776C394.926 50.0776 394.911 50.0742 394.897 50.0665C394.851 50.0421 394.833 49.9847 394.858 49.9385C395.024 49.6247 395.145 49.2738 395.218 48.8954C395.228 48.844 395.278 48.8102 395.329 48.8201C395.381 48.8299 395.415 48.8796 395.405 48.9309C395.328 49.3277 395.201 49.6962 395.026 50.0266C395.009 50.0587 394.976 50.0772 394.942 50.0772L394.941 50.0776Z" fill="#697571"/>
</g>
<g clip-path="url(#clip1_980_89922)">
<path d="M104.618 30.9953C104.874 30.9752 106.132 33.563 110.069 33.4549C114.007 33.3463 117.165 28.9214 117.165 28.9214C117.165 28.9214 118.525 26.6182 119.557 25.7857C120.589 24.9532 120.751 24.8433 120.751 24.8433C120.751 24.8433 121.074 25.2763 120.751 25.7857C120.427 26.2951 119.534 27.2483 119.534 27.2483C119.534 27.2483 120.518 27.7908 120.074 28.9214C119.564 30.2213 118.125 30.1168 118.125 30.1168C118.125 30.1168 115.206 43.0983 103.142 36.9297L104.618 30.9958V30.9953Z" fill="white"/>
<path d="M109.125 38.6971C107.293 38.6971 105.277 38.1385 103.095 37.0227C103.052 37.0004 103.029 36.9512 103.041 36.9038L104.517 30.9699C104.527 30.9261 104.565 30.8943 104.61 30.8908C104.712 30.8841 104.797 30.9757 104.998 31.2009C105.595 31.8694 106.992 33.4343 110.067 33.3499C113.906 33.2444 117.049 28.904 117.081 28.8597C117.132 28.7726 118.457 26.5383 119.492 25.7035C120.515 24.8777 120.686 24.7606 120.693 24.7557C120.739 24.7244 120.801 24.7351 120.834 24.7798C120.85 24.7999 121.197 25.2772 120.839 25.8416C120.569 26.2666 119.925 26.9784 119.694 27.2296C119.952 27.4226 120.55 27.996 120.172 28.9594C119.715 30.1235 118.54 30.2196 118.207 30.2223C118.026 30.9359 116.599 36.036 112.529 37.9549C111.48 38.4496 110.343 38.6967 109.125 38.6967L109.125 38.6971ZM103.263 36.8739C106.804 38.6667 109.89 38.967 112.438 37.7667C116.704 35.7558 118.011 30.1503 118.024 30.0936C118.036 30.0431 118.082 30.0078 118.133 30.0122C118.189 30.0162 119.502 30.0936 119.978 28.8825C120.381 27.8543 119.521 27.3601 119.484 27.3395C119.456 27.3239 119.436 27.2962 119.431 27.264C119.426 27.2323 119.436 27.1996 119.458 27.1759C119.467 27.1666 120.349 26.2241 120.663 25.7285C120.863 25.413 120.784 25.1342 120.719 24.9961C120.589 25.0949 120.288 25.3295 119.623 25.8666C118.617 26.6777 117.269 28.9514 117.255 28.9741C117.218 29.0264 114.016 33.4504 110.072 33.559C109.99 33.5613 109.907 33.5626 109.827 33.5626C106.826 33.5626 105.443 32.0124 104.843 31.3403C104.786 31.2769 104.728 31.2125 104.683 31.1656L103.263 36.8735L103.263 36.8739Z" fill="#697571"/>
<path d="M85.104 36.9289C85.104 36.9289 86.2856 29.2692 90.4596 27.3843C94.6341 25.4998 100.281 25.7617 101.838 26.7028C103.395 27.6439 107.455 31.8994 107.455 31.8994L103.955 38.5917C103.955 38.5917 100.991 45.3176 102.475 46.9469C102.475 46.9469 100.05 54.5097 98.3574 53.8403C96.665 53.1709 91.773 50.3453 89.8564 45.9982L88.9243 36.3194L85.104 36.9294V36.9289Z" fill="white"/>
<path d="M98.5763 53.9871C98.4883 53.9871 98.4024 53.9705 98.3192 53.9379C96.7243 53.3069 91.7281 50.5019 89.7608 46.0408C89.7563 46.0306 89.7536 46.0198 89.7523 46.0087L88.8309 36.4408L85.1201 37.0333C85.0867 37.0391 85.0538 37.0275 85.0302 37.0043C85.0066 36.9806 84.9955 36.9471 85.0008 36.914C85.0493 36.5989 86.239 29.1765 90.417 27.2898C94.53 25.433 100.214 25.5997 101.892 26.6141C103.443 27.5516 107.364 31.6539 107.53 31.8277C107.561 31.8604 107.568 31.9091 107.547 31.9488L104.047 38.6411C104.021 38.7015 101.13 45.3165 102.552 46.8769C102.577 46.9046 102.586 46.944 102.574 46.9797C102.494 47.23 100.59 53.1152 98.9452 53.8973C98.8188 53.9576 98.6951 53.9875 98.5759 53.9875L98.5763 53.9871ZM89.9587 45.9711C91.902 50.3594 96.823 53.1206 98.3957 53.7426C98.5376 53.7989 98.688 53.7873 98.8562 53.7073C100.339 53.0026 102.156 47.5834 102.358 46.9708C100.938 45.2378 103.739 38.8244 103.86 38.55L107.327 31.9184C106.849 31.4202 103.217 27.6593 101.785 26.7933C100.319 25.9076 94.68 25.5948 90.5028 27.4806C86.7386 29.1796 85.4204 35.749 85.2317 36.8032L88.9083 36.2164C88.9368 36.2115 88.9657 36.2191 88.9884 36.237C89.0111 36.2549 89.0258 36.2808 89.0285 36.3098L89.9587 45.9716V45.9711Z" fill="#697571"/>
<path d="M93.0676 45.908L93.8052 32.7812C93.8097 32.4309 94.094 32.1489 94.4428 32.1489H101.962C102.312 32.1489 102.596 32.4313 102.6 32.7826L102.745 46.173L93.0671 45.908H93.0676Z" fill="#697571"/>
<path d="M94.9419 33.5158C94.9321 33.5158 94.9228 33.5158 94.913 33.5149C94.606 33.4988 94.3702 33.2365 94.3858 32.9281C94.5437 29.8448 93.8599 28.4715 93.258 27.8624C92.7192 27.3168 91.6657 26.9137 91.6635 26.9124C91.3551 26.9258 92.2387 26.5737 92.5457 26.5603C92.6498 26.5558 93.165 26.1809 94.0481 27.0751C95.1528 28.194 95.6404 30.1826 95.4971 32.9853C95.482 33.2839 95.236 33.5153 94.9419 33.5153V33.5158Z" fill="#697571"/>
<path d="M101.728 33.5154C101.718 33.5154 101.707 33.5154 101.697 33.5145C101.39 33.4976 101.156 33.2335 101.172 32.9256C101.507 26.5385 99.5128 26.3499 99.5795 26.0483C99.6463 25.7466 100.476 26.1305 100.777 26.1975C101.18 26.2873 102.34 26.6529 102.283 32.9872C102.28 33.2853 102.021 33.515 101.728 33.515V33.5154Z" fill="#697571"/>
<path d="M103.566 42.2838H95.4436L97.9875 33.1699H106.11L103.566 42.2838Z" fill="white"/>
<path d="M103.566 42.3885H95.443C95.4106 42.3885 95.3799 42.3733 95.3599 42.3469C95.3403 42.3205 95.3336 42.287 95.3425 42.2553L97.8869 33.1418C97.8993 33.0967 97.9407 33.0654 97.9874 33.0654H106.11C106.143 33.0654 106.173 33.0806 106.193 33.107C106.213 33.1334 106.22 33.1669 106.211 33.1986L103.666 42.312C103.654 42.3572 103.613 42.3885 103.566 42.3885ZM95.581 42.1789H103.487L105.973 33.2746H98.0666L95.581 42.1789Z" fill="#697571"/>
<path d="M85.8204 36.9588L89.9312 35.1128C89.9312 35.1128 89.352 42.109 97.6697 38.8786C97.6697 38.8786 97.3632 37.9795 97.4064 36.9293C97.4495 35.8792 98.075 36.8954 98.1627 37.7489C98.2503 38.6024 100.203 38.2561 101.377 37.9196C102.55 37.5831 104.09 37.8034 101.377 39.3071C98.6627 40.8108 98.0684 40.1401 98.0684 40.1401C98.0684 40.1401 94.6026 45.0109 90.2907 43.9764C84.9867 42.7033 85.8204 36.9588 85.8204 36.9588Z" fill="white"/>
<path d="M91.4937 44.2234C91.0938 44.2234 90.684 44.1783 90.2663 44.0782C87.4777 43.4088 86.3886 41.5015 85.9664 40.0193C85.5108 38.4208 85.7088 37.0038 85.7172 36.9439C85.7226 36.9086 85.7453 36.8782 85.7777 36.8635L89.8886 35.0179C89.9224 35.0027 89.9615 35.0067 89.9913 35.0282C90.0211 35.0496 90.038 35.0854 90.0349 35.122C90.0327 35.1475 89.845 37.6893 91.5035 38.9343C92.7866 39.8977 94.8175 39.858 97.5407 38.8163C97.4629 38.5544 97.2662 37.7957 97.3023 36.9251C97.3076 36.7915 97.3245 36.3849 97.5697 36.3773C97.5714 36.3773 97.5737 36.3773 97.5755 36.3773C97.8958 36.3773 98.2099 37.1866 98.2664 37.7385C98.2784 37.8551 98.3336 37.9454 98.4359 38.0151C98.9239 38.3466 100.309 38.117 101.348 37.8193C101.891 37.6634 102.812 37.5597 102.97 37.944C103.105 38.2729 102.6 38.7488 101.426 39.399C99.198 40.6337 98.3549 40.4362 98.0893 40.2856C97.6466 40.8661 94.9372 44.2234 91.4933 44.2234H91.4937ZM85.9165 37.0302C85.8849 37.3099 85.7733 38.5871 86.1683 39.9679C86.7614 42.0422 88.1566 43.3565 90.3143 43.874C90.7156 43.9705 91.1107 44.0138 91.4955 44.0138C95.137 44.0143 97.9518 40.1221 97.983 40.0787C98.0012 40.0528 98.0306 40.0367 98.0622 40.0349C98.0951 40.0331 98.1245 40.0461 98.1458 40.0698C98.1498 40.0733 98.7593 40.6368 101.326 39.2149C102.863 38.3636 102.791 38.0553 102.778 38.0231C102.712 37.8622 102.084 37.8251 101.405 38.02C100.855 38.1777 99.0071 38.6559 98.3189 38.1876C98.1649 38.083 98.0773 37.9386 98.0591 37.759C97.9945 37.1329 97.68 36.6012 97.5759 36.586C97.5777 36.5891 97.5225 36.6432 97.5105 36.9332C97.4687 37.9521 97.7654 38.8355 97.7685 38.844C97.7868 38.8972 97.7596 38.9553 97.7076 38.9754C94.866 40.0792 92.7368 40.1212 91.3781 39.1001C89.8672 37.9646 89.8027 35.8933 89.8192 35.2771L85.917 37.0293L85.9165 37.0302Z" fill="#697571"/>
<path d="M96.7931 23.894C96.4381 24.2207 95.7441 24.6193 95.2004 24.3445C94.796 24.1398 94.57 23.6098 94.5838 23.0025C94.3965 23.0177 94.1509 23.0048 93.9756 22.8492C93.706 22.6097 93.7563 22.1691 93.767 21.8795C93.8155 20.543 93.0427 20.3378 93.2318 19.4307C93.3804 18.7179 93.9378 18.293 94.0419 18.2139C94.5682 17.813 94.9246 17.9422 95.8095 17.7094C97.2985 17.3175 98.6746 20.0764 98.0962 20.5993C97.081 21.5167 97.8475 22.9243 96.7927 23.894H96.7931Z" fill="#697571"/>
<path d="M99.7645 21.5096L99.7058 21.4586C99.4113 21.2035 99.1043 20.9076 99.026 20.5247C98.6937 18.8976 97.2099 18.3073 97.1414 19.8012C97.1241 20.1784 95.7533 20.1587 95.9162 20.5546C96.3402 21.5864 96.3495 21.3085 95.7511 21.6888C95.6831 21.6914 95.6159 21.7066 95.5527 21.7361C95.2457 21.88 95.1372 22.2983 95.3102 22.671C95.4152 22.8971 95.5999 23.0526 95.7974 23.1094V24.7391C95.7974 25.35 95.4295 25.9005 94.8662 26.1315L94.3181 26.3563C94.3181 26.3563 96.8731 28.0312 99.4664 26.1923L99.1203 26.0364C98.5108 25.762 98.1108 25.1618 98.0895 24.4911L98.0868 24.1725C98.2612 24.1881 98.4303 24.176 98.586 24.1305C99.3112 23.9186 99.5523 23.079 99.4291 22.0355L99.7245 21.876C99.8624 21.8018 99.8829 21.6115 99.7645 21.5091V21.5096Z" fill="white"/>
<path d="M96.8447 27.1533C95.3698 27.1533 94.2781 26.4549 94.2616 26.4437C94.2291 26.4223 94.2109 26.3847 94.2149 26.3459C94.2185 26.307 94.2434 26.2735 94.2794 26.2587L94.8275 26.0339C95.3538 25.8181 95.6937 25.3091 95.6937 24.7385V23.1829C95.4917 23.1011 95.3169 22.9304 95.2164 22.7141C95.0197 22.2896 95.151 21.8079 95.5095 21.6403C95.5745 21.6099 95.6452 21.5912 95.7191 21.5849C95.8183 21.5228 95.8993 21.4795 95.9656 21.4437C96.0452 21.4012 96.1137 21.3642 96.1155 21.3436C96.1204 21.2944 96.0612 21.1573 95.9789 20.9669C95.9353 20.8659 95.8824 20.7435 95.8205 20.5929C95.7912 20.5218 95.7921 20.4503 95.8232 20.3864C95.9051 20.2175 96.1693 20.1429 96.4754 20.0571C96.6974 19.9945 97.0329 19.9002 97.0378 19.7952C97.0756 18.9743 97.5022 18.8523 97.6842 18.838C98.2065 18.7951 98.9077 19.4216 99.1288 20.5026C99.2013 20.8579 99.5003 21.1407 99.7743 21.378L99.833 21.429C99.9149 21.4996 99.9563 21.6064 99.9447 21.7141C99.9327 21.8218 99.8691 21.9165 99.7743 21.9674L99.5412 22.0934C99.6604 23.2459 99.3254 24.023 98.6158 24.2304C98.4854 24.2684 98.3426 24.2862 98.1927 24.2822L98.1945 24.4891C98.2141 25.1129 98.5944 25.6831 99.1635 25.9397L99.5096 26.0956C99.5439 26.1108 99.567 26.1434 99.5705 26.181C99.5741 26.2185 99.5576 26.2547 99.5269 26.2766C98.5936 26.9384 97.6606 27.152 96.8447 27.152V27.1533ZM94.5566 26.3718C95.1616 26.6908 97.1908 27.5631 99.2538 26.2113L99.078 26.1323C98.4365 25.8436 98.0081 25.2005 97.9858 24.4949L97.9827 24.1741C97.9827 24.1446 97.9947 24.1164 98.0161 24.0963C98.0379 24.0762 98.0664 24.0659 98.0962 24.0691C98.2639 24.0843 98.4192 24.0713 98.5571 24.0311C99.1728 23.851 99.4531 23.1284 99.3254 22.0488C99.3205 22.0059 99.3419 21.9643 99.3797 21.9442L99.6751 21.7847C99.7102 21.7659 99.7325 21.7324 99.7369 21.6926C99.7414 21.6528 99.7267 21.6153 99.6965 21.5889L99.6377 21.538C99.3374 21.2779 99.01 20.9656 98.9241 20.5459C98.7324 19.6075 98.1344 19.0154 97.7002 19.048C97.4324 19.069 97.2669 19.3452 97.246 19.8059C97.2344 20.062 96.8927 20.1581 96.5315 20.2599C96.3286 20.3171 96.0514 20.3953 96.0105 20.4794C96.0083 20.4843 96.0038 20.4928 96.0132 20.5142C96.0746 20.663 96.1271 20.7846 96.1702 20.8847C96.3744 21.3575 96.4113 21.4428 96.0639 21.6296C95.9958 21.6662 95.9108 21.7118 95.8076 21.7771C95.7921 21.7869 95.7743 21.7927 95.756 21.7932C95.6991 21.7954 95.6457 21.8083 95.5972 21.8307C95.3427 21.9496 95.2564 22.3066 95.405 22.6261C95.4926 22.8147 95.6501 22.9577 95.8263 23.0082C95.8712 23.0211 95.9019 23.0623 95.9019 23.1087V24.7385C95.9019 25.3949 95.5109 25.9794 94.9063 26.2279L94.557 26.3713L94.5566 26.3718Z" fill="#697571"/>
<path d="M98.0873 24.2777C98.082 24.2777 98.0767 24.2777 98.0713 24.2763C97.0267 24.1154 96.5578 23.3151 96.5382 23.2811C96.5098 23.2311 96.5267 23.1672 96.5765 23.1386C96.6263 23.1095 96.6899 23.127 96.7189 23.177C96.7233 23.1846 97.1606 23.9246 98.1029 24.0699C98.1599 24.0788 98.199 24.132 98.1901 24.1892C98.1821 24.241 98.1381 24.2781 98.0873 24.2781V24.2777Z" fill="#697571"/>
<path d="M99.4967 18.369C99.4464 18.2354 99.3886 18.1027 99.3209 17.9731C98.4289 16.2669 96.329 15.6105 94.6309 16.506C92.9327 17.402 92.2787 19.5108 93.1707 21.2169C93.2388 21.347 93.3144 21.4698 93.3954 21.5874L99.4967 18.369Z" fill="white"/>
<path d="M93.3955 21.6921C93.3621 21.6921 93.3301 21.676 93.3096 21.647C93.2211 21.5188 93.1455 21.3941 93.0783 21.2654C92.6338 20.4154 92.5458 19.443 92.8296 18.5265C93.1139 17.61 93.7363 16.8597 94.582 16.4133C95.4278 15.9668 96.3963 15.8784 97.3088 16.1639C98.2213 16.449 98.9683 17.0742 99.4127 17.9241C99.479 18.051 99.5399 18.1887 99.5938 18.3321C99.6125 18.3817 99.5911 18.4371 99.5448 18.4617L93.4436 21.6801C93.428 21.6881 93.4115 21.6921 93.3951 21.6921H93.3955ZM96.2419 16.2095C95.7036 16.2095 95.1697 16.3404 94.6795 16.5992C93.8827 17.0192 93.2967 17.7262 93.0289 18.5891C92.7615 19.452 92.8443 20.3681 93.2629 21.1684C93.3128 21.2636 93.3675 21.3565 93.4293 21.4513L99.3655 18.3201C99.3233 18.2159 99.2775 18.1158 99.2285 18.022C98.8103 17.2217 98.1065 16.6331 97.2474 16.3646C96.9168 16.2613 96.5783 16.2099 96.2419 16.2099V16.2095Z" fill="#697571"/>
<path d="M93.3389 22.317L93.3954 21.5877L99.4967 18.3694L100.917 18.3193L93.3389 22.317Z" fill="white"/>
<path d="M93.339 22.4215C93.319 22.4215 93.2989 22.4157 93.2816 22.4041C93.25 22.3831 93.2322 22.3464 93.2349 22.3084L93.2914 21.5792C93.2941 21.5434 93.315 21.5112 93.347 21.4947L99.4483 18.2763C99.4621 18.2692 99.4776 18.2652 99.4932 18.2643L100.914 18.2147C100.962 18.2107 101.006 18.2451 101.018 18.2924C101.031 18.3394 101.009 18.389 100.966 18.4117L93.3875 22.4094C93.3724 22.4175 93.3554 22.4215 93.339 22.4215ZM93.4951 21.6533L93.4578 22.1364L100.465 18.4403L99.5244 18.473L93.4951 21.6533Z" fill="#697571"/>
<path d="M94.6172 23.3072C94.5714 23.3072 94.5256 23.2902 94.49 23.2563C94.4157 23.1856 94.4126 23.0677 94.4829 22.993C95.249 22.1806 95.0612 21.3843 95.0594 21.3763C95.0345 21.2766 95.095 21.1752 95.1942 21.1502C95.2939 21.1251 95.3944 21.1859 95.4194 21.2856C95.4296 21.3262 95.6569 22.2897 94.7525 23.2491C94.716 23.288 94.667 23.3072 94.6177 23.3072H94.6172Z" fill="white"/>
<path d="M98.8801 18.7993C98.8458 18.7993 98.812 18.7823 98.7924 18.7511C97.2473 16.3299 94.5014 17.5146 94.4738 17.5266C94.4289 17.5467 94.3768 17.5324 94.3475 17.4931L93.9573 16.9609C93.923 16.9144 93.9333 16.8487 93.9796 16.8143C94.0258 16.7799 94.0912 16.7902 94.1255 16.8367L94.468 17.3041C94.945 17.1236 97.4791 16.3053 98.9677 18.6384C98.9989 18.6872 98.9846 18.752 98.9361 18.7832C98.9188 18.7944 98.8992 18.7998 98.8801 18.7998V18.7993Z" fill="#697571"/>
<path d="M89.8533 79.8306L90.1478 82.6463L92.0435 82.8698V79.5308L89.8533 79.8306Z" fill="white"/>
<path d="M92.0435 82.9744C92.0395 82.9744 92.0355 82.9744 92.0315 82.9735L90.1358 82.75C90.0873 82.7442 90.0495 82.7058 90.0441 82.6571L89.7501 79.8409C89.7443 79.7846 89.7839 79.7337 89.8395 79.7261L92.0293 79.4262C92.0591 79.4222 92.0893 79.4312 92.112 79.4513C92.1347 79.4709 92.1476 79.5 92.1476 79.5299V82.8689C92.1476 82.8989 92.1347 82.9275 92.1125 82.9471C92.0933 82.9641 92.0684 82.9735 92.0431 82.9735L92.0435 82.9744ZM90.2426 82.5521L91.939 82.7518V79.6506L89.9676 79.9205L90.2426 82.5521Z" fill="#697571"/>
<path d="M92.3422 87.7719C91.5521 87.8836 90.2565 87.9819 88.7359 87.7705C88.2376 87.7012 87.907 87.2155 88.0272 86.7248C88.3622 85.3574 88.9392 82.7647 89.9291 81.5626L90.1751 82.2146L90.515 81.601C90.5617 81.517 90.6449 81.4603 90.7401 81.4482L91.4844 81.3535C91.6397 81.3338 91.7843 81.437 91.8168 81.5912L91.9351 82.1565L92.1945 81.4142L93.0603 86.8196C93.1208 87.2812 92.8013 87.7075 92.3422 87.7727V87.7719Z" fill="white"/>
<path d="M90.5496 87.9999C89.9957 87.9999 89.3796 87.966 88.7216 87.8744C88.4537 87.8373 88.2135 87.6871 88.0622 87.4633C87.9114 87.2403 87.862 86.9619 87.9261 86.7L87.9977 86.4055C88.3394 84.9952 88.9106 82.6348 89.8489 81.4962C89.8725 81.4676 89.9094 81.4538 89.9464 81.4596C89.9828 81.4658 90.0135 81.4908 90.0269 81.5257L90.1933 81.9668L90.4242 81.5498C90.4865 81.4372 90.5999 81.3599 90.7271 81.3438L91.4715 81.2491C91.6788 81.2236 91.8759 81.363 91.919 81.5691L91.9608 81.7679L92.0965 81.3791C92.1121 81.334 92.1575 81.3054 92.2042 81.3094C92.2518 81.3139 92.2901 81.3496 92.2981 81.397L93.1638 86.8019C93.2324 87.3225 92.8702 87.8029 92.3572 87.8753C91.8928 87.941 91.2748 87.9995 90.5505 87.9995L90.5496 87.9999ZM89.8974 81.7742C89.0548 82.9244 88.5231 85.1203 88.2001 86.4551L88.1285 86.75C88.0787 86.9543 88.1174 87.1715 88.2348 87.3453C88.3532 87.5205 88.5409 87.6375 88.75 87.6666C90.2449 87.8744 91.5204 87.7819 92.3274 87.6679C92.7274 87.6112 93.0099 87.2362 92.9565 86.8323L92.1566 81.8376L92.0329 82.1906C92.0173 82.2349 91.9737 82.2617 91.9279 82.2604C91.8812 82.2572 91.8425 82.2233 91.8327 82.1772L91.7144 81.6115C91.6935 81.5114 91.5978 81.443 91.4973 81.4564L90.753 81.5512C90.6911 81.5592 90.6359 81.5963 90.6057 81.6513L90.2658 82.2648C90.2462 82.3006 90.2062 82.3211 90.167 82.3184C90.1265 82.3153 90.0914 82.2894 90.0772 82.251L89.897 81.7733L89.8974 81.7742Z" fill="#697571"/>
<path d="M90.1291 87.0911C89.6259 87.0911 89.0845 87.0469 88.5497 86.9244C88.4937 86.9115 88.4585 86.8556 88.4714 86.7993C88.4843 86.743 88.5404 86.7073 88.5964 86.7207C90.4543 87.1456 92.4003 86.5991 92.4199 86.5933C92.475 86.5777 92.5329 86.6098 92.5489 86.6653C92.5649 86.7207 92.5329 86.7788 92.4773 86.7948C92.463 86.7989 91.4237 87.0911 90.1295 87.0911H90.1291Z" fill="#697571"/>
<path d="M89.6938 85.0002C89.6377 85.0002 89.5914 84.9555 89.5897 84.8988C89.5879 84.8411 89.6328 84.7924 89.6902 84.7906L91.4671 84.7316C91.5249 84.7281 91.573 84.775 91.5748 84.8326C91.5766 84.8903 91.5316 84.939 91.4742 84.9408L89.6973 84.9998C89.6973 84.9998 89.6951 84.9998 89.6938 84.9998V85.0002Z" fill="#697571"/>
<path d="M98.7327 78.3311L99.0165 82.4405H101.297L101.404 78.3311H98.7327Z" fill="white"/>
<path d="M101.298 82.5456H99.0165C98.9618 82.5456 98.9164 82.5031 98.9124 82.4482L98.6281 78.3388C98.6264 78.3097 98.6361 78.2811 98.6557 78.2601C98.6753 78.2391 98.7029 78.2271 98.7318 78.2271H101.403C101.431 78.2271 101.458 78.2387 101.478 78.2588C101.497 78.2789 101.508 78.3061 101.507 78.3347L101.401 82.4442C101.4 82.5009 101.354 82.546 101.297 82.546L101.298 82.5456ZM99.114 82.336H101.196L101.297 78.4357H98.8444L99.114 82.336Z" fill="#697571"/>
<path d="M98.4207 84.7607C98.415 85.1495 98.6792 85.4909 99.0565 85.5789C100.368 85.8855 103.322 86.5678 104.164 86.6938C105.258 86.8574 106.602 86.5209 107.18 85.8783C107.758 85.2357 105.886 83.7016 104.998 83.1435C103.678 82.3141 102.41 80.6754 101.878 80.6017C101.347 80.5279 100.355 82.0768 100.355 82.0768L98.7326 81.3926C98.7326 81.3926 98.4501 82.7886 98.4207 84.7602V84.7607Z" fill="white"/>
<path d="M104.737 86.84C104.538 86.84 104.341 86.8262 104.149 86.7976C103.299 86.6707 100.288 85.9745 99.0325 85.6809C98.6112 85.5826 98.31 85.1947 98.3163 84.759C98.3452 82.8004 98.6272 81.386 98.6304 81.3717C98.6366 81.3409 98.6562 81.3145 98.6837 81.3002C98.7113 81.2855 98.7438 81.2841 98.7727 81.2962L100.315 81.9468C100.539 81.6086 101.366 80.4226 101.892 80.4981C102.192 80.5396 102.622 80.9499 103.218 81.5174C103.774 82.0469 104.403 82.6466 105.052 83.0546C105.766 83.5024 107.274 84.6875 107.385 85.4914C107.41 85.6715 107.367 85.8252 107.257 85.9481C106.77 86.4901 105.738 86.8396 104.737 86.8396V86.84ZM98.8114 81.5397C98.7434 81.9249 98.5485 83.1583 98.5249 84.7621C98.52 85.0999 98.7531 85.4007 99.0801 85.4766C100.333 85.7693 103.338 86.4642 104.18 86.5902C105.278 86.7547 106.561 86.4106 107.103 85.8082C107.171 85.7323 107.196 85.6384 107.18 85.5209C107.085 84.8376 105.676 83.6932 104.943 83.2325C104.276 82.8133 103.638 82.2056 103.075 81.6693C102.573 81.1903 102.098 80.7376 101.865 80.7054C101.527 80.659 100.813 81.5563 100.443 82.1336C100.416 82.1765 100.362 82.1931 100.315 82.1734L98.8119 81.5393L98.8114 81.5397Z" fill="#697571"/>
<path d="M104.713 86.0869C102.343 86.0869 99.1566 84.7936 98.9769 84.7199C98.9235 84.698 98.8981 84.6368 98.9199 84.5836C98.9417 84.53 99.0027 84.5045 99.0561 84.5264C99.1143 84.5501 104.892 86.8957 106.594 85.3522C106.637 85.3133 106.703 85.3169 106.742 85.3598C106.78 85.4027 106.777 85.4688 106.734 85.5077C106.269 85.9296 105.541 86.0873 104.714 86.0873L104.713 86.0869Z" fill="#697571"/>
<path d="M102.185 83.5968C102.157 83.5968 102.128 83.5852 102.108 83.5624C102.069 83.5195 102.073 83.4534 102.116 83.4145L103.276 82.3634C103.319 82.3246 103.384 82.3281 103.423 82.371C103.462 82.4139 103.458 82.4801 103.415 82.519L102.255 83.57C102.235 83.5883 102.21 83.5968 102.185 83.5968Z" fill="#697571"/>
<path d="M89.8565 45.9984C89.8565 45.9984 88.5 64.3879 88.1299 68.8227C87.7602 73.2574 88.9948 80.3858 88.9948 80.3858L92.5156 80.2C92.5156 80.2 92.7568 71.5325 93.0184 69.1256C93.0184 69.1256 94.5057 65.8626 94.9466 62.9526C95.3874 60.0426 96.889 55.4456 96.889 55.4456C96.889 55.4456 98.1084 78.3883 98.2259 80.1906C98.2259 80.1906 100.987 80.3139 101.977 79.6883C101.977 79.6883 103.731 71.3225 103.479 66.7711C103.227 62.2197 102.887 45.749 102.887 45.749L94.0412 45.88L89.8565 45.9975V45.9984Z" fill="#697571"/>
<path d="M92.3705 69.2296H91.2943C91.2369 69.2296 91.1902 69.1827 91.1902 69.1251C91.1902 69.0674 91.2369 69.0205 91.2943 69.0205H92.3705C92.4279 69.0205 92.4746 69.0674 92.4746 69.1251C92.4746 69.1827 92.4279 69.2296 92.3705 69.2296Z" fill="white"/>
<path d="M100.036 75.9022H100.035C99.9773 75.9009 99.9315 75.8535 99.9324 75.7954C99.9711 73.6759 102.288 69.8744 102.386 69.7135C102.417 69.6644 102.481 69.6487 102.53 69.6791C102.579 69.7095 102.594 69.7738 102.564 69.823C102.54 69.8619 100.178 73.7367 100.141 75.799C100.14 75.8562 100.093 75.9018 100.036 75.9018V75.9022Z" fill="white"/>
</g>
<defs>
<clipPath id="clip0_980_89922">
<rect width="56" height="72" fill="white" transform="translate(351.129 38)"/>
</clipPath>
<clipPath id="clip1_980_89922">
<rect width="36" height="72" fill="white" transform="translate(85 16)"/>
</clipPath>
</defs>
</svg>
