<svg width="1556" height="97" viewBox="0 0 1556 97" fill="none" xmlns="http://www.w3.org/2000/svg">
<path opacity="0.6" d="M0 85C25.9333 85.0667 51.8667 85.13 77.8 85.19C311.2 85.73 544.6 86 778 85.9999C1011.4 85.9999 1244.8 85.7299 1478.2 85.1899C1504.13 85.1299 1530.07 85.0665 1556 84.9999C1530.07 84.9332 1504.13 84.8699 1478.2 84.8099C1244.8 84.2699 1011.4 83.9999 778 83.9999C544.6 84 311.2 84.27 77.8 84.81C51.8667 84.87 25.9333 84.9333 0 85Z" fill="black"/>
<path d="M439.775 13.8029C438.091 11.8712 435.771 12.0081 435.771 12.0081C430.765 11.7938 430.53 15.887 430.691 16.6527C430.733 16.8532 430.778 17.0375 430.824 17.211C430.413 17.0647 429.897 17.1056 429.274 17.4483C427.895 18.2062 428.003 22.6452 431.61 20.7357C431.802 20.6343 431.936 20.4108 432.011 20.1224C432.023 20.1501 432.035 20.1774 432.047 20.2057C432.375 20.9634 437.008 22.7041 439.505 19.0984C440.392 17.8167 441.459 15.7345 439.775 13.8029Z" fill="#697571"/>
<path d="M433.329 18.4683C433.329 18.4683 431.175 22.3191 430.915 22.4413C427.132 24.2214 427.047 26.032 426.659 25.9183C426.271 25.8045 431.842 28.0317 431.842 28.0317L435.447 28.3667L436.328 26.0385C436.328 26.0385 434.495 24.5846 434.35 23.9351C434.204 23.2857 436.202 20.4967 436.202 20.4967L433.329 18.4683Z" fill="white"/>
<path d="M435.533 28.5058L431.811 28.1599L431.793 28.1529C431.793 28.1529 430.49 27.6317 429.188 27.1064C428.432 26.8014 427.83 26.557 427.398 26.3799C427.154 26.2796 426.951 26.1953 426.809 26.1351C426.539 26.0203 426.475 25.993 426.517 25.8721C426.521 25.8599 426.561 25.754 426.696 25.7934C426.731 25.7793 426.831 25.6274 426.918 25.4933C427.322 24.8769 428.161 23.5946 430.854 22.3263C431.074 22.1512 432.417 19.8321 433.215 18.4047L433.286 18.2783L436.384 20.4661L436.308 20.5727C435.549 21.6328 434.38 23.4752 434.477 23.9066C434.588 24.4025 435.909 25.54 436.409 25.9365L436.484 25.9957L435.533 28.5058ZM431.872 27.9037L435.36 28.2277L436.172 26.081C435.793 25.7741 434.362 24.5838 434.222 23.9637C434.08 23.3322 435.558 21.1795 436.02 20.5278L433.372 18.6583C432.684 19.886 431.23 22.4373 430.971 22.5593C428.34 23.797 427.527 25.0391 427.137 25.636C427.066 25.7438 427.005 25.8377 426.944 25.9092C427.712 26.2334 430.163 27.2201 431.872 27.9037ZM430.86 22.3235C430.859 22.3236 430.859 22.3237 430.859 22.3238C430.859 22.3236 430.859 22.3236 430.86 22.3234L430.86 22.3235Z" fill="#697571"/>
<path d="M432.954 19.1806C432.69 18.6162 432.276 17.5471 432.609 16.9542C432.943 16.3613 433.563 16.8333 433.709 17.0483C433.806 17.1915 435.441 14.2061 435.441 14.2061L440.078 16.7078C440.078 16.7078 439.219 19.6086 438.08 21.1124C436.937 22.6225 435.945 22.5883 434.743 21.9257C434.147 21.5976 433.768 21.1938 433.52 20.7897L432.954 19.1806Z" fill="white"/>
<path d="M436.118 22.4919C435.616 22.4919 435.138 22.293 434.68 22.0405C434.133 21.7394 433.706 21.3417 433.409 20.8584C433.371 20.797 433.391 20.7167 433.452 20.6791C433.513 20.6414 433.593 20.6606 433.631 20.7219C433.904 21.1663 434.299 21.533 434.806 21.812C435.93 22.4317 436.853 22.5177 437.976 21.0342C438.969 19.7234 439.758 17.2958 439.922 16.7722L435.493 14.3827C433.962 17.1724 433.808 17.18 433.725 17.184C433.674 17.1857 433.629 17.1631 433.601 17.122C433.518 17.0003 433.258 16.7876 433.028 16.7974C432.903 16.8027 432.804 16.875 432.723 17.0186C432.502 17.4106 432.629 18.1787 433.072 19.1259C433.102 19.1911 433.074 19.2687 433.008 19.2992C432.943 19.3298 432.866 19.3014 432.835 19.2362C432.492 18.5009 432.155 17.4971 432.496 16.8908C432.654 16.6098 432.866 16.5433 433.017 16.5369C433.288 16.5241 433.565 16.7013 433.727 16.867C433.976 16.542 434.702 15.2849 435.327 14.144L435.389 14.0303L440.233 16.6438L440.203 16.7453C440.167 16.8646 439.324 19.6862 438.184 21.1917C437.449 22.1618 436.764 22.4918 436.118 22.4919Z" fill="#697571"/>
<path d="M440.193 16.8664C440.193 16.8664 435.803 15.5657 433.797 17.0551C433.797 17.0551 433.612 16.7856 433.42 16.6886C433.173 16.5636 433.041 16.5922 433.041 16.5922L435.328 13.4253L440.193 16.8664Z" fill="#697571"/>
<path d="M429.507 22.7995C428.487 22.2733 421.744 29.5708 420.235 32.5802C417.147 38.7377 425.674 37.3117 425.674 37.3117L424.518 29.9714L425.101 40.6773L434.152 41.277L436.281 31.4565C436.281 31.4565 436.53 37.3357 439.803 37.3357C441.765 37.3357 444.542 37.3357 444.542 37.3357L444.829 34.657L440.193 34.1215C440.193 34.1215 439.411 27.9786 437.431 25.9282C436.497 24.9604 435.728 24.3907 435.325 24.2924C434.111 23.9965 434.687 25.4715 429.507 22.7995Z" fill="#697571"/>
<path d="M438.145 19.4199C438.116 19.4199 438.086 19.4139 438.057 19.4012C437.948 19.3526 437.898 19.2242 437.947 19.1145L438.017 18.9569C438.066 18.8472 438.194 18.7976 438.304 18.8464C438.413 18.895 438.463 19.0235 438.414 19.1332L438.344 19.2908C438.308 19.3717 438.229 19.4199 438.145 19.4199Z" fill="#697571"/>
<path d="M435.811 18.4127C435.782 18.4127 435.752 18.4067 435.723 18.394C435.613 18.3454 435.564 18.217 435.613 18.1073L435.683 17.9496C435.731 17.8399 435.86 17.7903 435.969 17.8391C436.079 17.8878 436.128 18.0162 436.08 18.1259L436.01 18.2836C435.974 18.3646 435.894 18.4127 435.811 18.4127Z" fill="#697571"/>
<path d="M437.008 17.6422C436.968 17.6422 436.928 17.6237 436.903 17.5887C436.884 17.5642 436.476 17.0269 435.615 17.1379C435.544 17.1474 435.478 17.0967 435.469 17.0253C435.46 16.9539 435.51 16.8885 435.582 16.8792C436.602 16.7474 437.093 17.4071 437.114 17.4353C437.156 17.4935 437.143 17.575 437.085 17.6174C437.061 17.6342 437.035 17.6422 437.008 17.6422Z" fill="#697571"/>
<path d="M437.322 20.1803C437.199 20.1803 436.998 20.1396 436.659 20C436.593 19.9725 436.561 19.8963 436.589 19.8298C436.616 19.7633 436.692 19.7314 436.759 19.7589C436.977 19.8488 437.215 19.9177 437.313 19.9217C437.312 19.8923 437.307 19.8481 437.303 19.8076C437.281 19.6194 437.246 19.3044 437.345 18.7888C437.432 18.3316 437.56 18.0684 437.747 17.9608C437.896 17.875 438.042 17.91 438.139 17.9439C438.697 18.1384 439.1 18.6737 439.116 18.6964C439.159 18.7542 439.147 18.8357 439.089 18.8787C439.032 18.9215 438.95 18.9097 438.907 18.8519C438.903 18.8469 438.535 18.3578 438.053 18.1901C437.973 18.1621 437.922 18.161 437.877 18.1867C437.814 18.2233 437.693 18.3567 437.601 18.8379C437.51 19.3145 437.542 19.6048 437.562 19.7783C437.578 19.9176 437.59 20.0276 437.512 20.1133C437.492 20.1354 437.451 20.1803 437.322 20.1803Z" fill="#697571"/>
<path d="M436.255 36.8935C435.2 36.8029 430.681 37.4139 430.681 37.4139L431.062 34.9727C431.062 34.9727 435.992 35.8116 436.365 35.7045C437.065 35.5031 438.069 35.4114 438.896 35.3791C439.991 35.3364 441.762 35.8943 441.746 36.1918C441.737 36.3523 439.518 36.059 439.14 36.2105C438.074 36.6384 437.007 36.9581 436.255 36.8935Z" fill="white"/>
<path d="M430.525 37.5663L430.954 34.8218L431.084 34.8439C432.966 35.1643 436.055 35.647 436.329 35.5788C436.994 35.3877 437.999 35.2833 438.891 35.2486C439.836 35.2117 441.504 35.6897 441.778 35.9682C441.865 36.0562 441.879 36.1422 441.876 36.1987C441.864 36.402 441.589 36.4067 440.925 36.4179C440.555 36.424 439.351 36.2663 439.189 36.3313C439.018 36.3999 438.849 36.4698 438.683 36.5387C437.811 36.8999 436.906 37.0804 436.244 37.0231C435.215 36.9349 430.743 37.5367 430.698 37.5428L430.525 37.5663ZM431.17 35.1231L430.837 37.2613C431.687 37.1488 435.315 36.6815 436.266 36.7634C436.866 36.8142 437.741 36.6464 438.583 36.2977C438.75 36.2285 438.92 36.1582 439.092 36.0892C439.298 36.0064 440.489 36.1643 440.92 36.1571C441.142 36.1533 441.429 36.1486 441.575 36.1284C441.397 35.9852 439.912 35.4704 438.901 35.5092C438.029 35.5431 437.047 35.6437 436.401 35.8296C436.035 35.9347 432.232 35.3026 431.17 35.1231Z" fill="#697571"/>
<path d="M458.984 27.3745L456.736 36.4757H443.608L446.265 27.3745H458.984Z" fill="#EBF4FE"/>
<path d="M456.842 36.6116H443.426L446.163 27.2383H459.157L456.842 36.6116ZM443.789 36.3394H456.629L458.81 27.5105H446.367L443.789 36.3394Z" fill="#697571"/>
<path d="M456.724 36.4756H439.673V37.3358H456.724V36.4756Z" fill="#828C88"/>
<path d="M456.854 37.4662H439.542V36.3452H456.854V37.4662ZM439.803 37.2054H456.594V36.606H439.803V37.2054Z" fill="#697571"/>
<path d="M450.214 32.1877C450.153 32.8927 450.57 33.5042 451.144 33.5535C451.718 33.6028 452.233 33.0712 452.293 32.3661C452.354 31.661 451.937 31.0495 451.363 31.0002C450.789 30.951 450.274 31.4826 450.214 32.1877Z" fill="#828C88"/>
<path d="M451.219 33.6872C451.19 33.6872 451.162 33.6859 451.133 33.6835C450.488 33.6281 450.017 32.9521 450.084 32.1766C450.116 31.8058 450.264 31.4663 450.502 31.2205C450.747 30.9674 451.056 30.843 451.374 30.8704C451.692 30.8977 451.976 31.073 452.174 31.3639C452.367 31.6466 452.455 32.0065 452.423 32.3773C452.392 32.7481 452.243 33.0876 452.005 33.3334C451.782 33.5635 451.506 33.6872 451.219 33.6872ZM451.289 31.1275C451.073 31.1275 450.862 31.2234 450.689 31.4018C450.493 31.6046 450.37 31.8877 450.344 32.1989C450.289 32.8311 450.653 33.3806 451.155 33.4237C451.393 33.4438 451.628 33.3475 451.818 33.1521C452.014 32.9493 452.137 32.6662 452.163 32.355C452.19 32.0437 452.117 31.7439 451.958 31.5106C451.805 31.2856 451.59 31.1506 451.352 31.1301C451.331 31.1284 451.31 31.1275 451.289 31.1275Z" fill="#697571"/>
<path d="M428.456 23.0299L430.141 22.1929L432.898 24.0274L431.7 24.9814L428.456 23.0299Z" fill="#697571"/>
<path d="M436.21 24.7438L435.415 23.4629L432.898 24.0273L433.551 25.2652L436.21 24.7438Z" fill="#697571"/>
<path d="M436.421 24.8355L435.477 23.3154L432.924 23.8879L430.15 22.0425L428.185 23.0188L431.71 25.1397L432.764 24.3007C432.645 26.2635 431.902 37.9618 430.95 41.0373C430.931 41.0992 430.965 41.1651 431.027 41.1842C431.039 41.1878 431.051 41.1896 431.062 41.1896C431.112 41.1896 431.159 41.1572 431.174 41.1068C432.11 38.0825 432.842 26.8538 432.989 24.4782L433.482 25.4118L436.421 24.8355ZM431.689 24.823L428.727 23.0407L430.131 22.3431L432.677 24.0368L431.689 24.823ZM435.353 23.6104L436 24.6523L433.621 25.1186L433.093 24.1172L435.353 23.6104Z" fill="#697571"/>
<path d="M424.385 33.0098L432.799 34.5166L431.819 37.4139C431.819 37.4139 425.992 37.5825 424.745 37.4139C422.422 37.1002 419.94 35.0544 419.94 35.0544L424.385 33.0098Z" fill="#697571"/>
<path d="M431.871 37.3828C431.858 37.3828 431.845 37.3808 431.832 37.3764C431.768 37.3549 431.734 37.2859 431.756 37.2223L432.638 34.6141L424.905 33.3881L427.109 29.6762C427.143 29.6185 427.218 29.5995 427.276 29.6337C427.334 29.668 427.352 29.7425 427.318 29.8003L425.297 33.204L432.961 34.4191L431.986 37.3004C431.969 37.3509 431.922 37.3828 431.871 37.3828Z" fill="#697571"/>
<path d="M435.482 20.0518C435.482 20.0518 436.077 21.5404 437.125 20.7831C437.125 20.7831 436.95 20.4767 436.509 20.4712C436.509 20.4712 436.188 20.1513 435.482 20.0518Z" fill="#697571"/>
<path d="M467.768 83.8697H413.606L408 37.3354H473.58L467.768 83.8697Z" fill="white"/>
<path d="M468.03 84.0001H413.638L408 37.2051H473.874L473.856 37.3516L468.03 84.0001ZM413.869 83.7393H467.8L473.579 37.4658H408.294L413.869 83.7393Z" fill="#697571"/>
<g clip-path="url(#clip0_980_93984)">
<path d="M194.363 35.1562C193.857 39.6174 193.423 43.2848 193.171 46.0394C192.105 57.6881 191.572 63.513 191.816 66.2835C192.115 69.6744 192.731 71.8734 191.71 74.5059C191.591 74.8117 190.931 76.4633 190.908 78.6608C190.896 79.7952 190.898 80.7874 191.519 81.2266C192.383 81.8382 193.584 80.7638 195.639 80.5016C197.454 80.2697 199.046 80.7849 200.178 81.3128C200.678 76.4248 201.75 71.9226 202.202 67.0275C202.81 60.4299 202.777 53.4394 203.298 46.8357C204.26 49.8772 204.802 52.3974 205.114 54.0802C206.941 63.9368 207.949 69.3763 206.774 75.3017C206.553 76.4166 206 78.8306 207.22 79.8983C207.829 80.4314 208.686 80.4606 211.019 80.1887C212.691 79.9937 214.899 79.67 217.494 79.101C216.581 69.8257 215.049 59.6675 212.594 48.8439C211.363 43.4192 210 38.2675 208.557 33.399C203.803 33.9588 199.117 34.596 194.363 35.1562Z" fill="white"/>
<path d="M194.467 35.2581C194.375 36.0662 194.286 36.8486 194.199 37.6038C193.818 40.9367 193.489 43.8145 193.285 46.0494C192.221 57.6801 191.687 63.5137 191.93 66.2735C191.994 66.9944 192.071 67.6536 192.145 68.2909C192.416 70.614 192.63 72.4488 191.817 74.5462L191.808 74.5677C191.316 75.834 191.037 77.288 191.022 78.662C191.011 79.7205 191 80.7199 191.585 81.134C192.042 81.4572 192.631 81.2494 193.446 80.9621C194.031 80.7564 194.759 80.4993 195.624 80.389C197.059 80.2058 198.558 80.4593 200.081 81.1432C200.322 78.8416 200.693 76.5923 201.052 74.4159C201.446 72.0245 201.854 69.5515 202.088 67.0169C202.414 63.4839 202.558 59.7791 202.697 56.1958C202.817 53.0974 202.942 49.8933 203.184 46.8267C203.188 46.7728 203.231 46.7292 203.285 46.7231C203.34 46.7159 203.39 46.7497 203.407 46.8016C204.166 49.2032 204.779 51.6449 205.226 54.0594C207.057 63.936 208.065 69.3765 206.887 75.323L206.855 75.48C206.619 76.6528 206.18 78.8359 207.296 79.8133C207.852 80.3002 208.614 80.3541 211.005 80.0755C213.115 79.8298 215.255 79.4716 217.371 79.0114C216.37 68.8983 214.726 58.7571 212.482 48.8682C211.317 43.7355 209.969 38.573 208.474 33.5224C206.131 33.7989 203.767 34.099 201.479 34.3889C199.187 34.6798 196.816 34.9805 194.467 35.2581ZM192.129 81.5244C191.885 81.5244 191.66 81.4659 191.452 81.3187C190.77 80.8359 190.782 79.779 190.793 78.6594C190.808 77.2593 191.093 75.777 191.595 74.4862L191.603 74.4651C192.397 72.4195 192.185 70.6089 191.918 68.317C191.843 67.6783 191.766 67.0174 191.702 66.2935C191.458 63.5132 191.992 57.6735 193.056 46.0386C193.262 43.7914 193.591 40.9121 193.972 37.5782C194.062 36.7952 194.154 35.983 194.25 35.1431C194.256 35.0908 194.297 35.0492 194.35 35.0431C196.728 34.763 199.129 34.4587 201.45 34.1642C203.769 33.8697 206.167 33.5655 208.543 33.2858C208.598 33.2792 208.651 33.3135 208.667 33.3664C210.174 38.4509 211.533 43.6498 212.705 48.8184C214.958 58.7488 216.608 68.9337 217.608 79.0894C217.614 79.1469 217.575 79.1987 217.519 79.2115C215.364 79.6835 213.182 80.0504 211.032 80.3007C208.736 80.5686 207.804 80.5609 207.144 79.9832C205.93 78.9196 206.386 76.6534 206.63 75.4353L206.662 75.2794C207.833 69.375 206.827 63.9498 205.001 54.1005C204.591 51.8861 204.041 49.6486 203.367 47.4408C203.155 50.3207 203.038 53.3088 202.925 56.2045C202.786 59.7904 202.642 63.4983 202.315 67.038C202.081 69.5802 201.672 72.0573 201.278 74.4528C200.911 76.6754 200.532 78.974 200.292 81.3238C200.288 81.3607 200.267 81.3931 200.234 81.411C200.202 81.4295 200.163 81.431 200.129 81.4151C198.596 80.6999 197.09 80.43 195.653 80.6137C194.812 80.721 194.127 80.9631 193.522 81.176C192.993 81.3623 192.534 81.5244 192.129 81.5244Z" fill="#697571"/>
<path d="M203.402 48.8262C203.339 48.8262 203.288 48.7754 203.288 48.7128C203.288 48.7005 203.285 48.6281 203.281 48.5117C203.259 47.8929 203.194 46.0089 203.218 45.2573C203.256 43.9972 204.089 42.8741 205.29 42.4621C205.349 42.4421 205.415 42.4729 205.435 42.5324C205.456 42.5914 205.425 42.656 205.365 42.6766C204.253 43.0578 203.482 44.0977 203.446 45.2645C203.423 46.0089 203.488 47.8867 203.51 48.504C203.514 48.6271 203.517 48.7025 203.517 48.7128C203.517 48.7754 203.465 48.8262 203.402 48.8262Z" fill="#697571"/>
<path d="M219.103 13.6833L216.85 17.9356C216.85 17.9356 212.777 20.0602 215.96 27.0123C216.042 27.1893 215.942 27.3966 215.751 27.4438C214.714 27.7019 211.82 28.3755 211.512 27.941C211.136 27.4104 209.722 15.1728 219.103 13.6833Z" fill="white"/>
<path d="M218.894 13.8341C215.881 14.379 213.721 16.1163 212.474 19.0012C210.738 23.0175 211.432 27.6259 211.605 27.8757C211.75 28.0799 213.08 27.9912 215.723 27.3339C215.781 27.3196 215.828 27.2811 215.854 27.2277C215.88 27.1744 215.881 27.1128 215.856 27.0589C214.195 23.4295 214.531 21.1202 215.107 19.8216C215.681 18.5241 216.58 17.9587 216.764 17.853L218.894 13.8341ZM212.132 28.1938C211.745 28.1938 211.507 28.1313 211.418 28.0061C211.165 27.6485 210.554 22.9277 212.239 18.9704C213.545 15.9018 215.849 14.085 219.085 13.5714C219.128 13.5642 219.17 13.5822 219.196 13.6176C219.221 13.6525 219.224 13.6982 219.204 13.7361L216.951 17.9884C216.94 18.009 216.924 18.0254 216.903 18.0361C216.893 18.0413 215.904 18.5728 215.31 19.9268C214.759 21.1823 214.442 23.4223 216.064 26.9651C216.118 27.0805 216.116 27.2124 216.06 27.3268C216.005 27.4402 215.902 27.5228 215.779 27.5535C214.065 27.9799 212.846 28.1938 212.132 28.1938Z" fill="#697571"/>
<path d="M209.45 36.4075C208.358 30.2415 209.783 24.2048 208.69 18.0387C207.102 17.3866 204.584 16.5754 201.404 16.4477C198.978 16.3497 196.886 16.6786 195.26 17.0911C193.758 17.4718 192.447 18.3902 191.61 19.6831C191.349 20.0853 191.104 20.5327 190.905 21.0212C190.556 21.878 190.252 22.624 190.07 23.2597C189.927 23.7584 190.118 24.294 190.555 24.5793C191.658 25.2986 192.9 26.6398 193.93 27.0353C192.67 30.7879 194.714 32.9561 194.108 36.8488C194.775 37.2013 202.024 38.4803 209.45 36.4075Z" fill="#697571"/>
<path d="M210.207 13.3542C210.341 13.2147 216.874 18.1612 216.874 18.1612C216.874 18.1612 211.83 25.1379 211.766 30.0366C211.766 30.0366 207.068 29.2337 205.892 27.4769C205.892 27.4769 204.667 19.0893 210.207 13.3542Z" fill="white"/>
<path d="M210.289 13.4331C210.289 13.4336 210.289 13.4331 210.289 13.4331V13.4331ZM206.002 27.4357C207.05 28.957 210.895 29.7564 211.655 29.901C211.797 25.3337 216.135 19.0127 216.717 18.1857C214.318 16.3704 210.761 13.7307 210.243 13.4808C205.007 18.9532 205.936 26.9263 206.002 27.4357ZM211.766 30.1504C211.76 30.1504 211.753 30.1499 211.747 30.1488C211.553 30.116 206.986 29.3172 205.796 27.5399C205.787 27.5255 205.781 27.5101 205.779 27.4932C205.776 27.4722 205.475 25.3486 205.859 22.5514C206.213 19.9675 207.241 16.2606 210.124 13.2761C210.224 13.174 210.278 13.1166 213.659 15.6147C215.291 16.8204 216.927 18.0589 216.943 18.0712C216.992 18.1087 217.003 18.1775 216.967 18.2277C216.916 18.297 211.943 25.2321 211.881 30.0385C211.88 30.0719 211.865 30.1032 211.839 30.1242C211.819 30.1412 211.793 30.1504 211.766 30.1504Z" fill="#697571"/>
<path d="M209.206 22.2037C208.601 21.7548 206.628 20.448 205.93 20.8554C205.62 21.036 205.042 21.2437 204.581 21.7142C203.812 22.4987 202.943 23.1795 201.955 23.6659L195.879 26.6587C195.085 27.0147 194.159 26.928 193.446 26.4298L190.661 24.2565C190.661 24.2565 189.21 31.4563 193.402 32.5051C197.055 33.4188 203.287 26.28 204.826 24.4335C205.053 24.1621 205.387 24.004 205.743 24.001C206.427 23.9948 207.523 23.9804 207.814 23.9512C209.605 23.7726 209.611 22.5043 209.206 22.2037Z" fill="white"/>
<path d="M190.741 24.463C190.554 25.5861 189.761 31.4776 193.429 32.395C193.637 32.4473 193.855 32.472 194.079 32.472C197.781 32.4725 203.558 25.7769 204.737 24.3619C204.986 24.0638 205.352 23.8914 205.742 23.8878C206.856 23.8776 207.588 23.8601 207.803 23.8386C208.94 23.7252 209.213 23.1752 209.278 22.9443C209.36 22.6513 209.267 22.3907 209.137 22.2942C208.211 21.6057 206.537 20.6329 205.988 20.9531C205.907 21.0003 205.813 21.047 205.705 21.1008C205.389 21.2584 204.995 21.4543 204.662 21.7935C203.825 22.6477 202.931 23.3122 202.006 23.7678L195.93 26.7605C195.099 27.1335 194.123 27.0417 193.38 26.5229L190.741 24.463ZM194.081 32.6987C193.837 32.6987 193.601 32.6721 193.373 32.6151C191.608 32.1734 190.561 30.5767 190.345 27.997C190.185 26.0725 190.545 24.2526 190.549 24.2341C190.557 24.1957 190.584 24.1639 190.622 24.15C190.659 24.1367 190.701 24.1433 190.732 24.1674L193.517 26.3408C194.189 26.8097 195.078 26.8934 195.832 26.5553L201.904 23.5646C202.806 23.1203 203.679 22.4713 204.498 21.6355C204.858 21.2686 205.288 21.0547 205.603 20.8982C205.707 20.8459 205.798 20.8007 205.872 20.7576C206.746 20.2466 209.171 22.0367 209.274 22.1131C209.501 22.2819 209.596 22.657 209.498 23.0048C209.421 23.2809 209.103 23.9371 207.825 24.0643C207.542 24.0925 206.537 24.1074 205.744 24.1146C205.421 24.1172 205.119 24.2603 204.914 24.5061C203.245 26.5086 197.784 32.6987 194.081 32.6987Z" fill="#697571"/>
<path d="M214.509 18.3496C214.486 18.3496 214.464 18.3429 214.445 18.3301L210.399 15.6052C210.346 15.5703 210.332 15.4995 210.368 15.4477C210.403 15.3959 210.475 15.3825 210.527 15.4179L214.573 18.1423C214.626 18.1772 214.639 18.248 214.603 18.2998C214.581 18.3322 214.545 18.3496 214.509 18.3496Z" fill="#697571"/>
<path d="M213.742 19.5073C213.72 19.5073 213.698 19.5012 213.678 19.4883L209.642 16.8091C209.59 16.7742 209.576 16.7034 209.611 16.6516C209.646 16.5993 209.717 16.5854 209.77 16.6203L213.805 19.3C213.858 19.3344 213.872 19.4052 213.837 19.457C213.815 19.4899 213.779 19.5073 213.742 19.5073Z" fill="#697571"/>
<path d="M213.125 20.6978C213.104 20.6978 213.084 20.6926 213.065 20.6808L211.447 19.6886C211.393 19.6557 211.377 19.5859 211.41 19.5326C211.443 19.4792 211.513 19.4623 211.567 19.4956L213.185 20.4879C213.239 20.5213 213.255 20.591 213.222 20.6444C213.2 20.6788 213.163 20.6978 213.125 20.6978Z" fill="#697571"/>
<path d="M206.429 9.10912C206.448 9.0337 204.985 7.49039 204.985 7.49039L202.321 7.69921C200.727 7.62789 200.564 10.6704 200.564 10.6704C200.564 10.6704 200.677 10.9993 200.733 11.3856C200.178 12.7386 198.533 16.4537 196.983 17.0247C196.057 17.3659 198.477 20.4146 200.549 20.4582C202.622 20.5023 204.861 19.7265 204.893 18.9482C204.925 18.1699 202.367 16.4244 202.367 16.4244L202.852 15.2403C203.113 15.3952 203.381 15.5332 203.636 15.6287C203.969 15.7533 204.34 15.5779 204.453 15.2423L205.06 13.5369L205.417 13.6256C205.612 13.6739 205.844 13.5323 205.815 13.3342C205.567 11.6652 206.284 9.68581 206.429 9.10912Z" fill="white"/>
<path d="M200.68 10.6562C200.706 10.7372 200.796 11.0302 200.846 11.3698C200.849 11.3898 200.846 11.4104 200.839 11.4288C200.214 12.9506 198.593 16.5523 197.023 17.1311C196.978 17.1475 196.86 17.1911 196.903 17.444C197.054 18.3296 198.916 20.3106 200.551 20.3449C202.698 20.3947 204.752 19.5943 204.778 18.9437C204.8 18.4189 203.309 17.2055 202.302 16.5185C202.258 16.4882 202.241 16.4318 202.261 16.382L202.746 15.1978C202.759 15.167 202.784 15.1434 202.816 15.1332C202.847 15.1219 202.882 15.126 202.911 15.1434C203.191 15.3097 203.448 15.4374 203.676 15.5226C203.807 15.5724 203.95 15.5662 204.077 15.5062C204.205 15.4462 204.3 15.3394 204.344 15.2066L204.952 13.4996C204.972 13.4442 205.031 13.4129 205.088 13.4272L205.444 13.5155C205.516 13.5334 205.601 13.5119 205.656 13.4632C205.681 13.4406 205.71 13.4026 205.702 13.3513C205.489 11.9157 205.98 10.2437 206.216 9.4402C206.254 9.31296 206.285 9.20521 206.308 9.12106C206.193 8.95637 205.542 8.24475 204.94 7.60804L202.329 7.81223C202.325 7.81274 202.32 7.81274 202.315 7.81274C200.916 7.75271 200.698 10.394 200.68 10.6562ZM200.709 20.5732C200.654 20.5732 200.6 20.5727 200.547 20.5717C198.779 20.5342 196.842 18.4502 196.677 17.482C196.612 17.1008 196.816 16.9653 196.943 16.9187C198.458 16.3604 200.122 12.5704 200.615 11.3719C200.56 11.0143 200.457 10.7106 200.456 10.7075C200.451 10.6936 200.449 10.6792 200.45 10.6649C200.457 10.5376 200.634 7.58443 202.264 7.58443C202.282 7.58443 202.3 7.58495 202.318 7.58546L204.976 7.37716C205.012 7.37408 205.045 7.38741 205.069 7.41255C206.573 9.00049 206.558 9.06411 206.539 9.13645C206.517 9.22829 206.481 9.3499 206.436 9.50382C206.204 10.2919 205.722 11.9322 205.928 13.318C205.945 13.4339 205.902 13.5478 205.809 13.6309C205.699 13.7305 205.534 13.7715 205.389 13.7356L205.133 13.6725L204.561 15.2804C204.497 15.4703 204.36 15.6242 204.175 15.7109C203.991 15.7976 203.785 15.8063 203.595 15.735C203.386 15.6565 203.155 15.5457 202.908 15.4046L202.507 16.3835C202.988 16.718 205.039 18.188 205.007 18.953C204.97 19.8498 202.654 20.5732 200.709 20.5732Z" fill="#697571"/>
<path d="M202.935 15.4058C202.912 15.4058 202.889 15.3986 202.868 15.3842L202.196 14.9024C201.51 14.4104 201.133 13.7614 201.105 13.0262C201.103 12.9636 201.152 12.9107 201.216 12.9087C201.28 12.9046 201.331 12.9548 201.334 13.0174C201.359 13.6901 201.694 14.2626 202.33 14.7188L203.002 15.2005C203.054 15.237 203.065 15.3078 203.028 15.3586C203.006 15.3893 202.971 15.4058 202.935 15.4058Z" fill="#697571"/>
<path d="M202.504 10.8505C202.602 10.8402 202.68 10.7648 202.693 10.6678C202.7 10.6124 202.706 10.5493 202.71 10.48C202.756 9.70173 202.434 9.31283 202.636 8.9937C202.746 8.81926 202.951 8.76487 203.067 8.73409C203.643 8.58171 203.927 9.39492 205.023 10.1148C206.383 11.009 206.485 11.1758 206.804 11.2066C208.005 11.3225 208.641 10.0255 208.954 9.29743C209.042 9.09272 209.479 7.99629 208.793 7.05482C208.437 6.56535 207.88 6.25802 207.268 6.18568C206.913 6.14361 206.594 5.92658 206.464 5.59668C206.431 5.511 206.384 5.4284 206.32 5.35297C205.79 4.72652 204.499 5.10876 204.047 5.24267C203.734 5.33502 203.22 5.52588 202.659 5.94044C202.348 6.1708 201.923 6.18876 201.591 5.98918C201.426 5.89067 201.226 5.81166 200.994 5.79472C200.099 5.7311 199.519 6.65976 199.465 6.74852C198.843 7.78132 199.355 9.11888 199.742 10.1286C200.02 10.8546 200.354 11.4077 200.593 11.7622L200.6 11.7612C200.904 11.7212 201.103 11.4236 201.018 11.1316C200.969 10.9613 200.936 10.7638 200.942 10.5457C200.946 10.3759 200.923 9.8341 201.345 9.66838C201.606 9.56628 202.21 9.74278 202.266 10.6355C202.274 10.7628 202.372 10.8643 202.5 10.851L202.504 10.8505Z" fill="#697571"/>
<path d="M191.445 70.4678C192.569 68.1749 192.676 65.8646 191.445 63.5306L192.329 62.4804L216.481 63.2679L215.649 70.8772L192.27 71.1445L191.445 70.4678Z" fill="white"/>
<path d="M191.588 70.4374L192.31 71.031L215.546 70.7658L216.354 63.3776L192.381 62.5957L191.582 63.5459C192.721 65.7521 192.723 68.0696 191.588 70.4374ZM192.27 71.2583C192.243 71.2583 192.217 71.2491 192.197 71.2321L191.373 70.5559C191.332 70.5226 191.32 70.4656 191.343 70.4189C192.511 68.0337 192.512 65.7982 191.345 63.5833C191.323 63.5428 191.328 63.4935 191.358 63.4581L192.241 62.4079C192.263 62.3812 192.298 62.3658 192.333 62.3674L216.485 63.1549C216.517 63.1559 216.547 63.1703 216.568 63.1939C216.589 63.218 216.598 63.2493 216.595 63.2806L215.762 70.8899C215.756 70.9469 215.708 70.9905 215.65 70.991L192.271 71.2583C192.271 71.2583 192.27 71.2583 192.27 71.2583Z" fill="#697571"/>
<path d="M235.826 61.6429H190.997C190.473 61.6429 190.049 62.0641 190.049 62.5839C190.049 63.1036 190.473 63.5248 190.997 63.5248H211.607C213.116 63.5248 214.339 64.7382 214.339 66.2349V67.7581C214.339 69.2553 213.116 70.4682 211.607 70.4682H190.997C190.473 70.4682 190.049 70.8894 190.049 71.4091C190.049 71.9289 190.473 72.3501 190.997 72.3501H235.826C238.608 72.3501 240.864 70.1131 240.864 67.3533V66.6397C240.864 63.8799 238.608 61.6429 235.826 61.6429Z" fill="white"/>
<path d="M190.997 70.5814C190.538 70.5814 190.163 70.9529 190.163 71.409C190.163 71.8657 190.538 72.2366 190.997 72.2366H235.826C238.541 72.2366 240.75 70.0458 240.75 67.3532V66.6396C240.75 63.947 238.541 61.7562 235.826 61.7562H190.997C190.538 61.7562 190.163 62.1276 190.163 62.5838C190.163 63.0399 190.538 63.4113 190.997 63.4113H211.607C213.177 63.4113 214.453 64.6776 214.453 66.2347V67.758C214.453 69.3152 213.177 70.5814 211.607 70.5814H190.997ZM235.826 72.4634H190.997C190.411 72.4634 189.934 71.9903 189.934 71.409C189.934 70.8277 190.411 70.3547 190.997 70.3547H211.607C213.05 70.3547 214.225 69.19 214.225 67.758V66.2347C214.225 64.8028 213.05 63.6381 211.607 63.6381H190.997C190.411 63.6381 189.934 63.1651 189.934 62.5838C189.934 62.0025 190.411 61.5294 190.997 61.5294H235.826C238.667 61.5294 240.978 63.8218 240.978 66.6396V67.3532C240.978 70.171 238.667 72.4634 235.826 72.4634Z" fill="#697571"/>
<path d="M205.045 65.6558H203.28C203.217 65.6558 203.166 65.605 203.166 65.5424C203.166 65.4793 203.217 65.4285 203.28 65.4285H205.045C205.108 65.4285 205.16 65.4793 205.16 65.5424C205.16 65.605 205.108 65.6558 205.045 65.6558Z" fill="#697571"/>
<path d="M202.175 65.6558H192.831C192.768 65.6558 192.716 65.605 192.716 65.5424C192.716 65.4793 192.768 65.4285 192.831 65.4285H202.175C202.238 65.4285 202.29 65.4793 202.29 65.5424C202.29 65.605 202.238 65.6558 202.175 65.6558Z" fill="#697571"/>
<path d="M203.972 66.7891H192.917C192.854 66.7891 192.802 66.7383 192.802 66.6757C192.802 66.6131 192.854 66.5623 192.917 66.5623H203.972C204.036 66.5623 204.087 66.6131 204.087 66.6757C204.087 66.7383 204.036 66.7891 203.972 66.7891Z" fill="#697571"/>
<path d="M206.754 68.8208H204.744C204.681 68.8208 204.63 68.77 204.63 68.7074C204.63 68.6448 204.681 68.594 204.744 68.594H206.754C206.817 68.594 206.868 68.6448 206.868 68.7074C206.868 68.77 206.817 68.8208 206.754 68.8208Z" fill="#697571"/>
<path d="M203.887 68.8208H192.831C192.768 68.8208 192.716 68.77 192.716 68.7074C192.716 68.6448 192.768 68.594 192.831 68.594H203.887C203.95 68.594 204.001 68.6448 204.001 68.7074C204.001 68.77 203.95 68.8208 203.887 68.8208Z" fill="#697571"/>
<path d="M189.227 83.5835H230.811V73.4792H189.227C190.454 76.8921 190.488 80.2614 189.227 83.5835Z" fill="white"/>
<path d="M189.391 83.47H230.696V73.5924H189.388C190.563 76.9556 190.564 80.2772 189.391 83.47ZM230.811 83.6968H189.227C189.189 83.6968 189.154 83.6783 189.132 83.648C189.111 83.6173 189.106 83.5783 189.119 83.5434C190.348 80.3075 190.348 76.934 189.119 73.5175C189.106 73.4826 189.112 73.4442 189.133 73.4139C189.155 73.3836 189.189 73.3657 189.227 73.3657H230.811C230.874 73.3657 230.926 73.4164 230.926 73.479V83.5834C230.926 83.646 230.874 83.6968 230.811 83.6968Z" fill="#697571"/>
<path d="M225.805 73.9781H188.941C188.497 73.9781 188.138 73.6215 188.138 73.1818C188.138 72.7421 188.497 72.3855 188.941 72.3855H236.778C238.726 72.3855 240.306 73.9519 240.306 75.8841V81.3842C240.306 83.3164 238.726 84.8828 236.778 84.8828H188.941C188.497 84.8828 188.138 84.5262 188.138 84.0865C188.138 83.6468 188.497 83.2903 188.941 83.2903H225.805C227.181 83.2903 228.297 82.1841 228.297 80.8188V76.4495C228.297 75.0848 227.181 73.9781 225.805 73.9781Z" fill="white"/>
<path d="M188.941 83.4035C188.561 83.4035 188.252 83.7098 188.252 84.0864C188.252 84.463 188.561 84.7693 188.941 84.7693H236.778C238.66 84.7693 240.191 83.2506 240.191 81.3841V75.884C240.191 74.0175 238.66 72.4988 236.778 72.4988H188.941C188.561 72.4988 188.252 72.8051 188.252 73.1817C188.252 73.5583 188.561 73.8646 188.941 73.8646H225.805C227.242 73.8646 228.411 75.0241 228.411 76.4494V80.8187C228.411 82.244 227.242 83.4035 225.805 83.4035H188.941ZM236.778 84.9961H188.941C188.435 84.9961 188.023 84.5882 188.023 84.0864C188.023 83.5852 188.435 83.1768 188.941 83.1768H225.805C227.116 83.1768 228.183 82.1188 228.183 80.8187V76.4494C228.183 75.1493 227.116 74.0914 225.805 74.0914H188.941C188.435 74.0914 188.023 73.6835 188.023 73.1817C188.023 72.6804 188.435 72.272 188.941 72.272H236.778C238.786 72.272 240.42 73.8923 240.42 75.884V81.3841C240.42 83.3758 238.786 84.9961 236.778 84.9961Z" fill="#697571"/>
<path d="M196.705 75.9922H190.564C190.501 75.9922 190.45 75.9414 190.45 75.8788C190.45 75.8162 190.501 75.7654 190.564 75.7654H196.705C196.768 75.7654 196.819 75.8162 196.819 75.8788C196.819 75.9414 196.768 75.9922 196.705 75.9922Z" fill="#697571"/>
<path d="M208.92 75.9922H197.758C197.695 75.9922 197.644 75.9414 197.644 75.8788C197.644 75.8162 197.695 75.7654 197.758 75.7654H208.92C208.983 75.7654 209.034 75.8162 209.034 75.8788C209.034 75.9414 208.983 75.9922 208.92 75.9922Z" fill="#697571"/>
<path d="M206.039 77.3408H190.694C190.631 77.3408 190.58 77.29 190.58 77.2274C190.58 77.1648 190.631 77.114 190.694 77.114H206.039C206.102 77.114 206.153 77.1648 206.153 77.2274C206.153 77.29 206.102 77.3408 206.039 77.3408Z" fill="#697571"/>
<path d="M210.46 77.3408H207.337C207.274 77.3408 207.223 77.29 207.223 77.2274C207.223 77.1648 207.274 77.114 207.337 77.114H210.46C210.523 77.114 210.574 77.1648 210.574 77.2274C210.574 77.29 210.523 77.3408 210.46 77.3408Z" fill="#697571"/>
<path d="M206.966 80.1553H190.694C190.631 80.1553 190.58 80.1045 190.58 80.0419C190.58 79.9793 190.631 79.9285 190.694 79.9285H206.966C207.029 79.9285 207.08 79.9793 207.08 80.0419C207.08 80.1045 207.029 80.1553 206.966 80.1553Z" fill="#697571"/>
<path d="M208.92 80.1553H207.506C207.443 80.1553 207.392 80.1045 207.392 80.0419C207.392 79.9793 207.443 79.9285 207.506 79.9285H208.92C208.983 79.9285 209.034 79.9793 209.034 80.0419C209.034 80.1045 208.983 80.1553 208.92 80.1553Z" fill="#697571"/>
<path d="M194.954 44.4834C194.905 44.4834 194.86 44.4526 194.845 44.4039C194.826 44.3438 194.86 44.2807 194.92 44.2618C194.927 44.2597 195.544 44.0637 195.612 43.5706C195.66 43.23 195.858 42.9724 196.017 42.8164C196.157 42.6774 196.237 42.4937 196.244 42.2967L195.151 42.7287C195.092 42.7523 195.026 42.7236 195.003 42.6656C194.979 42.6071 195.008 42.5414 195.066 42.5178L196.316 42.0238C196.351 42.0099 196.391 42.0145 196.422 42.0356C196.454 42.0566 196.473 42.0915 196.473 42.1294V42.2716C196.473 42.5389 196.368 42.7898 196.178 42.977C196.045 43.1089 195.878 43.3239 195.839 43.602C195.75 44.2392 195.019 44.469 194.988 44.4788C194.977 44.4819 194.965 44.4834 194.954 44.4834Z" fill="#697571"/>
</g>
<g opacity="0.6">
<path d="M1317.95 80.0986L1317.96 82.2922H1321L1321.25 80.2109L1317.95 80.0986Z" fill="white"/>
<path d="M1321.11 82.4171H1317.83L1317.83 79.9697L1321.39 80.0912L1321.11 82.4171ZM1318.08 82.1675H1320.88L1321.11 80.3312L1318.08 80.2279L1318.08 82.1675Z" fill="#0E2549"/>
<path d="M1317.79 82.1597C1317.79 82.1597 1313.4 83.5538 1313.25 84.7025H1321.12V82.1597H1317.79Z" fill="#505E59"/>
<path d="M1330.2 80.1465L1330.29 82.3655H1333.32L1333.47 80.0986L1330.2 80.1465Z" fill="white"/>
<path d="M1333.44 82.4902H1330.17L1330.07 80.0235L1333.6 79.9717L1333.44 82.4902ZM1330.41 82.2406H1333.21L1333.34 80.2252L1330.33 80.2691L1330.41 82.2406Z" fill="#0E2549"/>
<path d="M1330.12 82.2329C1330.12 82.2329 1325.73 83.627 1325.58 84.7758H1333.45V82.2329H1330.12Z" fill="#505E59"/>
<path d="M1325.29 84.3393V84.9999H1333.66V84.2446L1325.29 84.3393Z" fill="#0E2549"/>
<path d="M1321.37 84.2225V84.9266H1313V84.1714L1321.37 84.2225Z" fill="#0E2549"/>
<path d="M1333.54 80.0503H1329.65L1327.21 56.4536L1327.22 56.4165L1327.21 56.3403L1326.65 51.0435L1325.66 51.147L1326.2 56.4058L1321.43 80.0503H1317.73L1320.97 44.6177L1333.94 42.3774L1333.54 80.0503Z" stroke="#0E2549"/>
<path d="M1325.6 21.3404C1325.6 21.3404 1325.93 24.7832 1325.65 25.1639C1325.38 25.5446 1323.69 25.9553 1323.69 25.9553L1326.45 34.0828L1332.15 33.5326L1332.51 27.7061C1332.51 27.7061 1329.92 25.5898 1329.76 25.1551C1329.54 24.5537 1329.54 21.3403 1329.54 21.3403L1325.6 21.3404Z" fill="white"/>
<path d="M1326.38 34.2012L1323.55 25.8766L1323.66 25.8481C1324.3 25.6929 1325.38 25.3525 1325.56 25.0992C1325.73 24.8738 1325.65 22.9997 1325.49 21.3509C1325.49 21.2902 1325.53 21.2363 1325.59 21.2305C1325.65 21.2247 1325.7 21.2692 1325.71 21.3299C1325.77 21.9117 1326.03 24.8341 1325.74 25.2286C1325.49 25.5829 1324.24 25.927 1323.83 26.0332L1326.53 33.9645L1332.04 33.4318L1332.4 27.7558C1331.98 27.4151 1329.81 25.6244 1329.66 25.1927C1329.43 24.5801 1329.43 21.4725 1329.43 21.3405C1329.43 21.2795 1329.48 21.23 1329.54 21.23C1329.6 21.23 1329.65 21.2794 1329.65 21.3404C1329.65 22.4452 1329.7 24.6565 1329.86 25.1178C1329.97 25.4134 1331.59 26.8098 1332.58 27.6207L1332.63 27.6566L1332.25 33.6336L1326.38 34.2012Z" fill="#0E2549"/>
<path d="M1326.63 14.532C1325.92 14.6166 1324.19 14.7996 1324.2 16.0744C1324.22 17.5285 1324.49 19.395 1324.64 20.3777C1324.71 20.7655 1325.04 21.0486 1325.44 21.0439L1329.83 20.9907C1330.23 20.9858 1330.56 20.6796 1330.6 20.2786C1330.74 18.9289 1331.01 16.0713 1330.84 15.6429C1330.28 14.1853 1327.76 14.3982 1326.63 14.532Z" fill="#0E2549"/>
<path d="M1329.5 21.9448C1329.73 21.6956 1329.81 20.72 1329.83 19.6081C1329.83 19.5759 1329.85 19.5467 1329.87 19.5303C1330.16 19.3552 1330.57 18.9827 1330.55 18.4314C1330.54 17.9538 1330.19 18.0582 1329.92 18.2152C1329.87 18.2432 1329.81 18.2079 1329.81 18.1507C1329.78 16.8105 1329.69 15.6362 1329.69 15.6362L1324.47 15.6994C1324.47 15.6994 1324.5 16.8947 1324.56 18.2344C1324.56 18.2946 1324.82 21.4891 1324.95 21.777C1325.02 21.9338 1325.15 22.0631 1325.33 22.1674C1325.33 22.1674 1325.67 22.4371 1327.57 22.4142L1329.5 21.9448Z" fill="white"/>
<path d="M1327.34 22.5267C1325.74 22.5267 1325.34 22.3084 1325.27 22.2608C1325.07 22.1405 1324.93 21.9931 1324.85 21.8226C1324.71 21.5078 1324.45 18.2704 1324.45 18.2402C1324.39 16.9141 1324.36 15.714 1324.36 15.702L1324.36 15.5902L1329.79 15.5244L1329.8 15.6283C1329.8 15.6399 1329.88 16.7855 1329.92 18.0885C1330.15 17.9659 1330.34 17.9408 1330.47 18.0143C1330.59 18.0814 1330.66 18.2206 1330.66 18.428C1330.69 19.0814 1330.17 19.4755 1329.94 19.6198C1329.91 21.664 1329.66 21.9326 1329.58 22.021C1329.54 22.0657 1329.47 22.0679 1329.42 22.0259C1329.38 21.984 1329.37 21.9138 1329.42 21.8692C1329.52 21.7591 1329.7 21.3187 1329.72 19.6071C1329.72 19.5368 1329.75 19.4729 1329.81 19.4362C1330.01 19.317 1330.46 18.9808 1330.44 18.4355C1330.44 18.3658 1330.43 18.2435 1330.36 18.2084C1330.3 18.1715 1330.15 18.2101 1329.98 18.3113C1329.92 18.3439 1329.85 18.3446 1329.8 18.3132C1329.74 18.2809 1329.7 18.2214 1329.7 18.1541C1329.67 17.059 1329.61 16.0646 1329.58 15.7487L1324.58 15.8093C1324.59 16.137 1324.62 17.1406 1324.67 18.2293C1324.68 18.4496 1324.94 21.4835 1325.05 21.7321C1325.11 21.8609 1325.22 21.9754 1325.39 22.0723L1325.4 22.0812C1325.4 22.0812 1325.78 22.3254 1327.56 22.3037C1327.62 22.3016 1327.68 22.352 1327.68 22.4132C1327.68 22.4744 1327.63 22.5247 1327.57 22.5254C1327.49 22.5263 1327.41 22.5267 1327.34 22.5267Z" fill="#0E2549"/>
<path d="M1327.92 18.829C1327.82 18.829 1327.74 18.7521 1327.73 18.6522L1327.73 18.5446C1327.72 18.4407 1327.8 18.3513 1327.9 18.345C1328.01 18.3398 1328.1 18.4175 1328.1 18.5213L1328.11 18.629C1328.12 18.7329 1328.04 18.8222 1327.93 18.8287C1327.93 18.8288 1327.92 18.829 1327.92 18.829Z" fill="#0E2549"/>
<path d="M1325.52 18.8647C1325.42 18.8647 1325.33 18.7831 1325.33 18.6804L1325.33 18.5533C1325.32 18.4493 1325.41 18.3631 1325.51 18.3609C1325.51 18.3609 1325.51 18.3608 1325.51 18.3608C1325.62 18.3608 1325.7 18.4425 1325.7 18.5451L1325.71 18.6722C1325.71 18.7763 1325.63 18.8624 1325.52 18.8647C1325.52 18.8647 1325.52 18.8647 1325.52 18.8647Z" fill="#0E2549"/>
<path d="M1327.52 17.9893C1327.46 17.9893 1327.4 17.957 1327.38 17.9023C1327.34 17.827 1327.38 17.7378 1327.45 17.7024C1327.47 17.693 1327.95 17.4724 1328.47 17.674C1328.55 17.7039 1328.59 17.7912 1328.56 17.8688C1328.53 17.9465 1328.44 17.9853 1328.37 17.9552C1327.97 17.8012 1327.58 17.9736 1327.58 17.9754C1327.56 17.9847 1327.54 17.9893 1327.52 17.9893Z" fill="#0E2549"/>
<path d="M1327.39 20.4555C1327.48 20.5761 1327.06 20.9982 1326.57 20.9827C1325.78 20.9572 1325.52 20.4134 1325.71 20.4498C1325.79 20.464 1326.08 20.625 1326.56 20.631C1327.08 20.6374 1327.34 20.3744 1327.39 20.4555Z" fill="#0E2549"/>
<path d="M1326.53 20.0717C1326.52 20.0717 1326.51 20.0708 1326.5 20.0691C1326.39 20.0461 1326.01 19.9527 1325.97 19.717C1325.93 19.5419 1325.95 19.4968 1326.16 18.945C1326.2 18.8282 1326.25 18.6872 1326.32 18.5156C1326.34 18.4172 1326.4 18.1442 1326.37 17.988C1326.37 17.9798 1326.32 17.936 1326.18 17.899C1325.91 17.8253 1325.49 17.8294 1325.24 17.9814C1325.18 18.0181 1325.1 17.9994 1325.07 17.9396C1325.03 17.8798 1325.05 17.8016 1325.11 17.7649C1325.49 17.5307 1326.09 17.5764 1326.38 17.6995C1326.52 17.7584 1326.6 17.8375 1326.62 17.9346C1326.67 18.1838 1326.57 18.5489 1326.56 18.5898L1326.56 18.5991C1326.49 18.7733 1326.44 18.9162 1326.39 19.0344C1326.2 19.5637 1326.2 19.5696 1326.22 19.668C1326.23 19.7124 1326.4 19.7894 1326.55 19.8203C1326.62 19.8341 1326.67 19.9011 1326.65 19.9699C1326.64 20.03 1326.59 20.0716 1326.53 20.0717Z" fill="#0E2549"/>
<path d="M1319.75 53.8637C1319.75 53.8637 1318.53 51.8964 1318.34 51.2141C1318.23 50.7971 1318.52 48.8133 1318.52 48.8133L1319.27 35.1675L1322.18 36.14C1322.18 36.14 1320.08 48.2962 1320.08 48.8166C1320.08 49.3371 1321.37 50.7917 1321.31 51.1523C1321.24 51.5129 1319.93 50.2619 1319.93 50.2619C1319.93 50.2619 1319.75 51.3168 1319.8 51.668C1319.9 52.3103 1320.11 53.864 1320 54.1983C1319.92 54.4519 1319.35 52.959 1319.06 51.7358C1318.94 51.2393 1319.04 50.9013 1319.03 50.5867L1319.75 53.8637Z" fill="white"/>
<path d="M1319.98 54.395C1319.98 54.395 1319.97 54.3949 1319.97 54.3948C1319.89 54.3919 1319.8 54.3886 1319.6 53.9393C1319.48 53.7519 1318.36 51.9344 1318.18 51.2583C1318.06 50.825 1318.32 49.0366 1318.35 48.7964L1319.11 34.938L1322.37 36.0263L1322.34 36.1686C1321.5 41.0491 1320.25 48.4448 1320.25 48.8158C1320.25 49.0334 1320.6 49.5658 1320.89 49.9936C1321.29 50.5984 1321.51 50.9518 1321.47 51.1821C1321.46 51.2756 1321.4 51.3452 1321.31 51.373C1321.11 51.4393 1320.68 51.1795 1320.05 50.6007C1320 50.9576 1319.94 51.4461 1319.97 51.6424C1320.03 52.0043 1320.3 53.8311 1320.16 54.2492C1320.13 54.3573 1320.04 54.395 1319.98 54.395ZM1319.85 53.7615C1319.83 53.2621 1319.75 52.4001 1319.64 51.6939C1319.58 51.3257 1319.75 50.3436 1319.77 50.2328L1319.82 49.9229L1320.05 50.1404C1320.42 50.4906 1320.87 50.866 1321.11 50.9993C1321.02 50.7969 1320.78 50.4364 1320.61 50.1797C1320.19 49.549 1319.91 49.1136 1319.91 48.8174C1319.91 48.3132 1321.74 37.6842 1321.99 36.2537L1319.42 35.3969L1318.69 48.8304L1318.69 48.8381C1318.58 49.5915 1318.43 50.8909 1318.5 51.1698C1318.57 51.4175 1319.66 53.3003 1319.85 53.7615Z" fill="#0E2549"/>
<path d="M1319.88 30.2124L1320.65 35.0077C1320.49 36.0632 1319.6 47.0701 1319.6 47.0701H1334.32L1333.15 37.3134L1333.39 35.7658L1336.79 34.9959C1337.04 34.3863 1335.71 28.5875 1334.98 27.959C1334.05 27.1418 1331.4 25.2696 1330.54 25.1465C1330.33 25.1167 1330.44 23.5936 1329.92 23.5728C1328.92 23.5321 1326.21 23.6354 1325.44 23.5732C1325.06 23.5429 1325.13 25.0053 1325.13 25.0053C1325.13 25.0053 1324.59 25.3281 1324.17 25.5365C1321.84 26.7004 1320.56 28.9981 1319.88 30.2124Z" fill="#051912"/>
<path d="M1336.13 53.4484V52.5607C1336.13 51.9643 1335.64 51.479 1335.05 51.479H1333.59C1333 51.479 1332.51 51.9643 1332.51 52.5607V53.4484H1328.01V62.9283H1340.63V53.4484H1336.13ZM1332.97 53.4484V52.5607C1332.97 52.2181 1333.25 51.9393 1333.59 51.9393H1335.05C1335.39 51.9393 1335.67 52.2181 1335.67 52.5607V53.4484H1332.97Z" fill="#505E59"/>
<path d="M1333.05 41.9047C1333.31 44.5101 1333.95 49.9337 1333.72 50.1732C1333.4 50.51 1331.89 51.3196 1331.68 51.6206C1331.55 51.8031 1332.74 51.6628 1332.79 51.6673L1332.72 52.0692C1332.72 52.0692 1332.86 52.334 1333.06 52.3205C1333.23 52.3089 1333.39 52.0951 1333.55 52.11C1333.57 52.1114 1333.83 52.2553 1333.94 52.2653C1334.08 52.278 1334.26 52.0605 1334.38 52.0161C1334.46 51.9834 1334.67 52.1656 1334.8 52.1328C1335.01 52.0801 1335.03 51.8176 1335.18 51.7769C1335.32 51.7386 1335.43 51.9625 1335.68 51.8841C1335.91 51.8075 1335.52 50.4161 1335.62 50.168C1335.99 49.2985 1336.68 33.8695 1335.92 35.2022C1335.67 35.6213 1332.73 34.9181 1332.48 35.4612C1332.48 35.4614 1332.98 41.1542 1333.05 41.9047Z" fill="white"/>
<path d="M1333.04 52.4607C1332.77 52.4607 1332.61 52.1665 1332.6 52.1321L1332.58 52.0907L1332.62 51.8202C1331.79 51.8894 1331.62 51.8497 1331.55 51.7301C1331.52 51.6716 1331.52 51.601 1331.56 51.5416C1331.68 51.3709 1332.06 51.1255 1332.66 50.7418C1333.06 50.4931 1333.46 50.2361 1333.61 50.0882C1333.73 49.7198 1333.37 46.2611 1333.12 43.9658C1333.04 43.2082 1332.97 42.4926 1332.91 41.9182C1332.84 41.1757 1332.35 35.5304 1332.34 35.4734L1332.34 35.4367L1332.36 35.4032C1332.52 35.052 1333.22 35.0758 1334.36 35.1566C1334.86 35.192 1335.7 35.2513 1335.8 35.1312C1335.91 34.9335 1336.05 34.9808 1336.08 35.0002C1336.2 35.0558 1336.37 35.1399 1336.4 37.4809C1336.42 39.0932 1336.36 41.0739 1336.31 42.4517C1336.19 45.9096 1335.95 49.7615 1335.75 50.2219C1335.73 50.2993 1335.78 50.6631 1335.81 50.9038C1335.91 51.5638 1335.96 51.9408 1335.72 52.0172C1335.52 52.0812 1335.38 52.0015 1335.29 51.9487C1335.26 51.9346 1335.22 51.9133 1335.21 51.9122C1335.2 51.9159 1335.16 51.9732 1335.14 52.0041C1335.08 52.0977 1335 52.2262 1334.83 52.2684C1334.71 52.2978 1334.59 52.2399 1334.5 52.1932C1334.47 52.1807 1334.43 52.1626 1334.41 52.155C1334.38 52.1715 1334.34 52.2045 1334.3 52.2321C1334.19 52.3189 1334.07 52.4179 1333.93 52.4044C1333.83 52.3954 1333.69 52.3293 1333.55 52.2623C1333.54 52.2576 1333.53 52.2534 1333.53 52.25C1333.49 52.2572 1333.43 52.2962 1333.38 52.3283C1333.29 52.3861 1333.19 52.4517 1333.07 52.4597C1333.06 52.4605 1333.05 52.4607 1333.04 52.4607ZM1332.87 52.0431C1332.91 52.1049 1332.98 52.1834 1333.05 52.1813C1333.1 52.1781 1333.16 52.1354 1333.23 52.0942C1333.33 52.0307 1333.44 51.9583 1333.57 51.9711C1333.6 51.974 1333.61 51.981 1333.67 52.0111C1333.82 52.0843 1333.92 52.1232 1333.95 52.1265C1333.99 52.1246 1334.08 52.0514 1334.13 52.0121C1334.2 51.9597 1334.26 51.9103 1334.33 51.8858C1334.42 51.849 1334.52 51.8961 1334.62 51.9414C1334.66 51.9621 1334.74 52.0018 1334.77 51.9973C1334.82 51.983 1334.86 51.9339 1334.91 51.8548C1334.96 51.7747 1335.02 51.6752 1335.14 51.6424C1335.26 51.6111 1335.35 51.6634 1335.42 51.7054C1335.5 51.7458 1335.54 51.7701 1335.61 51.7586C1335.64 51.6354 1335.58 51.2066 1335.54 50.9448C1335.47 50.5054 1335.44 50.2501 1335.5 50.1147C1335.65 49.7512 1335.89 46.3183 1336.03 42.6181C1336.19 38.2422 1336.12 35.8851 1335.98 35.3402C1335.77 35.5261 1335.23 35.4982 1334.34 35.4353C1333.75 35.3936 1332.79 35.325 1332.63 35.496C1332.67 36.0425 1333.12 41.1861 1333.19 41.8911C1333.25 42.4645 1333.32 43.1796 1333.4 43.9366C1333.91 48.782 1334 50.0841 1333.82 50.2695C1333.66 50.4404 1333.25 50.7014 1332.81 50.9778C1332.5 51.1771 1332.13 51.4137 1331.93 51.5749C1332.06 51.5774 1332.28 51.5695 1332.65 51.5378C1332.77 51.5279 1332.79 51.5266 1332.81 51.5285L1332.96 51.5421L1332.87 52.0431Z" fill="#0E2549"/>
<path d="M1331.02 31.6089L1333.51 49.2355H1337.32L1336.82 34.6269L1331.02 31.6089Z" fill="#051912"/>
<path d="M1337.32 49.3755H1333.38L1331.26 32.3478C1331.25 32.2712 1331.31 32.2015 1331.39 32.1919C1331.46 32.1827 1331.53 32.2367 1331.54 32.3132L1333.63 49.0961H1337.32C1337.39 49.0961 1337.46 49.1586 1337.46 49.2358C1337.46 49.3129 1337.39 49.3755 1337.32 49.3755Z" fill="#0E2549"/>
<path d="M1330.38 16.0711C1329.5 17.0904 1325.61 18.0929 1323.76 14.6957C1321.91 11.2984 1327.15 13.9749 1328.87 14.4554C1329.61 14.661 1331.14 15.1982 1330.38 16.0711Z" fill="#0E2549"/>
<path d="M1329.06 61.9384C1329 61.9384 1328.95 61.8886 1328.95 61.8257L1328.81 55.2986C1328.81 55.2351 1328.86 55.1825 1328.93 55.1812C1328.99 55.1802 1329.04 55.2303 1329.04 55.2939L1329.18 61.821C1329.18 61.8845 1329.13 61.9371 1329.07 61.9384C1329.06 61.9384 1329.06 61.9384 1329.06 61.9384Z" fill="white"/>
<path d="M1322.31 26.8608C1321.57 27.5928 1319.23 29.3159 1318.79 35.1835L1318.31 48.0839H1320.81L1322.18 31.7929L1322.31 26.8608Z" fill="#051912"/>
<path d="M1321.06 47.2096C1321.05 47.2096 1321.04 47.209 1321.03 47.2074C1320.96 47.1936 1320.91 47.121 1320.92 47.0451C1321 46.6225 1321.12 37.1168 1321.17 32.1494C1321.17 32.0724 1321.23 32.0105 1321.31 32.0112C1321.38 32.012 1321.45 32.0751 1321.44 32.1522C1321.44 32.7396 1321.3 46.5438 1321.2 47.0949C1321.18 47.1624 1321.13 47.2096 1321.06 47.2096Z" fill="#0E2549"/>
<path d="M1334.32 58.3323L1328.28 53.7911C1328.23 53.7529 1328.22 53.6808 1328.26 53.63C1328.29 53.5792 1328.37 53.5688 1328.42 53.6071L1334.32 58.0443L1340.16 53.6532C1340.21 53.615 1340.29 53.6254 1340.32 53.676C1340.36 53.7268 1340.35 53.7991 1340.3 53.8372L1334.32 58.3323Z" fill="#0E2549"/>
<path d="M1334.43 59.3115H1334.21C1333.97 59.3115 1333.78 59.1177 1333.78 58.8785V57.8518C1333.78 57.6127 1333.97 57.4189 1334.21 57.4189H1334.43C1334.67 57.4189 1334.86 57.6127 1334.86 57.8518V58.8785C1334.86 59.1177 1334.67 59.3115 1334.43 59.3115Z" fill="#0E2549"/>
</g>
<path d="M1063.58 91.1645C1062.95 91.1645 1062.32 91.3726 1061.78 91.7818C1060.88 92.46 1059.64 92.9973 1058.08 93.3799C1057 93.6457 1056.14 94.0258 1055.52 94.5073C1055.05 94.8765 1054.99 95.4964 1055.14 95.9468C1055.26 96.3205 1055.58 96.7196 1056.1 96.7196H1065.4L1065.79 91.5686L1065.09 91.5711C1065.09 91.5711 1065.09 91.5711 1065.09 91.5711C1065.06 91.5711 1065.04 91.5648 1065.02 91.5534C1064.57 91.2932 1064.07 91.1645 1063.58 91.1645ZM1065.53 97H1056.1C1055.54 97 1055.07 96.6308 1054.88 96.0369C1054.7 95.4913 1054.77 94.7376 1055.35 94.2846C1056 93.7783 1056.9 93.3824 1058.02 93.1071C1059.54 92.7334 1060.75 92.2113 1061.62 91.5559C1062.67 90.7654 1064.01 90.6652 1065.12 91.2907L1065.94 91.2875C1065.94 91.2875 1065.94 91.2875 1065.94 91.2875C1065.98 91.2875 1066.01 91.304 1066.04 91.3326C1066.07 91.3611 1066.08 91.3998 1066.08 91.4385L1065.67 96.8706C1065.66 96.9435 1065.6 97 1065.53 97Z" fill="#828C88"/>
<path d="M1058.37 95.9556H1056.26C1056.19 95.9556 1056.13 95.8889 1056.13 95.806C1056.13 95.7239 1056.19 95.6572 1056.26 95.6572H1058.37C1058.44 95.6572 1058.5 95.7239 1058.5 95.806C1058.5 95.8889 1058.44 95.9556 1058.37 95.9556Z" fill="#828C88"/>
<path d="M1068.34 91.1646C1067.71 91.1646 1067.08 91.3726 1066.53 91.7819C1065.62 92.4601 1064.37 92.9974 1062.8 93.38C1060.44 93.9573 1059.58 94.9533 1059.28 95.6874C1059.18 95.9348 1059.21 96.2235 1059.35 96.4411C1059.47 96.6181 1059.64 96.7196 1059.83 96.7196H1069.79C1070.08 96.7196 1070.36 96.5825 1070.56 96.3332C1070.8 96.035 1070.9 95.6176 1070.82 95.2179L1070.17 91.7692L1069.79 91.5535C1069.34 91.2933 1068.84 91.1646 1068.34 91.1646ZM1069.79 97H1059.83C1059.55 97 1059.29 96.8534 1059.12 96.5971C1058.93 96.3028 1058.89 95.9132 1059.03 95.5802C1059.35 94.7859 1060.26 93.7118 1062.74 93.1072C1064.27 92.7335 1065.49 92.2114 1066.37 91.556C1067.43 90.7579 1068.8 90.6634 1069.93 91.3086L1070.36 91.556C1070.4 91.5763 1070.42 91.6112 1070.43 91.6518L1071.09 95.1646C1071.19 95.6461 1071.06 96.1492 1070.77 96.5121C1070.52 96.8268 1070.17 97 1069.79 97Z" fill="#828C88"/>
<path d="M1069.2 95.9556H1060.72C1060.64 95.9556 1060.58 95.8889 1060.58 95.806C1060.58 95.7239 1060.64 95.6572 1060.72 95.6572H1069.2C1069.28 95.6572 1069.34 95.7239 1069.34 95.806C1069.34 95.8889 1069.28 95.9556 1069.2 95.9556Z" fill="#828C88"/>
<path d="M1095.62 75.9086C1095.62 75.9086 1094.51 74.5058 1089.04 70.6309C1083.57 66.756 1073.3 64.1877 1070.15 64.3345C1065.84 64.5351 1065.94 69.8641 1065.94 73.0523C1065.94 77.7121 1061.47 91.8782 1061.47 91.8782C1062.22 92.4125 1064.37 92.8661 1067.27 93.1211C1067.27 93.1211 1075.55 83.7247 1074.5 74.7057C1074.5 74.7057 1078.43 81.3276 1083.52 83.1279C1084.4 83.4379 1087.27 83.3773 1089.78 83.2648C1092.47 83.1442 1094.71 81.2008 1095.23 78.565C1095.38 77.8027 1095.52 76.9222 1095.62 75.9086Z" fill="#828C88"/>
<path d="M1073.24 71.3402C1073.24 71.3402 1076.16 84.2564 1071.21 93.1211H1066.82L1073.24 71.3402Z" fill="#828C88"/>
<path d="M1068.29 92.5244C1068.28 92.5244 1068.26 92.5219 1068.24 92.5162C1068.17 92.4897 1068.14 92.4096 1068.16 92.3377C1069.12 89.6493 1070.88 84.2916 1071.89 78.6152C1071.91 78.5395 1071.98 78.4891 1072.05 78.5036C1072.13 78.5168 1072.17 78.5894 1072.16 78.6657C1071.14 84.3616 1069.38 89.7358 1068.42 92.433C1068.4 92.4897 1068.35 92.5244 1068.29 92.5244Z" fill="white"/>
<path d="M1091.43 36.7029C1092.79 37.7508 1092.05 38.7096 1093.83 41.1586C1095.14 42.9577 1096.21 43.3694 1096.22 44.5758C1096.22 45.6624 1095.35 46.4721 1094.78 47.0067C1092.17 49.4345 1088.45 49.3073 1086.17 49.2293C1084.33 49.1663 1081.8 49.0796 1081.41 47.9455C1081.04 46.8252 1083.19 45.9737 1083.3 43.7349C1083.4 41.9334 1082.06 41.4737 1082.3 39.8717C1082.62 37.7995 1085.15 36.6648 1085.55 36.4827C1087.18 35.7528 1089.75 35.4129 1091.43 36.7029Z" fill="#828C88"/>
<path d="M1088.83 36.1431C1088.83 36.1431 1088.75 32.6233 1091.67 33.0333C1094.59 33.4439 1092.47 36.7493 1090.43 37.3525C1088.4 37.9562 1088.83 36.1431 1088.83 36.1431Z" fill="#828C88"/>
<path d="M1091.94 46.7943C1092.42 46.8314 1092.88 47.0097 1093.25 47.3135C1094.22 48.0983 1095.92 49.7952 1096.63 52.3906C1097.94 57.2372 1098.73 70.5102 1096.14 77.1077C1095.96 77.5654 1095.41 77.7487 1095 77.4832C1091.04 74.7761 1094.12 73.1294 1083.88 67.9751C1084.57 62.2841 1080.97 56.8116 1082.49 52.9851C1083.06 51.528 1083.99 49.5586 1085.27 48.3356C1087.23 46.4553 1090.56 46.6889 1091.94 46.7943Z" fill="white"/>
<path d="M1095.11 77.3778C1095.27 77.4802 1095.47 77.5053 1095.65 77.4463C1095.83 77.3866 1095.97 77.249 1096.04 77.0681C1098.61 70.4716 1097.8 57.1739 1096.52 52.4207C1095.83 49.8594 1094.16 48.1832 1093.22 47.4118C1092.87 47.1272 1092.45 46.9582 1091.99 46.923C1090.73 46.8262 1087.4 46.5693 1085.47 48.427C1084.49 49.3762 1083.57 50.9255 1082.75 53.03C1081.98 54.9801 1082.58 57.4453 1083.21 60.0549C1083.8 62.4554 1084.46 65.1731 1084.15 67.899C1090.57 71.1721 1091.68 73.0292 1092.67 74.6682C1093.23 75.603 1093.71 76.4097 1095.11 77.3778ZM1095.45 77.7554C1095.28 77.7554 1095.11 77.707 1094.96 77.6121C1094.96 77.6109 1094.96 77.6096 1094.96 77.6084C1093.5 76.6063 1092.98 75.7343 1092.43 74.8115C1091.46 73.1969 1090.37 71.3675 1083.94 68.1032C1083.89 68.0768 1083.86 68.0203 1083.86 67.9625C1084.19 65.2542 1083.56 62.6445 1082.95 60.1209C1082.3 57.4672 1081.69 54.9606 1082.49 52.9283C1083.33 50.786 1084.27 49.2035 1085.28 48.2266C1087.3 46.2828 1090.72 46.5467 1092.01 46.6459C1092.52 46.6855 1093 46.8759 1093.39 47.1963C1094.36 47.9891 1096.08 49.7117 1096.79 52.3478C1098.08 57.1318 1098.89 70.5207 1096.3 77.1692C1096.2 77.4281 1095.99 77.6253 1095.73 77.7108C1095.64 77.7409 1095.55 77.7554 1095.45 77.7554Z" fill="#828C88"/>
<path d="M1077.83 52.0516L1076.53 48.5729L1074.96 48.5149L1071.84 52.557L1071.72 53.0624L1075.64 60.4647L1080.48 61.0464L1080.35 57.6603L1079.06 52.0264L1077.83 52.0516Z" fill="#828C88"/>
<path d="M1076.59 48.6645L1074.24 52.0195L1077.95 52.0957L1076.59 48.6645Z" fill="white"/>
<path d="M1074.49 51.7568L1077.62 51.8206L1076.46 48.9356L1074.49 51.7568ZM1077.82 52.0957C1077.82 52.0957 1077.82 52.0957 1077.82 52.0957L1074.23 52.0222C1074.18 52.0209 1074.13 51.9928 1074.11 51.948C1074.09 51.9039 1074.09 51.8506 1074.12 51.8095L1076.39 48.574C1076.41 48.533 1076.46 48.5097 1076.51 48.5164C1076.56 48.5226 1076.61 48.555 1076.62 48.601L1077.94 51.9106C1077.96 51.9523 1077.96 52.0001 1077.93 52.0375C1077.9 52.0743 1077.86 52.0957 1077.82 52.0957Z" fill="#828C88"/>
<path d="M1079.3 52.8413C1079.24 52.8413 1079.19 52.807 1079.17 52.7542L1079 52.2297L1073.64 52.1867C1073.56 52.1862 1073.5 52.1318 1073.5 52.0654C1073.5 51.9995 1073.56 51.9462 1073.64 51.9462C1073.64 51.9462 1073.64 51.9462 1073.64 51.9462L1079.1 51.9897C1079.16 51.9903 1079.22 52.0256 1079.23 52.0773L1079.43 52.6879C1079.46 52.7521 1079.41 52.8185 1079.34 52.837C1079.33 52.8397 1079.31 52.8413 1079.3 52.8413Z" fill="#828C88"/>
<path d="M1080.79 61.1958C1080.78 61.1958 1080.78 61.1952 1080.77 61.1945L1075.7 60.6141C1075.65 60.609 1075.61 60.5813 1075.59 60.5404L1071.8 53.2238C1071.67 52.9588 1071.7 52.6358 1071.88 52.3997L1075.28 47.9724C1075.33 47.9113 1075.41 47.9006 1075.47 47.9478C1075.53 47.9944 1075.54 48.0819 1075.5 48.143L1072.09 52.5703C1071.98 52.7202 1071.96 52.926 1072.05 53.0948L1075.8 60.3458L1080.8 60.9181C1080.88 60.927 1080.93 60.9956 1080.92 61.0718C1080.92 61.1429 1080.86 61.1958 1080.79 61.1958Z" fill="#828C88"/>
<path d="M1078.11 53.438C1078.07 53.438 1078.04 53.4284 1078.01 53.408C1077.95 53.3595 1077.93 53.2708 1077.99 53.2102L1079.02 51.9998C1079.07 51.9386 1079.17 51.9284 1079.23 51.9762C1079.3 52.0241 1079.31 52.1128 1079.26 52.174L1078.23 53.3844C1078.2 53.4195 1078.15 53.438 1078.11 53.438Z" fill="#828C88"/>
<path d="M1094.73 57.8199C1094.73 57.8199 1092.14 58.5401 1089.82 57.3371L1089.77 61.2333C1089.77 61.2333 1083.97 59.4484 1082.46 58.3999C1080.95 57.3508 1082.08 53.6888 1079.25 52.8416C1079.25 52.8416 1079.86 54.5398 1079.6 54.7398C1079.35 54.9392 1078.6 55.0395 1077.74 54.49C1076.89 53.9405 1075.33 53.1911 1074.27 53.4409C1073.21 53.6907 1074.85 57.7265 1077.39 58.5862C1080.61 59.6771 1086.3 66.8764 1090.91 68.1218C1092.04 68.427 1093.22 67.8975 1093.72 66.8465C1093.99 66.2746 1094.24 65.4909 1094.35 64.4305C1094.63 61.6663 1094.73 57.8199 1094.73 57.8199Z" fill="white"/>
<path d="M1074.72 53.5184C1074.57 53.5184 1074.43 53.5334 1074.29 53.5646C1074.16 53.5964 1074.09 53.7318 1074.08 53.9683C1074.02 55.0671 1075.44 57.7781 1077.43 58.4526C1078.88 58.943 1080.82 60.6482 1082.87 62.4533C1085.46 64.7301 1088.4 67.3113 1090.95 68.0002C1092.02 68.2878 1093.13 67.7824 1093.6 66.7972C1093.92 66.1439 1094.12 65.3447 1094.22 64.4225C1094.47 62.0303 1094.57 58.787 1094.6 57.9934C1093.98 58.1306 1091.92 58.4775 1089.96 57.5541L1089.91 61.2366C1089.91 61.2803 1089.89 61.3209 1089.86 61.3464C1089.82 61.372 1089.77 61.3795 1089.73 61.3664C1089.49 61.2934 1083.89 59.5607 1082.38 58.51C1081.71 58.0458 1081.53 57.1373 1081.34 56.1752C1081.09 54.908 1080.82 53.6002 1079.47 53.0549C1079.73 53.8129 1079.93 54.6465 1079.69 54.8387C1079.38 55.0827 1078.55 55.1682 1077.66 54.5966C1076.84 54.0663 1075.64 53.5184 1074.72 53.5184ZM1091.56 68.3564C1091.33 68.3564 1091.11 68.3277 1090.88 68.2666C1088.27 67.5603 1085.3 64.9566 1082.69 62.6598C1080.66 60.8735 1078.73 59.1863 1077.34 58.714C1075.2 57.9884 1073.74 55.1544 1073.8 53.9552C1073.82 53.4648 1074.08 53.3319 1074.23 53.2963C1075.27 53.0505 1076.81 53.7187 1077.81 54.3651C1078.65 54.9042 1079.33 54.7682 1079.51 54.6234C1079.59 54.5018 1079.41 53.6981 1079.12 52.8764C1079.1 52.8271 1079.11 52.7728 1079.15 52.7348C1079.18 52.6973 1079.24 52.683 1079.29 52.698C1081.03 53.2214 1081.34 54.762 1081.61 56.1215C1081.79 57.0275 1081.96 57.8829 1082.54 58.2835C1083.87 59.2076 1088.65 60.7381 1089.64 61.0476L1089.69 57.3307C1089.69 57.2827 1089.71 57.239 1089.75 57.2141C1089.79 57.1897 1089.85 57.1885 1089.89 57.2103C1092.13 58.3765 1094.68 57.6908 1094.71 57.6833C1094.75 57.6714 1094.79 57.6808 1094.83 57.7076C1094.86 57.7344 1094.88 57.7762 1094.88 57.8199C1094.88 57.8586 1094.78 61.709 1094.49 64.4506C1094.4 65.4046 1094.18 66.2338 1093.86 66.9158C1093.43 67.813 1092.52 68.3564 1091.56 68.3564Z" fill="#828C88"/>
<path d="M1083.91 43.6739C1083.8 43.5045 1084.31 42.5887 1084.32 42.2549C1084.34 41.9211 1084.08 41.6421 1083.97 41.2913C1083.87 40.9411 1083.99 40.3176 1083.99 40.3176C1084.13 36.1392 1088.65 37.1306 1088.65 37.1306C1089.69 37.4468 1090.3 38.6208 1090.5 39.4018C1090.88 40.914 1090.17 42.7424 1090.17 42.7424C1090.2 42.8111 1090.94 47.7042 1090.97 47.7679C1091.44 48.6767 1088.3 49.2713 1087.31 48.3561C1086.98 48.0462 1087.4 45.7732 1087.31 45.7707C1086.94 45.7606 1086.49 46.1618 1086.02 46.0364C1085.33 45.8525 1084.81 44.1155 1084.71 43.9863C1084.67 43.9252 1084.51 43.8893 1084.34 43.8509C1084.16 43.8087 1083.96 43.7627 1083.91 43.6739Z" fill="white"/>
<path d="M1087.3 45.6392C1087.3 45.6392 1087.31 45.6392 1087.31 45.6392C1087.35 45.6405 1087.39 45.6601 1087.42 45.6897C1087.48 45.7604 1087.47 45.8355 1087.41 46.4052C1087.36 46.8708 1087.23 48.1074 1087.4 48.2657C1088.13 48.9351 1090.08 48.7295 1090.71 48.2386C1090.96 48.043 1090.89 47.8979 1090.86 47.8436C1090.84 47.8033 1090.83 47.79 1090.42 45.149C1090.26 44.0904 1090.07 42.8922 1090.05 42.7869C1090.04 42.7566 1090.04 42.7238 1090.05 42.6941C1090.06 42.6758 1090.74 40.8859 1090.37 39.4342C1090.2 38.773 1089.64 37.5705 1088.61 37.2576C1088.6 37.2557 1086.51 36.814 1085.19 37.8449C1084.52 38.3749 1084.15 39.2077 1084.11 40.3213C1084.11 40.3288 1084.11 40.3358 1084.11 40.3427C1084.08 40.5074 1084.02 40.9907 1084.1 41.2506C1084.13 41.3724 1084.19 41.4904 1084.25 41.6039C1084.36 41.8083 1084.47 42.0197 1084.45 42.2645C1084.44 42.4374 1084.34 42.7061 1084.22 42.99C1084.14 43.2001 1084.02 43.5124 1084.02 43.6096C1084.07 43.6531 1084.27 43.6998 1084.36 43.72C1084.58 43.7698 1084.74 43.8064 1084.82 43.9068C1084.85 43.9478 1084.88 44.0191 1084.96 44.2197C1085.14 44.6878 1085.58 45.7837 1086.05 45.9105C1086.28 45.9717 1086.52 45.8758 1086.76 45.7825C1086.94 45.7086 1087.12 45.6392 1087.3 45.6392ZM1088.9 48.9629C1088.24 48.9629 1087.59 48.819 1087.22 48.4708C1086.96 48.2361 1087.03 47.419 1087.14 46.3755C1087.15 46.2165 1087.17 46.0437 1087.18 45.932C1087.08 45.9534 1086.97 45.997 1086.86 46.0418C1086.59 46.1465 1086.3 46.2645 1085.98 46.1799C1085.37 46.0178 1084.93 44.915 1084.7 44.3232C1084.66 44.2178 1084.61 44.0979 1084.59 44.0733C1084.57 44.0531 1084.41 44.0178 1084.31 43.9945C1084.05 43.9333 1083.86 43.8822 1083.78 43.7528C1083.69 43.6058 1083.78 43.3547 1083.97 42.8866C1084.06 42.6481 1084.17 42.3768 1084.18 42.25C1084.18 42.0803 1084.1 41.9188 1084.01 41.732C1083.94 41.6077 1083.88 41.4784 1083.83 41.3333C1083.72 40.9762 1083.82 40.3913 1083.84 40.3005C1083.88 39.1055 1084.28 38.2052 1085.02 37.6241C1086.45 36.5131 1088.59 36.968 1088.68 36.9875C1089.84 37.3396 1090.46 38.6468 1090.64 39.3642C1091.01 40.7995 1090.43 42.4727 1090.32 42.7566C1090.35 42.903 1090.43 43.3793 1090.7 45.1061C1090.87 46.209 1091.08 47.5749 1091.11 47.7288C1091.24 47.9837 1091.15 48.2493 1090.88 48.4601C1090.49 48.761 1089.69 48.9629 1088.9 48.9629Z" fill="#828C88"/>
<path d="M1083.4 37.9717C1083.85 37.5084 1084.45 36.9281 1086.26 36.6725C1087.76 36.4604 1087 36.3345 1088.14 36.5239C1088.45 36.5768 1089.03 36.6712 1089.59 37.0867C1090.42 37.7016 1090.74 38.5646 1090.9 39.2085C1091.22 40.4655 1090.82 41.9303 1090.64 42.4848C1090.59 42.6214 1090.46 42.7076 1090.32 42.6957C1089.94 42.6636 1089.6 42.6132 1089.3 42.5484C1089.16 42.5182 1089.08 42.3677 1089.14 42.2324C1089.15 42.1953 1089.16 42.1569 1089.18 42.1172C1089.33 41.5872 1089.07 41.0503 1088.61 40.9181C1088.15 40.7859 1087.66 41.1082 1087.51 41.6382C1087.5 41.6753 1087.49 41.7119 1087.48 41.749C1086.82 41.2435 1086.48 40.6707 1085.86 40.3636C1085.79 40.3264 1085.47 40.1785 1084.98 40.1609C1083.91 40.1231 1083.56 40.7589 1083.05 40.6355C1082.17 40.4209 1082.58 38.8044 1083.4 37.9717Z" fill="#828C88"/>
<path d="M1087.29 45.8301C1087.23 45.8301 1087.18 45.7925 1087.17 45.7336C1087.14 45.6604 1087.18 45.5827 1087.25 45.5596C1088.62 45.1018 1088.83 44.1869 1088.83 44.1487C1088.85 44.0742 1088.92 44.0259 1088.99 44.0435C1089.06 44.0598 1089.1 44.133 1089.09 44.2075C1089.08 44.2526 1088.85 45.3147 1087.33 45.8238C1087.32 45.8282 1087.3 45.8301 1087.29 45.8301Z" fill="#828C88"/>
<defs>
<clipPath id="clip0_980_93984">
<rect width="53" height="80" fill="white" transform="translate(188 5)"/>
</clipPath>
</defs>
</svg>
